<svg width="58" height="75" viewBox="0 0 58 75" fill="none" xmlns="http://www.w3.org/2000/svg">
<path fill-rule="evenodd" clip-rule="evenodd" d="M9.10434 47.7802L9.16555 47.9871C9.08139 48.0484 9.07374 48.1634 9.10434 48.263C9.16555 48.4546 9.44097 48.6692 9.60929 49.2362C9.96122 50.3934 9.40272 51.4969 8.22451 51.8571C7.75017 52.0103 7.25287 52.0103 6.77088 51.8571C6.06701 51.6501 5.66152 51.0907 5.4473 50.3857C5.34784 50.0715 5.29429 49.7267 5.36315 49.4048C5.4473 49.0447 5.56971 48.6538 5.95225 48.5312C6.18942 48.4622 6.44189 48.5542 6.5184 48.8224C6.57961 49.037 6.48015 49.3129 6.26593 49.3818C6.10526 49.4355 5.9293 49.3282 5.86809 49.3359C5.76098 49.3742 5.70743 49.5964 5.69213 49.696C5.66152 49.8646 5.66917 50.0562 5.72273 50.2171C5.82984 50.5773 6.18177 50.8685 6.54135 50.9758C6.98509 51.0831 7.40588 51.0064 7.86493 50.8685C7.6201 50.7765 7.31408 50.6386 7.23757 50.3704C7.12281 49.9949 7.43649 49.4201 7.33703 49.1289C7.31408 49.0447 7.19931 48.9374 7.0616 48.8301L7.19166 48.6385C7.49769 48.7918 7.91848 49.0676 8.01029 49.3818C8.1174 49.742 7.85728 50.1635 7.94908 50.4853C8.02559 50.7076 8.26276 50.7459 8.45403 50.6769C9.08904 50.4853 9.43332 49.8033 9.2344 49.1673C9.10434 48.7305 8.73711 48.286 8.23216 48.309L8.14035 48.0178L9.10434 47.7802ZM9.00488 58.7156L9.18085 58.593C9.26501 58.731 9.45627 58.8383 9.61694 58.731L11.7056 57.3516C12.5778 56.7768 13.3505 57.5432 13.6795 58.0489C14.1232 58.7463 14.039 59.6122 13.3199 60.0874C12.6237 60.5472 11.7821 60.3326 11.3307 59.6352C11.17 59.3823 11.0782 59.0835 11.1241 58.7923L10.0913 59.4666C9.93827 59.5739 9.94592 59.7885 10.0377 59.9111L9.86941 60.0261L9.00488 58.7156ZM11.5832 58.4857C11.3307 58.6543 11.4608 59.0605 11.6061 59.298C11.8968 59.7349 12.3482 59.5356 12.7843 59.2521C13.1516 59.0068 13.6795 58.616 13.3352 58.0796C13.1286 57.7577 12.7537 57.7118 12.4247 57.9263L11.5832 58.4857ZM19.2339 64.2102L18.4994 67.4441L21.2154 65.5359L22.3554 66.3022L22.2483 66.4708C22.1029 66.3712 21.8963 66.3789 21.8045 66.5245L20.0142 69.2219C19.9148 69.3752 20.0142 69.5668 20.1367 69.6511L20.0295 69.8197L18.7289 68.969L18.8437 68.8004C18.9814 68.9001 19.188 68.9001 19.2874 68.7468L21.1159 65.9727L17.7879 68.3407L17.4283 68.1031L18.354 64.1259L16.5255 66.8923C16.4261 67.0456 16.5026 67.2295 16.6479 67.3214L16.5408 67.49L15.6992 66.9306L15.8217 66.762C15.9517 66.854 16.1659 66.8617 16.2654 66.7084L18.048 64.0033C18.1475 63.85 18.0786 63.6661 17.9256 63.5665L18.0404 63.3979L19.2339 64.2102ZM28.3535 67.674V67.8809C28.1776 67.8809 28.0092 67.9881 28.0092 68.1797L27.971 70.563L29.9984 68.8234V68.2027C29.9984 68.0111 29.8301 67.9039 29.6618 67.9039V67.6893L31.2225 67.7046V67.9192C31.0389 67.9192 30.8783 68.0265 30.8783 68.2104L30.8323 71.4596C30.8323 71.6358 31.016 71.7585 31.169 71.7585V71.973L29.6235 71.95V71.7355C29.7919 71.7355 29.9678 71.6282 29.9678 71.4443L29.9984 69.1453L27.9786 70.8925V71.4136C27.9786 71.5975 28.1393 71.7125 28.3229 71.7125V71.927L26.7622 71.9041V71.6895C26.9305 71.6895 27.1065 71.5822 27.1141 71.4059L27.1524 68.1567C27.16 67.9805 26.9993 67.8579 26.8157 67.8579L26.8234 67.651L28.3535 67.674ZM39.6689 68.287C39.7531 68.4326 39.952 68.4556 40.1127 68.3636L40.2198 68.5399L38.8732 69.3445L38.7738 69.1606L38.7891 69.153C38.9344 69.0687 39.0109 68.8771 38.9191 68.7315L37.1824 65.7888L36.7616 66.0417C36.425 66.2409 36.2337 66.7314 36.3715 67.0916L36.1266 67.2371L35.5605 66.2792L35.7058 66.195C35.8053 66.2256 35.9124 66.1796 35.9966 66.1336L38.7967 64.4554C38.8809 64.4094 38.965 64.3251 38.988 64.2408L39.1334 64.1489L39.6995 65.1068L39.4547 65.2524C39.2022 64.9612 38.682 64.9075 38.353 65.0991L37.9322 65.352L39.6689 68.287ZM44.2058 58.662L48.1382 59.3287C48.3601 59.3594 48.6202 59.3977 48.7886 59.2214L48.9492 59.3364L47.9087 60.8L47.7404 60.6774L47.7863 60.6161C47.8781 60.4935 47.8322 60.3096 47.7098 60.2253C47.6562 60.1793 47.5721 60.164 47.5109 60.1487L47.0518 60.072L45.9195 61.6813L46.1414 62.0875C46.1644 62.1334 46.2026 62.1794 46.2409 62.2024C46.4092 62.325 46.6005 62.3097 46.7688 62.0721L46.9294 62.1794L46.2179 63.1986L46.0573 63.076C46.1414 62.8385 46.0496 62.5856 45.9348 62.3787L44.5042 59.7655C44.4812 59.7195 44.4506 59.6812 44.4123 59.6582C44.3129 59.5816 44.1752 59.5969 44.1063 59.6889L44.0375 59.7962L43.9074 59.6965C44.0757 59.459 44.2364 59.1371 44.0834 58.8612L44.2058 58.662ZM45.7436 61.3518L46.6999 60.0031L44.8484 59.6889L45.7436 61.3518ZM52.3614 50.1328C52.5144 50.1865 52.6675 50.0409 52.7134 49.8799L52.9046 49.9412L52.4532 51.4509L52.2543 51.3896L52.262 51.3743C52.3079 51.2287 52.262 51.0371 52.1013 50.9911L50.0815 50.3627C50.028 50.6999 50.1504 51.0601 50.3876 51.313C50.6859 51.6501 51.1526 51.8417 51.5734 51.972C51.757 52.0256 52.0095 52.0793 52.1166 51.8494L52.3155 51.9107L51.91 53.2594L51.7111 53.1981C51.7341 53.1138 51.6576 53.0219 51.5887 52.9835C51.1756 52.7307 50.7165 52.6464 50.3646 52.2785C49.9668 51.8494 49.7984 51.5582 49.8061 50.7152C49.7066 50.8992 49.546 51.0064 49.3777 51.1137C49.217 51.221 48.9339 51.2287 48.8727 51.4509C48.8345 51.5582 48.8957 51.6655 49.0028 51.7115L48.9186 51.9797L47.9776 51.6885C47.9852 51.5812 47.9929 51.4662 48.0311 51.3589C48.0923 51.152 48.1765 50.9834 48.3678 50.8608C48.5514 50.7382 48.7733 50.7076 48.9875 50.6922C49.3011 50.6539 49.6607 50.6003 49.7908 50.2631L48.9798 50.0102C48.8115 49.9642 48.6661 50.1175 48.6279 50.2631L48.4366 50.2018L48.888 48.6998L49.0869 48.7534C49.041 48.9067 49.064 49.1136 49.2323 49.1673L50.0433 49.4201C50.1198 49.06 49.852 48.8224 49.6148 48.6155C49.4465 48.4699 49.2782 48.3166 49.194 48.1251C49.1022 47.9182 49.1328 47.7266 49.194 47.5197C49.2246 47.4124 49.2858 47.3128 49.3394 47.2131L50.2804 47.5043L50.1963 47.7649C50.0892 47.7572 49.9821 47.8109 49.9438 47.9182C49.8826 48.1327 50.1121 48.309 50.1886 48.4852C50.2651 48.6615 50.3416 48.8531 50.3263 49.06C50.793 48.355 51.0838 48.2017 51.6576 48.0791C52.1472 47.9641 52.5833 48.1481 53.0576 48.1864C53.1418 48.194 53.2566 48.1634 53.2872 48.0791L53.4861 48.1404L53.0806 49.4891L52.8817 49.4355C52.9199 49.1903 52.6828 49.0906 52.4991 49.037C52.0784 48.9067 51.5887 48.8071 51.145 48.9144C50.816 48.9987 50.51 49.2209 50.3722 49.5274L52.3614 50.1328ZM7.68896 28.9747C7.84962 29.0053 8.00264 28.875 8.04089 28.6835L8.23981 28.7294L7.92613 30.2697L7.72721 30.2314V30.2161C7.75782 30.0552 7.68131 29.8713 7.50534 29.8406L4.17729 29.1586L4.07783 29.6414C4.00897 30.0169 4.23084 30.4996 4.59042 30.6376L4.54452 30.9135L3.45047 30.6912L3.48872 30.5303C3.57288 30.4843 3.61878 30.377 3.63409 30.2774L4.27674 27.0589C4.29205 26.9669 4.2997 26.8443 4.24614 26.7753L4.27674 26.6067L5.35549 26.8136L5.30194 27.0895C4.9194 27.0818 4.52157 27.4267 4.44506 27.8099L4.35325 28.2926L7.68896 28.9747ZM5.51616 22.9667L5.70743 23.0433C5.64622 23.2119 5.68447 23.4035 5.85279 23.4725L7.13811 23.9552L7.90318 21.9092L6.61786 21.4264C6.44955 21.3651 6.29653 21.4647 6.22002 21.6486L6.02876 21.5796L6.57196 20.1083L6.77088 20.1773C6.70967 20.3459 6.75557 20.5374 6.92389 20.6064L9.94592 21.7406C10.1142 21.8019 10.2825 21.6716 10.3438 21.5183L10.535 21.595L9.99182 23.0663L9.7929 22.9897C9.85411 22.8288 9.81586 22.6142 9.64754 22.5529L8.20921 22.0165L7.44414 24.0625L8.88247 24.599C9.05079 24.6603 9.2191 24.5453 9.28031 24.3767L9.47923 24.4457L8.93603 25.9094L8.74476 25.8404C8.79831 25.6871 8.75241 25.4802 8.59174 25.4113L5.56971 24.2694C5.4014 24.2081 5.23308 24.3231 5.17188 24.4917L4.98061 24.415L5.51616 22.9667ZM9.18085 15.3341C9.22675 15.2498 9.28031 15.1425 9.2344 15.0506L9.31856 14.905L10.2672 15.4797L10.1295 15.7173C9.75465 15.5793 9.28031 15.7786 9.08139 16.1158L8.52289 17.0813L9.85411 17.8706L10.2596 17.181C10.3667 16.997 10.2749 16.7441 10.1142 16.6445L10.2443 16.4146L11.2006 16.9894L11.0629 17.2193C10.887 17.112 10.6421 17.1656 10.535 17.3495L10.1295 18.0392L11.5985 18.9128L12.3253 17.6867C12.5472 17.3112 12.5089 16.7671 12.157 16.4759L12.3023 16.2307L13.2281 16.7825L11.2618 20.1236L11.0859 20.0163C11.1624 19.8784 11.1624 19.6715 11.0094 19.5719L8.23981 17.9166C8.07915 17.8247 7.90318 17.909 7.81137 18.0622L7.62775 17.9549L9.18085 15.3341ZM15.156 8.45254L15.2861 8.61347C15.1407 8.72842 15.0872 8.90467 15.1943 9.05027L16.0435 10.1384L17.7496 8.78972L16.9081 7.70921C16.7933 7.56361 16.6097 7.5636 16.449 7.69388L16.319 7.53295L17.5431 6.55972L17.6731 6.72065C17.5354 6.8356 17.4742 7.01952 17.5813 7.16512L19.5782 9.70931C19.6929 9.85491 19.9071 9.83192 20.0295 9.7323L20.1596 9.89323L18.9355 10.8665L18.8054 10.7055C18.9355 10.5982 19.0044 10.3913 18.8972 10.2534L17.9486 9.04261L16.2501 10.3913L17.1911 11.6021C17.3059 11.7477 17.5125 11.7247 17.6425 11.6251L17.7726 11.786L16.5485 12.7516L16.4184 12.5907C16.5485 12.4911 16.6173 12.2842 16.5026 12.1462L14.5134 9.59436C14.4063 9.44876 14.1997 9.46408 14.062 9.57137L13.9319 9.41044L15.156 8.45254ZM22.7226 4.14581C22.8144 4.10749 22.9139 4.05385 22.9521 3.95422L23.1051 3.89292L23.503 4.93512L23.2428 5.0424C23.0363 4.70522 22.5313 4.55962 22.1717 4.70522L21.1466 5.11137L21.7051 6.55972L22.4472 6.26852C22.6461 6.19189 22.7302 5.939 22.6537 5.74742L22.9062 5.65546L23.3117 6.69766L23.0592 6.79728C22.9904 6.59804 22.7609 6.49075 22.5696 6.56739L21.8275 6.85859L22.4472 8.46787L23.7784 7.9391C24.1839 7.77817 24.4746 7.33371 24.3752 6.88158L24.6429 6.77429L25.0331 7.77817L21.4373 9.19587L21.3684 9.00429C21.5138 8.95065 21.6438 8.77439 21.5826 8.6058L20.4044 5.58649C20.3432 5.4179 20.152 5.37192 19.976 5.44089L19.9071 5.24931L22.7226 4.14581ZM28.1699 3.15725C28.9426 3.11127 29.547 3.50976 29.5929 4.25309C29.6235 4.78185 29.2104 5.20333 28.7514 5.34127C28.8355 5.37192 28.8814 5.44089 28.935 5.50986L29.7689 6.73598C29.876 6.88924 30.0137 7.05783 30.2203 7.08082L30.2279 7.29539L29.1033 7.3567L28.0398 5.75508C27.9251 5.58649 27.795 5.45622 27.5884 5.46388C27.5272 5.46388 27.466 5.47921 27.4431 5.49453L27.5272 6.93522C27.5272 7.11914 27.7185 7.22642 27.8868 7.20343L27.8945 7.418L26.349 7.5023L26.3337 7.29539C26.4944 7.28773 26.6704 7.15745 26.6627 6.9812L26.4714 3.76264C26.4638 3.57873 26.2955 3.47144 26.1119 3.48677L26.1042 3.27986L28.1699 3.15725ZM27.4201 5.17268L27.7797 5.14969C28.2923 5.11904 28.6289 4.85849 28.5983 4.29141C28.5754 3.84694 28.3229 3.46378 27.8486 3.49443L27.3283 3.52508L27.4201 5.17268ZM34.2675 3.77031L34.4588 7.08848L36.5321 4.49831L37.848 4.91213L37.7868 5.11137C37.6109 5.05007 37.4273 5.11137 37.3737 5.27996L36.4021 8.37591C36.3485 8.55216 36.4862 8.70543 36.6392 8.75907L36.578 8.95831L35.0938 8.48319L35.155 8.27629C35.3157 8.32993 35.5146 8.27628 35.5758 8.10003L36.5704 4.92745L34.0227 8.13835L33.6172 8.00807L33.4106 3.9389L32.416 7.10381C32.3701 7.2724 32.4849 7.42567 32.6532 7.48697L32.592 7.67855L31.6357 7.37969L31.6969 7.18811C31.8499 7.23409 32.0565 7.18044 32.1177 7.00419L33.0893 3.90825C33.1429 3.73965 33.0204 3.57873 32.8445 3.52508L32.898 3.3335L34.2675 3.77031ZM41.6963 7.34137L41.5816 7.50996C41.4362 7.40268 41.2373 7.40268 41.1378 7.55594L39.3476 10.2534C39.2481 10.4067 39.3399 10.5982 39.47 10.6902L39.3629 10.8588L38.0699 9.99285L38.1847 9.82426C38.3147 9.91622 38.529 9.91622 38.6284 9.77061L40.4187 7.07316C40.5181 6.91989 40.4416 6.74364 40.2963 6.64402L40.4034 6.47543L41.6963 7.34137ZM42.9434 13.4336C42.8287 13.5562 42.844 13.7555 42.9817 13.8934L42.8363 14.0314L41.7499 12.8972L41.8953 12.7593L41.9029 12.7669C42.0177 12.8895 42.2166 12.9202 42.3467 12.7976L44.7796 10.4143L44.443 10.0618C44.1828 9.78594 43.6549 9.70164 43.3413 9.91622L43.1423 9.71697L43.938 8.93532L44.0604 9.05027C44.0451 9.15756 44.1216 9.24951 44.1828 9.31848L46.4551 11.6711C46.5163 11.7401 46.6158 11.8167 46.7076 11.809L46.83 11.924L46.0343 12.7056L45.8354 12.5064C46.0573 12.1922 45.996 11.6711 45.7283 11.3876L45.3916 11.035L42.9434 13.4336ZM49.4618 15.9012L47.3426 19.3037C47.2278 19.4952 47.0977 19.7251 47.1896 19.955L47.0212 20.0623L46.0802 18.5297L46.2485 18.4224L46.2944 18.4914C46.3786 18.6293 46.5622 18.6523 46.6846 18.568C46.7458 18.522 46.7917 18.4684 46.83 18.4071L47.0748 18.0086L46.0419 16.338L45.5906 16.3916C45.537 16.3916 45.4911 16.4146 45.4452 16.4376C45.2692 16.5449 45.208 16.7365 45.361 16.9817L45.1927 17.089L44.5424 16.0315L44.7107 15.9242C44.902 16.0928 45.1698 16.1081 45.3993 16.0774L48.3448 15.7556C48.3907 15.7479 48.4443 15.7326 48.4749 15.7096C48.582 15.6483 48.6279 15.5104 48.5667 15.4107L48.5055 15.3035L48.6432 15.2192C48.7962 15.4644 49.0257 15.7403 49.3471 15.7096L49.4618 15.9012ZM46.4015 16.2997L47.2661 17.7021L48.2683 16.0928L46.4015 16.2997ZM49.8673 24.8748C49.7219 24.9285 49.5919 25.0894 49.6607 25.2427L49.4695 25.3193C49.0563 24.8289 48.712 24.2541 48.4749 23.6487C47.9852 22.3843 48.3066 21.0815 49.6378 20.5528C50.7701 20.1083 51.9636 20.706 52.3997 21.8325C52.6216 22.3996 52.568 22.7598 52.6445 22.9667C52.6828 23.0586 52.7516 23.12 52.8511 23.1353L52.9276 23.3345L51.9865 23.71L51.8871 23.4571C52.2773 23.097 52.3308 22.5222 52.1319 22.0088C51.7341 20.9819 50.7777 21.1965 49.9362 21.5337C49.0181 21.8938 48.406 22.5299 48.7962 23.5261C48.9033 23.8096 49.2323 24.2005 49.5766 24.0625L49.9668 23.9093C50.1121 23.8556 50.1351 23.6181 50.0815 23.4878L50.2728 23.4188L50.7165 24.5606L49.8673 24.8748ZM54.4195 29.0743C54.4424 29.1662 54.473 29.2889 54.5725 29.3272L54.6031 29.4881L53.5243 29.7333L53.4631 29.4574C53.8227 29.3042 54.0446 28.8291 53.9604 28.4536L53.7156 27.3654L52.2084 27.7026L52.3767 28.4842C52.4226 28.6988 52.6522 28.8137 52.8434 28.7754L52.9046 29.0436L51.8182 29.2812L51.7647 29.0206C51.9636 28.9747 52.109 28.7678 52.0631 28.5608L51.8947 27.7792L50.2269 28.147L50.5253 29.5494C50.6247 29.9785 51.0226 30.3387 51.474 30.3081L51.5352 30.5839L50.4794 30.8215L49.6454 27.0282L49.8444 26.9822C49.8826 27.1431 50.0356 27.2964 50.2039 27.2581L53.3484 26.5531C53.5243 26.5148 53.6008 26.3385 53.5549 26.1546L53.7539 26.1086L54.4195 29.0743ZM19.953 16.4529C20.0449 18.9435 21.1389 20.116 22.6308 20.116C24.8418 20.116 25.8058 18.1772 30.2509 18.1695C36.8764 18.1542 41.4974 24.8672 41.4974 30.2621V33.4423H32.7221C32.7221 33.427 32.7833 24.5683 32.7374 24.5223C32.745 21.1505 30.7099 19.8861 28.0398 19.8861C23.0745 19.8861 20.0984 26.0396 19.7312 33.473H18.9049V16.4606C18.9125 16.4606 19.953 16.4606 19.953 16.4529ZM20.0295 40.5078C19.3869 41.7033 18.5759 43.6038 18.53 46.9909C18.4612 52.1789 22.2023 57.1907 27.7721 57.2366C30.511 57.2596 32.768 55.3515 32.768 52.7077L32.7833 41.3814H41.4745V46.7533C41.4745 54.2403 35.3233 59.6965 28.6825 59.6812C21.9422 59.6659 17.8414 54.2556 17.7267 47.0062C17.6808 44.4007 18.2622 42.6612 19.5093 40.4772C19.5399 40.5002 20.0295 40.5078 20.0295 40.5078ZM9.65519 37.5651C9.65519 29.8713 11.8127 22.9054 15.2938 17.8553C18.8054 12.7593 23.6789 9.60969 29.0574 9.60969C34.4435 9.60969 39.3093 12.7593 42.821 17.8553C46.3021 22.9054 48.4596 29.8713 48.4596 37.5651C48.4596 45.259 46.3021 52.2249 42.821 57.275C39.3093 62.371 34.4435 65.5206 29.0574 65.5206C23.6713 65.5206 18.8054 62.371 15.2938 57.275C11.8127 52.2172 9.65519 45.2514 9.65519 37.5651ZM10.4738 37.5651C10.4738 45.0828 12.5701 51.8877 15.967 56.8075C19.3333 61.6813 23.962 64.7006 29.065 64.7006C34.1681 64.7006 38.7967 61.6813 42.163 56.8075C45.5523 51.8877 47.6562 45.0904 47.6562 37.5651C47.6562 30.0475 45.56 23.2426 42.163 18.3228C38.7967 13.449 34.1681 10.4297 29.065 10.4297C23.962 10.4297 19.3257 13.449 15.967 18.3228C12.5701 23.2426 10.4738 30.0475 10.4738 37.5651ZM0 37.5038C0 27.1661 3.23625 17.8093 8.46168 11.0197C13.7101 4.21477 20.9706 0 28.9962 0C37.0218 0 44.2823 4.20711 49.5383 11.0197C54.7638 17.8017 58 27.1585 58 37.5038C58 47.8339 54.7638 57.1983 49.5383 63.9803C44.2899 70.7852 37.0294 75 29.0038 75C20.9782 75 13.7177 70.7852 8.46168 63.9803C3.23625 57.1983 0 47.8339 0 37.5038ZM0.818626 37.5038C0.818626 47.6499 3.98602 56.8305 9.11199 63.4745C14.2074 70.0879 21.246 74.18 29.0038 74.18C36.7693 74.18 43.8003 70.0879 48.8957 63.4745C54.014 56.8305 57.1814 47.6499 57.1814 37.5038C57.1814 27.3577 54.014 18.1695 48.8957 11.5255C43.8003 4.91213 36.7616 0.819965 28.9962 0.819965C21.2307 0.819965 14.1997 4.91213 9.10434 11.5255C3.98602 18.1695 0.818626 27.3501 0.818626 37.5038ZM37.5803 38.6073C35.2774 38.6303 34.9637 37.8947 34.9637 37.795C34.9561 37.5421 35.4534 37.5728 35.4457 37.182C35.4457 36.8448 35.1473 36.6532 34.826 36.6609C34.4282 36.6685 34.0915 36.9444 34.0915 37.5268C34.0915 38.8909 36.3715 39.1897 37.1365 39.1821C38.7049 39.1591 39.0186 38.8066 39.1181 38.7989C39.2175 38.7989 39.2711 38.7989 39.2711 38.8526C39.2711 39.3583 36.601 40.5078 34.7036 40.5078C33.5636 40.5002 33.0434 40.2319 32.1253 39.3813C31.2072 41.4734 29.3022 42.232 27.8639 42.232C26.5709 42.232 25.1708 41.6803 25.1708 39.9791C25.1708 38.1016 26.3184 37.3889 27.3436 37.3812C28.2235 37.3812 28.8202 38.0403 28.8202 38.7529C28.8202 39.4656 28.0857 39.9944 27.7109 39.9944C27.6114 39.9944 27.5655 39.9484 27.4813 39.8794C27.7721 39.6036 28.0016 39.3966 27.9863 38.9598C27.9863 38.638 27.6191 38.4234 27.3436 38.4234C26.8999 38.4311 26.4485 38.615 26.4485 39.5729C26.4485 40.2243 27.0223 40.6917 27.8256 40.6917C28.9273 40.6917 29.7306 40.0097 29.7306 38.5843C29.7306 37.159 28.6366 36.3007 26.8769 36.316C24.0844 36.3467 21.3455 39.8411 20.8252 42.5846C20.7181 42.5846 20.3968 42.4543 20.3356 42.416C22.5084 34.5995 26.854 34.2163 29.9372 34.2163L40.9695 34.247C43.2341 34.2546 44.8637 32.1932 45.078 31.6951C45.078 31.6951 45.2845 31.6874 45.2845 31.6798C44.9402 36.3773 41.727 38.5614 37.5803 38.6073ZM5.914 36.9061C5.93695 37.979 5.60797 38.1246 5.56206 38.1246C5.45495 38.1246 5.45495 37.9023 5.28664 37.91C5.13362 37.91 5.04182 38.0479 5.04947 38.2012C5.04947 38.3851 5.17953 38.5384 5.4473 38.5384C6.06701 38.5307 6.18942 37.4655 6.17412 37.113C6.15117 36.385 5.98285 36.2394 5.98285 36.1934C5.98285 36.1474 5.98285 36.1245 6.01346 36.1245C6.23533 36.1168 6.79383 37.3506 6.80148 38.2318C6.80148 38.7606 6.68672 39.0058 6.30418 39.435C7.26817 39.8411 7.62775 40.7224 7.64306 41.3814C7.65071 41.9792 7.41353 42.6382 6.63316 42.6612C5.76863 42.6765 5.43965 42.1477 5.432 41.665C5.432 41.2588 5.72273 40.9753 6.04406 40.9753C6.37304 40.9599 6.62551 41.2971 6.62551 41.4734C6.62551 41.5194 6.60256 41.5424 6.57196 41.5807C6.44189 41.4504 6.35774 41.3431 6.15117 41.3584C6.0058 41.3584 5.90635 41.527 5.914 41.6573C5.914 41.8642 6.0058 42.0711 6.44955 42.0635C6.74792 42.0635 6.95449 41.7876 6.94684 41.4197C6.93154 40.8986 6.61021 40.5385 5.96755 40.5538C5.31724 40.5615 4.92705 41.0749 4.95001 41.8949C4.98826 43.1899 6.61786 44.4314 7.87258 44.6536C7.87258 44.7073 7.81902 44.8605 7.79607 44.8759C4.20024 43.9333 3.99367 41.9102 3.97072 40.4848L3.88656 35.3581C3.87891 34.3083 2.91492 33.5726 2.69305 33.473L2.6854 33.381C4.83525 33.5036 5.85279 34.975 5.914 36.9061ZM51.9024 36.8448C51.8794 37.91 52.2161 38.0632 52.2543 38.0632C52.3614 38.0632 52.3614 37.841 52.5374 37.8487C52.6904 37.8487 52.7822 37.9866 52.7746 38.1399C52.7746 38.3238 52.6445 38.4771 52.3767 38.4694C51.757 38.4617 51.6346 37.3965 51.6499 37.044C51.6729 36.316 51.8412 36.1704 51.8412 36.1245C51.8412 36.0785 51.8412 36.0555 51.8106 36.0555C51.5811 36.0478 51.0302 37.2816 51.0149 38.1629C51.0149 38.6916 51.1297 38.9369 51.5122 39.366C50.5482 39.7721 50.1886 40.6611 50.1733 41.3125C50.1733 41.9102 50.4029 42.5692 51.1832 42.5922C52.0478 42.6075 52.3767 42.0788 52.3844 41.596C52.3844 41.1822 52.0937 40.9063 51.7723 40.8986C51.4433 40.891 51.1909 41.2205 51.1909 41.4044C51.1909 41.4504 51.2138 41.4734 51.2444 41.5117C51.3745 41.3814 51.4586 41.2741 51.6652 41.2895C51.8106 41.2895 51.91 41.4657 51.9024 41.5883C51.9024 41.7952 51.8106 42.0021 51.3668 41.9945C51.0685 41.9945 50.8619 41.7186 50.8695 41.3431C50.8848 40.8297 51.2062 40.4618 51.8488 40.4772C52.4991 40.4848 52.8893 40.9983 52.8664 41.8182C52.8281 43.1133 51.1985 44.3548 49.9438 44.5693C49.9438 44.623 49.9974 44.7762 50.0203 44.7992C53.6161 43.8566 53.8304 41.8336 53.8457 40.4082L53.9298 35.2815C53.9375 34.2316 54.9015 33.496 55.131 33.3963L55.1386 33.3044C52.9811 33.4347 51.9559 34.9137 51.9024 36.8448Z" fill="white"/>
</svg>
