<svg width="66" height="84" viewBox="0 0 66 84" fill="none" xmlns="http://www.w3.org/2000/svg">
<g clip-path="url(#clip0_86:11169)">
<path fill-rule="evenodd" clip-rule="evenodd" d="M10.4289 53.4978L10.4977 53.7295C10.4031 53.7981 10.3944 53.9268 10.4289 54.0384C10.4977 54.2529 10.8075 54.4931 10.9969 55.1281C11.3927 56.4237 10.7645 57.6592 9.43918 58.0625C8.90561 58.2341 8.34622 58.2341 7.80404 58.0625C7.01229 57.8309 6.55618 57.2045 6.31521 56.4151C6.20333 56.0633 6.14309 55.6772 6.22054 55.3168C6.31521 54.9136 6.4529 54.476 6.8832 54.3387C7.14999 54.2615 7.43399 54.3644 7.52005 54.6647C7.5889 54.905 7.47702 55.2139 7.23605 55.2911C7.05532 55.3512 6.85739 55.231 6.78854 55.2396C6.66805 55.2825 6.60781 55.5313 6.5906 55.6429C6.55618 55.8317 6.56478 56.0462 6.62502 56.2263C6.74551 56.6296 7.14138 56.9557 7.54587 57.0758C8.04501 57.1959 8.51834 57.1101 9.0347 56.9557C8.75931 56.8527 8.41507 56.6983 8.32901 56.398C8.19992 55.9775 8.55277 55.334 8.44089 55.008C8.41507 54.9136 8.28598 54.7934 8.13107 54.6733L8.27737 54.4588C8.62161 54.6304 9.09494 54.9393 9.19822 55.2911C9.3187 55.6944 9.0261 56.1663 9.12937 56.5267C9.21543 56.7755 9.48221 56.8184 9.69736 56.7412C10.4117 56.5267 10.7989 55.763 10.5752 55.0509C10.4289 54.5618 10.0158 54.0641 9.44779 54.0899L9.34452 53.7638L10.4289 53.4978ZM10.317 65.7418L10.5149 65.6046C10.6096 65.759 10.8247 65.8791 11.0055 65.759L13.3549 64.2146C14.336 63.571 15.2052 64.4291 15.5753 64.9954C16.0744 65.7762 15.9797 66.7457 15.1708 67.2777C14.3876 67.7925 13.441 67.5523 12.9332 66.7715C12.7525 66.4883 12.6492 66.1537 12.7009 65.8276L11.539 66.5827C11.3669 66.7028 11.3755 66.9431 11.4788 67.0804L11.2895 67.2091L10.317 65.7418ZM13.2172 65.4844C12.9332 65.6732 13.0795 66.1279 13.243 66.3939C13.5701 66.883 14.0778 66.6599 14.5684 66.3425C14.9814 66.0679 15.5753 65.6303 15.188 65.0297C14.9556 64.6693 14.5339 64.6178 14.1639 64.8581L13.2172 65.4844ZM21.8232 71.8939L20.997 75.5147L24.0522 73.3783L25.3344 74.2363L25.214 74.425C25.0504 74.3135 24.8181 74.3221 24.7148 74.4851L22.701 77.5054C22.5891 77.677 22.701 77.8915 22.8387 77.9858L22.7182 78.1746L21.2552 77.2222L21.3843 77.0334C21.5392 77.145 21.7716 77.145 21.8834 76.9734L23.9403 73.8673L20.1967 76.5186L19.7922 76.2526L20.8335 71.7995L18.7767 74.897C18.6648 75.0686 18.7509 75.2745 18.9144 75.3775L18.7939 75.5662L17.8472 74.9399L17.9849 74.7511C18.1312 74.8541 18.3722 74.8626 18.4841 74.691L20.4893 71.6622C20.6012 71.4906 20.5237 71.2847 20.3516 71.1731L20.4807 70.9844L21.8232 71.8939ZM32.0815 75.7721V76.0038C31.8836 76.0038 31.6943 76.1239 31.6943 76.3384L31.6512 79.0069L33.9318 77.0592V76.3642C33.9318 76.1497 33.7425 76.0296 33.5532 76.0296V75.7893L35.3088 75.8065V76.0467C35.1022 76.0467 34.9215 76.1668 34.9215 76.3728L34.8699 80.0108C34.8699 80.2081 35.0764 80.3454 35.2485 80.3454V80.5857L33.5101 80.5599V80.3197C33.6995 80.3197 33.8974 80.1996 33.8974 79.9936L33.9318 77.4196L31.6598 79.3759V79.9593C31.6598 80.1652 31.8406 80.2939 32.0471 80.2939V80.5342L30.2915 80.5084V80.2682C30.4808 80.2682 30.6788 80.1481 30.6874 79.9507L30.7304 76.3127C30.739 76.1154 30.5583 75.9781 30.3517 75.9781L30.3603 75.7464L32.0815 75.7721ZM44.8098 76.4586C44.9045 76.6216 45.1282 76.6473 45.3089 76.5444L45.4294 76.7417L43.9148 77.6426L43.8029 77.4367L43.8201 77.4281C43.9836 77.3337 44.0697 77.1192 43.9664 76.9562L42.0129 73.6614L41.5395 73.9446C41.1609 74.1676 40.9457 74.7168 41.1006 75.1201L40.8252 75.2831L40.1884 74.2105L40.3519 74.1162C40.4638 74.1505 40.5843 74.099 40.6789 74.0475L43.8287 72.1684C43.9234 72.117 44.018 72.0226 44.0439 71.9282L44.2074 71.8252L44.8442 72.8978L44.5688 73.0608C44.2848 72.7347 43.6996 72.6747 43.3296 72.8892L42.8562 73.1723L44.8098 76.4586ZM49.9131 65.6818L54.3366 66.4283C54.5862 66.4626 54.8788 66.5055 55.0681 66.3081L55.2489 66.4368L54.0784 68.0757L53.8891 67.9384L53.9408 67.8697C54.044 67.7325 53.9924 67.5265 53.8547 67.4321C53.7945 67.3807 53.6998 67.3635 53.6309 67.3463L53.1146 67.2605L51.8409 69.0624L52.0905 69.5171C52.1163 69.5686 52.1593 69.6201 52.2023 69.6459C52.3917 69.7831 52.6068 69.766 52.7962 69.5L52.9769 69.6201L52.1765 70.7613L51.9958 70.624C52.0905 70.358 51.9872 70.0749 51.8581 69.8432L50.2488 66.9173C50.223 66.8659 50.1885 66.8229 50.1455 66.7972C50.0336 66.7114 49.8787 66.7286 49.8013 66.8315L49.7238 66.9517L49.5775 66.8401C49.7668 66.5741 49.9476 66.2138 49.7755 65.9049L49.9131 65.6818ZM51.643 68.6934L52.7187 67.1833L50.6361 66.8315L51.643 68.6934ZM59.0871 56.132C59.2593 56.192 59.4314 56.029 59.483 55.8488L59.6982 55.9175L59.1904 57.6078L58.9667 57.5391L58.9753 57.522C59.0269 57.3589 58.9753 57.1444 58.7945 57.093L56.5225 56.3894C56.4623 56.7669 56.6 57.1702 56.8668 57.4533C57.2024 57.8309 57.7274 58.0454 58.2007 58.1912C58.4073 58.2513 58.6913 58.3114 58.8117 58.0539L59.0355 58.1226L58.5794 59.6327L58.3556 59.5641C58.3814 59.4697 58.2954 59.3667 58.2179 59.3238C57.7532 59.0407 57.2368 58.9463 56.841 58.5344C56.3935 58.0539 56.2041 57.7279 56.2127 56.7841C56.1009 56.99 55.9201 57.1101 55.7308 57.2302C55.5501 57.3504 55.2317 57.3589 55.1628 57.6078C55.1198 57.7279 55.1886 57.848 55.3091 57.8995L55.2144 58.1998L54.1559 57.8738C54.1645 57.7536 54.1731 57.6249 54.2161 57.5048C54.285 57.2731 54.3797 57.0844 54.5948 56.9471C54.8014 56.8098 55.0509 56.7755 55.2919 56.7583C55.6447 56.7154 56.0492 56.6554 56.1955 56.2778L55.2833 55.9947C55.094 55.9432 54.9304 56.1148 54.8874 56.2778L54.6723 56.2092L55.18 54.5275L55.4038 54.5875C55.3521 54.7591 55.378 54.9908 55.5673 55.0509L56.4795 55.334C56.5656 54.9307 56.2644 54.6647 55.9976 54.4331C55.8083 54.2701 55.6189 54.0984 55.5243 53.8839C55.421 53.6523 55.4554 53.4378 55.5243 53.2061C55.5587 53.086 55.6275 52.9744 55.6878 52.8629L56.7463 53.1889L56.6516 53.4807C56.5312 53.4721 56.4107 53.5321 56.3676 53.6523C56.2988 53.8925 56.557 54.0899 56.643 54.2872C56.7291 54.4846 56.8152 54.6991 56.7979 54.9307C57.3229 54.1413 57.6499 53.9697 58.2954 53.8325C58.8462 53.7038 59.3367 53.9097 59.8703 53.9526C59.9649 53.9612 60.094 53.9268 60.1285 53.8325L60.3522 53.9011L59.8961 55.4112L59.6723 55.3512C59.7154 55.0766 59.4486 54.9651 59.242 54.905C58.7687 54.7591 58.2179 54.6476 57.7188 54.7677C57.3487 54.8621 57.0045 55.1109 56.8496 55.4541L59.0871 56.132ZM8.83676 32.4419C9.01749 32.4762 9.18961 32.3304 9.23264 32.1159L9.45639 32.1673L9.10355 33.892L8.87979 33.8491V33.8319C8.91422 33.6517 8.82816 33.4458 8.63022 33.4115L4.88661 32.6478L4.77474 33.1884C4.69728 33.6088 4.94686 34.1494 5.35134 34.3038L5.2997 34.6127L4.06905 34.3639L4.11208 34.1837C4.20674 34.1322 4.25838 34.0121 4.27559 33.9005L4.99849 30.2968C5.0157 30.1939 5.02431 30.0566 4.96407 29.9794L4.99849 29.7906L6.21194 30.0223L6.15169 30.3312C5.7214 30.3226 5.27388 30.7087 5.18782 31.1377L5.08455 31.6783L8.83676 32.4419ZM6.39266 25.715L6.60781 25.8008C6.53896 25.9896 6.58199 26.2041 6.77133 26.2813L8.21713 26.8218L9.07773 24.5309L7.63192 23.9904C7.44259 23.9217 7.27047 24.0333 7.18441 24.2392L6.96926 24.162L7.58029 22.5146L7.80404 22.5918C7.7352 22.7806 7.78683 22.9951 7.97616 23.0723L11.3755 24.3422C11.5649 24.4108 11.7542 24.2649 11.823 24.0933L12.0382 24.1791L11.4272 25.8265L11.2034 25.7407C11.2723 25.5606 11.2292 25.3203 11.0399 25.2517L9.42197 24.651L8.56137 26.942L10.1793 27.5426C10.3686 27.6112 10.558 27.4825 10.6268 27.2938L10.8506 27.371L10.2395 29.0098L10.0244 28.9326C10.0846 28.761 10.033 28.5293 9.85227 28.4521L6.4529 27.1736C6.26357 27.105 6.07424 27.2337 6.00539 27.4225L5.79024 27.3367L6.39266 25.715ZM10.5149 17.1691C10.5666 17.0747 10.6268 16.9546 10.5752 16.8516L10.6698 16.6886L11.737 17.3321L11.5821 17.5981C11.1604 17.4436 10.6268 17.6667 10.4031 18.0443L9.77482 19.1254L11.2723 20.0091L11.7284 19.2369C11.8489 19.031 11.7456 18.7478 11.5649 18.6363L11.7112 18.3789L12.7869 19.0224L12.632 19.2798C12.4341 19.1597 12.1587 19.2197 12.0382 19.4257L11.5821 20.1979L13.2344 21.176L14.052 19.8032C14.3016 19.3828 14.2585 18.7736 13.8627 18.4475L14.0262 18.173L15.0675 18.7907L12.8558 22.5317L12.6578 22.4116C12.7439 22.2572 12.7439 22.0255 12.5718 21.9139L9.45639 20.0606C9.27567 19.9577 9.07773 20.052 8.97446 20.2236L8.76792 20.1035L10.5149 17.1691ZM17.2362 9.46401L17.3825 9.6442C17.219 9.7729 17.1588 9.97025 17.2792 10.1333L18.2345 11.3517L20.1536 9.84154L19.207 8.63173C19.0779 8.4687 18.8713 8.4687 18.6906 8.61457L18.5443 8.43438L19.9213 7.34469L20.0676 7.52488C19.9127 7.65358 19.8438 7.85951 19.9643 8.02253L22.2105 10.8712C22.3396 11.0342 22.5805 11.0085 22.7182 10.8969L22.8645 11.0771L21.4876 12.1668L21.3413 11.9866C21.4876 11.8665 21.565 11.6348 21.4445 11.4804L20.3774 10.1247L18.4669 11.6348L19.5254 12.9905C19.6545 13.1535 19.8869 13.1278 20.0332 13.0162L20.1795 13.1964L18.8025 14.2775L18.6562 14.0973C18.8025 13.9858 18.88 13.7541 18.7509 13.5997L16.5133 10.7425C16.3928 10.5794 16.1605 10.5966 16.0056 10.7167L15.8592 10.5365L17.2362 9.46401ZM25.7475 4.64191C25.8508 4.59901 25.9627 4.53895 26.0057 4.42741L26.1778 4.35876L26.6253 5.52568L26.3327 5.6458C26.1004 5.26827 25.5324 5.10525 25.1279 5.26827L23.9747 5.72302L24.6029 7.34469L25.4377 7.01864C25.6615 6.93284 25.7561 6.64969 25.6701 6.43518L25.9541 6.33222L26.4102 7.49913L26.1262 7.61068C26.0487 7.38759 25.7906 7.26747 25.5754 7.35327L24.7406 7.67932L25.4377 9.48117L26.9352 8.88913C27.3913 8.70895 27.7183 8.21129 27.6064 7.70506L27.9076 7.58494L28.3465 8.70895L24.3017 10.2963L24.2243 10.0818C24.3878 10.0217 24.5341 9.82438 24.4652 9.63562L23.1399 6.255C23.0711 6.06623 22.8559 6.01475 22.658 6.09197L22.5805 5.87747L25.7475 4.64191ZM31.875 3.53506C32.7442 3.48358 33.4241 3.92975 33.4757 4.76204C33.5101 5.35407 33.0454 5.82599 32.5291 5.98043C32.6237 6.01475 32.6754 6.09197 32.7356 6.1692L33.6736 7.54204C33.7941 7.71364 33.949 7.90241 34.1814 7.92815L34.19 8.16839L32.9249 8.23704L31.7287 6.44376C31.5996 6.255 31.4533 6.10913 31.2209 6.11772C31.1521 6.11772 31.0832 6.13488 31.0574 6.15204L31.1521 7.76512C31.1521 7.97105 31.3672 8.09117 31.5566 8.06543L31.5652 8.30568L29.8268 8.40006L29.8096 8.16839C29.9903 8.15981 30.1882 8.01395 30.1796 7.8166L29.9645 4.2129C29.9559 4.00697 29.7665 3.88685 29.56 3.90401L29.5514 3.67235L31.875 3.53506ZM31.0316 5.79167L31.4361 5.76592C32.0127 5.7316 32.3914 5.43988 32.3569 4.80494C32.3311 4.30728 32.0471 3.87827 31.5135 3.91259L30.9283 3.94691L31.0316 5.79167ZM38.734 4.22148L38.9491 7.93673L41.2813 5.0366L42.7616 5.49994L42.6927 5.72302C42.4948 5.65438 42.2882 5.72302 42.228 5.91179L41.135 9.37821C41.0748 9.57555 41.2297 9.74716 41.4018 9.80722L41.333 10.0303L39.6634 9.49833L39.7323 9.26667C39.913 9.32673 40.1367 9.26666 40.2056 9.06932L41.3244 5.5171L38.4586 9.11222L38.0025 8.96636L37.7701 4.41025L36.6513 7.95389C36.5997 8.14265 36.7288 8.31426 36.9181 8.3829L36.8493 8.59741L35.7735 8.26278L35.8424 8.04827C36.0145 8.09975 36.2468 8.03969 36.3157 7.84234L37.4086 4.37593C37.4689 4.18716 37.3312 4.00697 37.1333 3.94691L37.1935 3.73241L38.734 4.22148ZM47.0904 8.21988L46.9613 8.40864C46.7978 8.28852 46.574 8.28852 46.4621 8.46012L44.4483 11.4804C44.3365 11.652 44.4397 11.8665 44.586 11.9694L44.4656 12.1582L43.0111 11.1886L43.1402 10.9999C43.2865 11.1028 43.5275 11.1028 43.6394 10.9398L45.6532 7.91957C45.7651 7.74796 45.679 7.55062 45.5155 7.43907L45.636 7.25031L47.0904 8.21988ZM48.4932 15.0412C48.3641 15.1785 48.3813 15.4015 48.5362 15.556L48.3727 15.7104L47.1506 14.4406L47.3141 14.2861L47.3227 14.2947C47.4518 14.432 47.6756 14.4663 47.8219 14.329L50.5586 11.6606L50.1799 11.2659C49.8873 10.957 49.2935 10.8626 48.9407 11.1028L48.7169 10.8798L49.6119 10.0046L49.7496 10.1333C49.7324 10.2534 49.8185 10.3564 49.8873 10.4336L52.4433 13.0677C52.5122 13.1449 52.624 13.2307 52.7273 13.2222L52.865 13.3509L51.97 14.226L51.7462 14.003C51.9958 13.6512 51.927 13.0677 51.6257 12.7502L51.2471 12.3556L48.4932 15.0412ZM55.8255 17.804L53.4416 21.6136C53.3125 21.8281 53.1662 22.0856 53.2695 22.343L53.0802 22.4631L52.0216 20.747L52.2109 20.6269L52.2626 20.7041C52.3572 20.8586 52.5638 20.8843 52.7015 20.7899C52.7703 20.7385 52.822 20.6784 52.865 20.6097L53.1404 20.1636L51.9786 18.2931L51.4708 18.3531C51.4106 18.3531 51.359 18.3789 51.3073 18.4046C51.1094 18.5248 51.0405 18.7393 51.2127 19.0138L51.0233 19.1339L50.2918 17.9499L50.4811 17.8298C50.6963 18.0185 50.9975 18.0357 51.2557 18.0014L54.569 17.641C54.6206 17.6324 54.6809 17.6152 54.7153 17.5895C54.8358 17.5209 54.8874 17.3664 54.8186 17.2549L54.7497 17.1347L54.9046 17.0404C55.0767 17.3149 55.3349 17.6238 55.6964 17.5895L55.8255 17.804ZM52.3831 18.2502L53.3555 19.8204L54.4829 18.0185L52.3831 18.2502ZM56.2816 27.8515C56.1181 27.9115 55.9718 28.0917 56.0492 28.2633L55.8341 28.3491C55.3694 27.8 54.9821 27.1565 54.7153 26.4786C54.1645 25.0629 54.526 23.6043 56.0234 23.0122C57.2971 22.5146 58.6396 23.1838 59.1302 24.4451C59.3797 25.0801 59.3195 25.4833 59.4056 25.715C59.4486 25.818 59.526 25.8866 59.6379 25.9038L59.724 26.1268L58.6654 26.5473L58.5536 26.2641C58.9925 25.8609 59.0527 25.2173 58.829 24.6425C58.3814 23.4927 57.3057 23.733 56.359 24.1105C55.3263 24.5138 54.6378 25.2259 55.0767 26.3414C55.1972 26.6588 55.5673 27.0964 55.9546 26.942L56.3935 26.7704C56.557 26.7103 56.5828 26.4443 56.5225 26.2985L56.7377 26.2212L57.2368 27.4997L56.2816 27.8515ZM61.4021 32.5534C61.428 32.6564 61.4624 32.7937 61.5743 32.8366L61.6087 33.0168L60.3952 33.2914L60.3264 32.9825C60.7309 32.8109 60.9805 32.2789 60.8858 31.8585L60.6104 30.6401L58.915 31.0176L59.1043 31.8928C59.156 32.133 59.4142 32.2617 59.6293 32.2188L59.6982 32.5191L58.4761 32.7851L58.4159 32.4934C58.6396 32.4419 58.8031 32.2102 58.7515 31.9786L58.5622 31.1034L56.6861 31.5152L57.0217 33.0854C57.1336 33.5659 57.5811 33.9692 58.0888 33.9349L58.1577 34.2438L56.9701 34.5097L56.032 30.2625L56.2558 30.211C56.2988 30.3912 56.4709 30.5628 56.6602 30.5199L60.1973 29.7306C60.3952 29.6877 60.4813 29.4903 60.4297 29.2844L60.6534 29.2329L61.4021 32.5534ZM22.6322 18.4218C22.7354 21.2104 23.9661 22.5231 25.6443 22.5231C28.1314 22.5231 29.2157 20.3523 34.2158 20.3438C41.6686 20.3266 46.8666 27.8429 46.8666 33.8834V37.4442H36.9956C36.9956 37.427 37.0644 27.5083 37.0128 27.4568C37.0214 23.6815 34.7322 22.2657 31.7287 22.2657C26.1434 22.2657 22.7957 29.1557 22.3826 37.4785H21.4531V18.4304C21.4617 18.4304 22.6322 18.4304 22.6322 18.4218ZM22.7182 45.3552C21.9953 46.6937 21.0831 48.8216 21.0314 52.6141C20.954 58.4229 25.1623 64.0344 31.4275 64.0859C34.5084 64.1116 37.0472 61.9751 37.0472 59.0149L37.0644 46.3333H46.8408V52.3481C46.8408 60.731 39.9216 66.8401 32.4516 66.8229C24.8697 66.8058 20.2569 60.7481 20.1278 52.6312C20.0762 49.7139 20.7302 47.7662 22.133 45.3209C22.1674 45.3466 22.7182 45.3552 22.7182 45.3552ZM11.0485 42.0604C11.0485 33.4458 13.4754 25.6464 17.3911 19.992C21.3413 14.2861 26.8233 10.7596 32.8733 10.7596C38.9319 10.7596 44.4053 14.2861 48.3555 19.992C52.2712 25.6464 54.6981 33.4458 54.6981 42.0604C54.6981 50.6749 52.2712 58.4744 48.3555 64.1288C44.4053 69.8346 38.9319 73.3611 32.8733 73.3611C26.8147 73.3611 21.3413 69.8346 17.3911 64.1288C13.4754 58.4658 11.0485 50.6663 11.0485 42.0604ZM11.9693 42.0604C11.9693 50.4776 14.3274 58.0968 18.1484 63.6054C21.9351 69.0624 27.1417 72.443 32.8819 72.443C38.6221 72.443 43.8287 69.0624 47.6154 63.6054C51.4278 58.0968 53.7945 50.4862 53.7945 42.0604C53.7945 33.6431 51.4364 26.0239 47.6154 20.5154C43.8287 15.0583 38.6221 11.6777 32.8819 11.6777C27.1417 11.6777 21.9265 15.0583 18.1484 20.5154C14.3274 26.0239 11.9693 33.6431 11.9693 42.0604ZM0.187744 41.9917C0.187744 30.417 3.82808 19.9405 9.70597 12.3384C15.6097 4.71913 23.7768 0 32.8044 0C41.8321 0 49.9992 4.71055 55.9115 12.3384C61.7894 19.9319 65.4297 30.4084 65.4297 41.9917C65.4297 53.5579 61.7894 64.0429 55.9115 71.6365C50.0078 79.2557 41.8407 83.9749 32.813 83.9749C23.7854 83.9749 15.6183 79.2557 9.70597 71.6365C3.82808 64.0429 0.187744 53.5579 0.187744 41.9917ZM1.10859 41.9917C1.10859 53.352 4.67146 63.6311 10.4375 71.0702C16.1691 78.4749 24.0866 83.0568 32.813 83.0568C41.5481 83.0568 49.457 78.4749 55.1886 71.0702C60.946 63.6311 64.5089 53.352 64.5089 41.9917C64.5089 30.6315 60.946 20.3438 55.1886 12.9047C49.457 5.49994 41.5395 0.918086 32.8044 0.918086C24.0694 0.918086 16.1605 5.49994 10.4289 12.9047C4.67146 20.3438 1.10859 30.6229 1.10859 41.9917ZM42.4604 43.2273C39.87 43.253 39.5171 42.4293 39.5171 42.3178C39.5085 42.0346 40.0679 42.0689 40.0593 41.6314C40.0593 41.2538 39.7237 41.0393 39.3622 41.0479C38.9147 41.0565 38.536 41.3654 38.536 42.0175C38.536 43.5447 41.1006 43.8794 41.9612 43.8708C43.7254 43.8451 44.0783 43.4504 44.1902 43.4418C44.302 43.4418 44.3623 43.4418 44.3623 43.5018C44.3623 44.0681 41.3588 45.3552 39.2245 45.3552C37.9422 45.3466 37.357 45.0463 36.3243 44.0939C35.2916 46.4363 33.1487 47.2857 31.5308 47.2857C30.0763 47.2857 28.5014 46.668 28.5014 44.7631C28.5014 42.661 29.7923 41.863 30.9456 41.8544C31.9352 41.8544 32.6065 42.5923 32.6065 43.3903C32.6065 44.1883 31.7803 44.7803 31.3586 44.7803C31.2468 44.7803 31.1951 44.7288 31.1005 44.6516C31.4275 44.3427 31.6857 44.111 31.6685 43.622C31.6685 43.2616 31.2554 43.0213 30.9456 43.0213C30.4464 43.0299 29.9386 43.2359 29.9386 44.3084C29.9386 45.0377 30.5841 45.5611 31.4877 45.5611C32.727 45.5611 33.6306 44.7975 33.6306 43.2015C33.6306 41.6056 32.4 40.6446 30.4206 40.6618C27.2794 40.6961 24.1985 44.6087 23.6132 47.6804C23.4928 47.6804 23.1313 47.5346 23.0625 47.4917C25.5066 38.7398 30.3948 38.3108 33.863 38.3108L46.2728 38.3451C48.8202 38.3537 50.6533 36.0456 50.8942 35.4879C50.8942 35.4879 51.1266 35.4793 51.1266 35.4707C50.7393 40.7304 47.1248 43.1758 42.4604 43.2273ZM6.84017 41.3225C6.86599 42.5237 6.49593 42.6867 6.4443 42.6867C6.32381 42.6867 6.32381 42.4379 6.13448 42.4465C5.96236 42.4465 5.85909 42.6009 5.8677 42.7725C5.8677 42.9784 6.014 43.1501 6.31521 43.1501C7.01229 43.1415 7.14999 41.9488 7.13278 41.5541C7.10696 40.739 6.91763 40.576 6.91763 40.5245C6.91763 40.473 6.91763 40.4473 6.95205 40.4473C7.20163 40.4387 7.82986 41.8201 7.83847 42.8068C7.83847 43.3989 7.70938 43.6734 7.27908 44.1539C8.36343 44.6087 8.76792 45.5954 8.78513 46.3333C8.79373 47.0026 8.52695 47.7405 7.64914 47.7662C6.67666 47.7834 6.3066 47.1913 6.298 46.6508C6.298 46.196 6.62502 45.8786 6.98648 45.8786C7.35653 45.8614 7.64053 46.2389 7.64053 46.4363C7.64053 46.4878 7.61471 46.5135 7.58029 46.5564C7.43399 46.4105 7.33932 46.2904 7.10696 46.3076C6.94345 46.3076 6.83157 46.4964 6.84017 46.6422C6.84017 46.8739 6.94345 47.1055 7.44259 47.097C7.77823 47.097 8.01059 46.7881 8.00198 46.3762C7.98477 45.7928 7.62332 45.3895 6.90042 45.4067C6.16891 45.4152 5.73 45.9901 5.75582 46.9082C5.79885 48.3583 7.63192 49.7483 9.04331 49.9971C9.04331 50.0572 8.98306 50.2288 8.95725 50.2459C4.91243 49.1905 4.68007 46.9254 4.65425 45.3294L4.55959 39.5893C4.55098 38.4138 3.46663 37.5901 3.21705 37.4785L3.20845 37.3756C5.62673 37.5128 6.77133 39.1602 6.84017 41.3225ZM58.5708 41.2538C58.545 42.4465 58.9236 42.6181 58.9667 42.6181C59.0871 42.6181 59.0871 42.3693 59.2851 42.3778C59.4572 42.3778 59.5605 42.5323 59.5519 42.7039C59.5519 42.9098 59.4056 43.0814 59.1043 43.0728C58.4073 43.0643 58.2696 41.8716 58.2868 41.4769C58.3126 40.6618 58.5019 40.4988 58.5019 40.4473C58.5019 40.3958 58.5019 40.3701 58.4675 40.3701C58.2093 40.3615 57.5897 41.7429 57.5725 42.7296C57.5725 43.3217 57.7016 43.5962 58.1319 44.0767C57.0475 44.5315 56.643 45.5268 56.6258 46.2561C56.6258 46.9254 56.884 47.6633 57.7618 47.689C58.7343 47.7062 59.1043 47.1141 59.113 46.5736C59.113 46.1102 58.7859 45.8013 58.4245 45.7928C58.0544 45.7842 57.7704 46.1531 57.7704 46.3591C57.7704 46.4105 57.7962 46.4363 57.8307 46.4792C57.977 46.3333 58.0716 46.2132 58.304 46.2304C58.4675 46.2304 58.5794 46.4277 58.5708 46.565C58.5708 46.7967 58.4675 47.0283 57.9684 47.0197C57.6327 47.0197 57.4004 46.7109 57.409 46.2904C57.4262 45.7155 57.7876 45.3037 58.5105 45.3209C59.242 45.3294 59.6809 45.9043 59.6551 46.8224C59.6121 48.2725 57.779 49.6625 56.3676 49.9027C56.3676 49.9628 56.4279 50.1344 56.4537 50.1601C60.4985 49.1047 60.7395 46.8396 60.7567 45.2436L60.8514 39.5035C60.86 38.328 61.9443 37.5043 62.2025 37.3927L62.2111 37.2897C59.7842 37.4356 58.631 39.0916 58.5708 41.2538Z" fill="black"/>
</g>
<defs>
<clipPath id="clip0_86:11169">
<rect width="65.242" height="83.9749" fill="white" transform="translate(0.187744)"/>
</clipPath>
</defs>
</svg>
