<svg width="152" height="18" viewBox="0 0 152 18" fill="none" xmlns="http://www.w3.org/2000/svg">
<g clip-path="url(#clip0_86:11236)">
<path d="M33.4731 13.034C33.3519 13.034 33.2633 12.993 33.2026 12.9111C33.142 12.8291 33.114 12.7199 33.114 12.5924C33.114 12.3921 33.1886 12.2373 33.3332 12.1326C33.4778 12.0279 33.6784 11.9733 33.9349 11.9733H34.3873V1.7628H33.4778C33.3565 1.7628 33.2679 1.72183 33.2073 1.63989C33.1467 1.55796 33.1187 1.44415 33.1187 1.30303C33.1187 1.11184 33.1933 0.966174 33.3379 0.861474C33.4825 0.756774 33.683 0.702148 33.9395 0.702148H37.3769C37.5448 0.702148 37.6334 0.78864 37.6334 0.966174C37.6334 1.10729 37.5914 1.22565 37.5074 1.32124C37.4048 1.39863 37.2603 1.46691 37.055 1.51243L36.2015 1.74459V11.987L37.055 12.2191C37.4421 12.3147 37.638 12.4968 37.638 12.7699C37.638 12.9475 37.5541 13.034 37.3815 13.034H33.4731ZM36.2015 6.78384L41.5091 1.7628H40.3431C40.2219 1.7628 40.1286 1.72183 40.068 1.63989C40.0073 1.55796 39.9747 1.44415 39.9747 1.30303C39.9747 1.11184 40.0493 0.966174 40.1939 0.861474C40.3385 0.756774 40.539 0.702148 40.7955 0.702148H44.1955C44.3914 0.702148 44.4847 0.815953 44.4847 1.03901C44.4847 1.17102 44.4287 1.28938 44.3215 1.39408C44.2142 1.48967 44.0603 1.55796 43.8691 1.60803L43.1975 1.74915L38.1604 6.54258L43.3094 12.0097L44.2002 12.2419C44.6106 12.3466 44.8205 12.5241 44.8205 12.7745C44.8205 12.952 44.7366 13.0385 44.564 13.0385H41.7796L36.2015 6.78384Z" fill="black"/>
<path d="M46.1125 13.0323C46.0052 13.0323 45.9166 12.9959 45.856 12.9276C45.7953 12.8457 45.7627 12.7364 45.7627 12.609C45.7627 12.4178 45.828 12.2767 45.9632 12.1811C46.1078 12.0855 46.3037 12.04 46.5462 12.04H46.9986V5.33006H46.1078C45.8793 5.33006 45.7627 5.1935 45.7627 4.92037C45.7627 4.72007 45.828 4.56985 45.9632 4.47881C46.1078 4.38321 46.3037 4.33769 46.5462 4.33769H48.603V5.52581H48.6777C49.6944 4.61537 50.7391 4.16016 51.8071 4.16016C52.67 4.16016 53.3789 4.41053 53.9339 4.90671C54.5029 5.39379 54.7874 6.05386 54.7874 6.89601V12.0445L55.6036 12.2767C55.7995 12.3358 55.9347 12.4087 56.0233 12.4906C56.1073 12.5635 56.1493 12.6636 56.1493 12.7911C56.1493 12.9549 56.07 13.0414 55.9114 13.0414H52.1989C52.0916 13.0414 52.003 13.005 51.9424 12.9367C51.8818 12.8548 51.8538 12.7455 51.8538 12.6181C51.8538 12.4269 51.9191 12.2858 52.0543 12.1902C52.1989 12.0946 52.3948 12.0491 52.6373 12.0491H53.0897V7.04168C53.0897 6.50907 52.9312 6.08117 52.6187 5.76252C52.3015 5.44387 51.8538 5.28454 51.2708 5.28454C50.8231 5.28454 50.3753 5.4029 49.9229 5.63961C49.4752 5.87632 49.0601 6.19497 48.687 6.60012V12.0491L49.5032 12.2812C49.699 12.3267 49.839 12.395 49.9229 12.477C50.0069 12.5589 50.0488 12.6682 50.0488 12.7956C50.0488 12.9595 49.9696 13.046 49.811 13.046H46.1125V13.0323Z" fill="black"/>
<path d="M61.513 13.2645C60.6641 13.2645 59.9132 13.0869 59.2556 12.7319C58.6027 12.3768 58.0896 11.8579 57.7259 11.1705C57.3621 10.4831 57.1802 9.66372 57.1802 8.70321C57.1802 7.74271 57.3621 6.92787 57.7259 6.25415C58.0896 5.56677 58.598 5.04783 59.2556 4.69276C59.9086 4.33769 60.6641 4.16016 61.513 4.16016C62.3618 4.16016 63.1127 4.33769 63.7703 4.69276C64.4233 5.04783 64.9363 5.56677 65.3001 6.25415C65.6639 6.92787 65.8458 7.74726 65.8458 8.70321C65.8458 9.65917 65.6639 10.4831 65.3001 11.1705C64.9363 11.8579 64.4279 12.3768 63.7703 12.7319C63.1174 13.0869 62.3618 13.2645 61.513 13.2645ZM61.513 12.1993C62.3385 12.1993 62.9728 11.8988 63.4252 11.2934C63.8869 10.6789 64.1155 9.81394 64.1155 8.70321C64.1155 7.59249 63.8869 6.73213 63.4252 6.13124C62.9775 5.5258 62.3385 5.22536 61.513 5.22536C60.6781 5.22536 60.0298 5.5258 59.5681 6.13124C59.1204 6.73668 58.8965 7.59249 58.8965 8.70321C58.8965 9.81394 59.125 10.6789 59.5868 11.2934C60.0485 11.8943 60.6875 12.1993 61.513 12.1993Z" fill="black"/>
<path d="M67.4448 5.33173H66.7172C66.4887 5.33173 66.3721 5.19516 66.3721 4.92203C66.3721 4.72174 66.4374 4.57152 66.5726 4.48047C66.7172 4.38488 66.9131 4.33936 67.1556 4.33936H70.425C70.5836 4.33936 70.6629 4.42129 70.6629 4.58972C70.6629 4.84009 70.481 5.00852 70.1172 5.10412L69.1331 5.35449L70.9707 11.3542C71.0173 11.5181 71.0547 11.6911 71.078 11.8686C71.1013 12.0325 71.1153 12.1418 71.1153 12.1873H71.1899C71.1899 12.1418 71.2039 12.0325 71.2272 11.8686C71.2505 11.6911 71.2879 11.5181 71.3345 11.3542L73.3167 4.34391H75.3175L77.4629 11.3542C77.5095 11.5181 77.5469 11.6911 77.5702 11.8686C77.5935 12.0325 77.6075 12.1418 77.6075 12.1873H77.6821C77.6821 12.1418 77.6961 12.0325 77.7194 11.8686C77.7427 11.6911 77.7801 11.5181 77.8267 11.3542L79.5384 5.33628H78.447C78.2045 5.33628 78.0832 5.19971 78.0832 4.92658C78.0832 4.72629 78.1485 4.57607 78.2838 4.48502C78.4283 4.38943 78.6242 4.34391 78.8668 4.34391H81.833C81.9916 4.34391 82.0709 4.42585 82.0709 4.59428C82.0709 4.81733 81.8843 4.99031 81.5065 5.10867L80.779 5.35904L78.5216 13.0476H76.2829L74.3381 6.60178C74.2774 6.38783 74.2308 6.16022 74.1935 5.90985C74.1702 5.65038 74.1562 5.4774 74.1562 5.39546H74.0816C74.0816 5.4774 74.0629 5.65038 74.0256 5.90985C74.0023 6.16022 73.9603 6.38783 73.8997 6.60178L72.0807 13.0476H69.842L67.4448 5.33173Z" fill="black"/>
<path d="M83.2512 13.0323C83.1439 13.0323 83.0553 12.9959 82.9946 12.9276C82.934 12.8457 82.9014 12.7364 82.9014 12.609C82.9014 12.4178 82.9667 12.2767 83.1019 12.1811C83.2465 12.0855 83.4424 12.04 83.6849 12.04H84.1373V5.33006H83.2465C83.018 5.33006 82.9014 5.1935 82.9014 4.92037C82.9014 4.72007 82.9667 4.56985 83.1019 4.47881C83.2465 4.38321 83.4424 4.33769 83.6849 4.33769H85.7417V5.52581H85.8163C86.8331 4.61537 87.8778 4.16016 88.9458 4.16016C89.8087 4.16016 90.5176 4.41053 91.0726 4.90671C91.6416 5.39379 91.9261 6.05386 91.9261 6.89601V12.0445L92.7423 12.2767C92.9382 12.3358 93.0781 12.4087 93.162 12.4906C93.246 12.5635 93.288 12.6636 93.288 12.7911C93.288 12.9549 93.2087 13.0414 93.0501 13.0414H89.3376C89.2303 13.0414 89.1417 13.005 89.0811 12.9367C89.0205 12.8548 88.9878 12.7455 88.9878 12.6181C88.9878 12.4269 89.0531 12.2858 89.1884 12.1902C89.3329 12.0946 89.5288 12.0491 89.7713 12.0491H90.2238V7.04168C90.2238 6.50907 90.0652 6.08117 89.7527 5.76252C89.4355 5.44387 88.9878 5.28454 88.4048 5.28454C87.9571 5.28454 87.5093 5.4029 87.0569 5.63961C86.6092 5.87632 86.1941 6.19497 85.821 6.60012V12.0491L86.6372 12.2812C86.8331 12.3267 86.9683 12.395 87.0569 12.477C87.1409 12.5589 87.1829 12.6682 87.1829 12.7956C87.1829 12.9595 87.1036 13.046 86.945 13.046H83.2512V13.0323Z" fill="black"/>
<path d="M100.438 13.2655C99.2716 13.2655 98.2409 13.0334 97.3454 12.5736C96.4593 12.1002 95.7644 11.3855 95.256 10.425C94.757 9.46447 94.5098 8.28091 94.5098 6.87429C94.5098 5.46767 94.757 4.28411 95.256 3.3236C95.7644 2.3631 96.4639 1.64841 97.3454 1.17498C98.2409 0.701556 99.2716 0.464844 100.438 0.464844C101.604 0.464844 102.625 0.701556 103.511 1.17498C104.407 1.64841 105.106 2.3631 105.601 3.3236C106.109 4.28411 106.365 5.46767 106.365 6.87429C106.365 8.28091 106.109 9.46447 105.601 10.425C105.102 11.3855 104.407 12.1002 103.511 12.5736C102.625 13.0334 101.599 13.2655 100.438 13.2655ZM100.419 12.0911C101.739 12.0911 102.751 11.6404 103.455 10.7436C104.159 9.8423 104.509 8.55404 104.509 6.87429C104.509 5.20365 104.159 3.91538 103.455 3.00495C102.751 2.09452 101.739 1.6393 100.419 1.6393C99.0991 1.6393 98.087 2.09452 97.3827 3.00495C96.6925 3.91538 96.3474 5.2082 96.3474 6.87429C96.3474 8.55404 96.6925 9.84685 97.3827 10.7436C98.0823 11.6404 99.0944 12.0911 100.419 12.0911Z" fill="black"/>
<path d="M108.367 13.0323C108.26 13.0323 108.171 12.9959 108.11 12.9276C108.05 12.8457 108.017 12.7364 108.017 12.609C108.017 12.4178 108.082 12.2767 108.218 12.1811C108.362 12.0855 108.558 12.04 108.801 12.04H109.253V5.33006H108.362C108.134 5.33006 108.017 5.1935 108.017 4.92037C108.017 4.72007 108.082 4.56985 108.218 4.47881C108.362 4.38321 108.558 4.33769 108.801 4.33769H110.857V6.11303H110.932C111.37 5.56677 111.865 5.10701 112.424 4.72918C112.993 4.35135 113.521 4.16016 114.006 4.16016C114.295 4.16016 114.523 4.2421 114.677 4.41053C114.836 4.5653 114.915 4.76104 114.915 4.99775C114.915 5.3073 114.822 5.55767 114.645 5.76252C113.297 5.76252 112.07 6.25415 110.951 7.23742V12.0491L111.767 12.2812C111.963 12.3404 112.098 12.4132 112.187 12.4952C112.271 12.568 112.313 12.6682 112.313 12.7956C112.313 12.9595 112.233 13.046 112.075 13.046H108.367V13.0323Z" fill="black"/>
<path d="M117.872 2.98734C117.532 2.98734 117.247 2.88264 117.018 2.66868C116.799 2.45473 116.692 2.17705 116.692 1.83564C116.692 1.49423 116.799 1.2211 117.018 1.0208C117.247 0.806848 117.536 0.702148 117.872 0.702148C118.198 0.702148 118.474 0.806848 118.688 1.0208C118.917 1.2211 119.033 1.49423 119.033 1.83564C119.033 2.17705 118.917 2.45473 118.688 2.66868C118.474 2.87808 118.198 2.98734 117.872 2.98734ZM116.165 13.034C116.058 13.034 115.969 12.9975 115.908 12.9293C115.848 12.8473 115.815 12.7381 115.815 12.6106C115.815 12.4194 115.88 12.2783 116.016 12.1827C116.16 12.0871 116.356 12.0416 116.599 12.0416H117.051V5.3317H116.16C115.932 5.3317 115.815 5.19514 115.815 4.92201C115.815 4.72171 115.88 4.57149 116.016 4.48044C116.16 4.38485 116.356 4.33933 116.599 4.33933H118.744V12.0416L119.56 12.2738C119.756 12.3329 119.891 12.4058 119.98 12.4877C120.064 12.5605 120.106 12.6607 120.106 12.7881C120.106 12.952 120.027 13.0385 119.868 13.0385H116.165V13.034Z" fill="black"/>
<path d="M125.436 17.1735C124.905 17.1735 124.368 17.1098 123.837 16.9778C123.305 16.8457 122.852 16.6773 122.489 16.4634C122.05 16.213 121.836 15.9626 121.836 15.6986C121.836 15.5575 121.878 15.4391 121.962 15.3435C122.06 15.2616 122.167 15.2206 122.288 15.2206C122.363 15.2206 122.437 15.2434 122.526 15.2935C122.624 15.339 122.689 15.3754 122.727 15.3982C123.515 15.8716 124.392 16.1083 125.362 16.1083C126.224 16.1083 126.873 15.9034 127.307 15.4892C127.745 15.0886 127.959 14.4968 127.959 13.7139V11.9931H127.885C127.596 12.3846 127.218 12.6987 126.756 12.9354C126.294 13.1585 125.749 13.2723 125.119 13.2723C124.378 13.2723 123.701 13.113 123.081 12.7943C122.475 12.462 121.985 11.9613 121.607 11.2876C121.243 10.6138 121.062 9.78079 121.062 8.78386C121.062 7.77783 121.267 6.93113 121.682 6.24375C122.092 5.54727 122.652 5.02378 123.356 4.68236C124.06 4.34095 124.835 4.16797 125.683 4.16797C126.374 4.16797 127.073 4.29088 127.773 4.54125C128.486 4.79161 129.093 5.11482 129.592 5.51541V13.468C129.592 14.6379 129.233 15.5529 128.519 16.2039C127.815 16.8457 126.784 17.1735 125.436 17.1735ZM125.53 12.2025C126.196 12.2025 126.761 12.0022 127.223 11.5971C127.684 11.1829 127.913 10.6502 127.913 9.99929V5.86137C127.61 5.66108 127.265 5.5063 126.877 5.4016C126.49 5.28325 126.103 5.22407 125.711 5.22407C124.863 5.22407 124.158 5.53362 123.603 6.14816C123.058 6.7536 122.787 7.62761 122.787 8.77476C122.787 9.87638 123.03 10.7231 123.515 11.3149C123.995 11.9066 124.667 12.2025 125.53 12.2025Z" fill="black"/>
<path d="M133.412 2.98734C133.071 2.98734 132.787 2.88264 132.558 2.66868C132.339 2.45473 132.232 2.17705 132.232 1.83564C132.232 1.49423 132.339 1.2211 132.558 1.0208C132.787 0.806848 133.076 0.702148 133.412 0.702148C133.738 0.702148 134.013 0.806848 134.228 1.0208C134.456 1.2211 134.573 1.49423 134.573 1.83564C134.573 2.17705 134.456 2.45473 134.228 2.66868C134.013 2.87808 133.743 2.98734 133.412 2.98734ZM131.705 13.034C131.598 13.034 131.509 12.9975 131.448 12.9293C131.388 12.8473 131.355 12.7381 131.355 12.6106C131.355 12.4194 131.42 12.2783 131.556 12.1827C131.7 12.0871 131.896 12.0416 132.139 12.0416H132.591V5.3317H131.7C131.472 5.3317 131.355 5.19514 131.355 4.92201C131.355 4.72171 131.42 4.57149 131.556 4.48044C131.7 4.38485 131.896 4.33933 132.139 4.33933H134.284V12.0416L135.1 12.2738C135.296 12.3329 135.431 12.4058 135.52 12.4877C135.604 12.5605 135.646 12.6607 135.646 12.7881C135.646 12.952 135.567 13.0385 135.408 13.0385H131.705V13.034Z" fill="black"/>
<path d="M137.124 13.0323C137.017 13.0323 136.928 12.9959 136.868 12.9276C136.807 12.8457 136.774 12.7364 136.774 12.609C136.774 12.4178 136.84 12.2767 136.975 12.1811C137.12 12.0855 137.315 12.04 137.558 12.04H138.01V5.33006H137.12C136.891 5.33006 136.774 5.1935 136.774 4.92037C136.774 4.72007 136.84 4.56985 136.975 4.47881C137.12 4.38321 137.315 4.33769 137.558 4.33769H139.615V5.52581H139.689C140.706 4.61537 141.751 4.16016 142.819 4.16016C143.682 4.16016 144.391 4.41053 144.946 4.90671C145.515 5.39379 145.799 6.05386 145.799 6.89601V12.0445L146.615 12.2767C146.811 12.3358 146.946 12.4087 147.035 12.4906C147.119 12.5635 147.161 12.6636 147.161 12.7911C147.161 12.9549 147.082 13.0414 146.923 13.0414H143.211C143.103 13.0414 143.015 13.005 142.954 12.9367C142.893 12.8548 142.866 12.7455 142.866 12.6181C142.866 12.4269 142.931 12.2858 143.066 12.1902C143.211 12.0946 143.407 12.0491 143.649 12.0491H144.106V7.04168C144.106 6.50907 143.948 6.08117 143.635 5.76252C143.318 5.44387 142.87 5.28454 142.287 5.28454C141.839 5.28454 141.392 5.4029 140.939 5.63961C140.492 5.87632 140.076 6.19497 139.703 6.60012V12.0491L140.52 12.2812C140.715 12.3267 140.851 12.395 140.939 12.477C141.023 12.5589 141.065 12.6682 141.065 12.7956C141.065 12.9595 140.986 13.046 140.827 13.046H137.124V13.0323Z" fill="black"/>
<path d="M149.903 13.2655C149.586 13.2655 149.32 13.1653 149.101 12.965C148.896 12.7511 148.793 12.4916 148.793 12.182C148.793 11.8725 148.896 11.6221 149.101 11.4173C149.32 11.2033 149.586 11.0986 149.903 11.0986C150.206 11.0986 150.463 11.2033 150.668 11.4173C150.887 11.6176 150.995 11.8725 150.995 12.182C150.995 12.4916 150.887 12.7511 150.668 12.965C150.463 13.1653 150.206 13.2655 149.903 13.2655Z" fill="#4D4D4D"/>
<path d="M17.9845 13.0319C21.5366 13.0319 24.4161 10.2214 24.4161 6.75448C24.4161 3.28755 21.5366 0.477051 17.9845 0.477051C14.4325 0.477051 11.553 3.28755 11.553 6.75448C11.553 10.2214 14.4325 13.0319 17.9845 13.0319Z" fill="#4D4D4D"/>
<path d="M0 13.0353H12.7792L0 0.480469V13.0353Z" fill="#4D4D4D"/>
<path d="M149.969 13.3548C150.626 13.3548 151.158 12.8351 151.158 12.194C151.158 11.5529 150.626 11.0332 149.969 11.0332C149.312 11.0332 148.78 11.5529 148.78 12.194C148.78 12.8351 149.312 13.3548 149.969 13.3548Z" fill="#4D4D4D"/>
</g>
<defs>
<clipPath id="clip0_86:11236">
<rect width="151.154" height="16.7064" fill="white" transform="translate(0 0.464844)"/>
</clipPath>
</defs>
</svg>
