<svg width="43" height="74" viewBox="0 0 43 74" fill="none" xmlns="http://www.w3.org/2000/svg">
<path d="M16.5282 73.1163C31.0368 73.1163 42.1798 60.6674 42.1798 43.4664C42.1798 26.3482 31.0368 13.8164 16.5282 13.8164C10.6948 13.8164 5.68353 15.3733 1.34595 18.6481V20.2863C5.8334 16.9286 10.769 15.2076 16.5282 15.2076C29.7651 15.2076 40.2358 26.6749 40.7596 42.2361H5.93817V43.6289H40.8338C40.7596 59.7638 30.0648 71.722 16.5282 71.722C10.0968 71.722 4.41325 69.593 0 65.4975V67.2998C4.33759 71.2327 9.94691 73.1163 16.5282 73.1163Z" fill="white"/>
<path d="M22.3444 33.591C20.7584 33.591 19.7398 31.7616 19.7398 29.5609C19.7398 27.3586 20.7584 25.5291 22.3444 25.5291C23.9435 25.5291 24.9635 27.3586 24.9635 29.5609C24.9635 31.7616 23.945 33.591 22.3444 33.591ZM22.3444 35.1894C24.949 35.1894 26.5205 32.5855 26.5205 29.5609C26.5205 26.5538 24.949 23.9324 22.3444 23.9324C19.7544 23.9324 18.1829 26.5522 18.1829 29.5609C18.1829 32.5839 19.7544 35.1894 22.3444 35.1894ZM9.74634 34.987H16.6405V33.4683H11.9973L14.1348 31.2357C15.6496 29.6692 16.3 28.678 16.3 27.1275C16.3 25.1578 14.7431 23.934 12.9315 23.934C11.6714 23.934 10.695 24.4296 10.001 25.0654V26.8486C10.7372 26.0885 11.587 25.5005 12.7758 25.5005C13.9501 25.5005 14.7431 26.2447 14.7431 27.3299C14.7431 28.4454 14.1625 29.2374 12.8602 30.5553L9.74634 33.7488V34.987V34.987Z" fill="white"/>
<path d="M22.0285 61.5278H23.5578V50.6755H22.1987L19.8633 52.1177V53.7766L22.0285 52.505V61.5278V61.5278ZM10.1943 61.5278H17.0885V60.0091H12.4453L14.5829 57.7765C16.0976 56.21 16.748 55.2188 16.748 53.6683C16.748 51.6986 15.1911 50.4747 13.3795 50.4747C12.1194 50.4747 11.143 50.9703 10.449 51.6062V53.3894C11.1852 52.6293 12.035 52.0412 13.2238 52.0412C14.3981 52.0412 15.1911 52.7854 15.1911 53.8706C15.1911 54.9861 14.6105 55.7782 13.3082 57.096L10.1943 60.2896V61.5278V61.5278Z" fill="white"/>
<path d="M31.1511 5.40794H32.3311L33.9084 3.27256V5.40794H34.8178V3.27256L36.3952 5.40794H37.581L35.7069 2.89807L37.3919 0.56827H36.2744L34.8164 2.60804V0.569864H33.907V2.60963L32.4548 0.569864H31.3373L33.0165 2.89966L31.1511 5.40794ZM27.4581 3.46538L28.1085 1.78576L28.7516 3.46538H27.4581ZM25.7862 5.40794H26.7393L27.1743 4.28766H29.0426L29.4777 5.40794H30.4439L28.5508 0.54118H27.6792L25.7862 5.40794ZM21.8546 0.569864V1.46067H23.25V5.40794H24.1594V1.46067H25.5606V0.569864H21.8546ZM16.7734 5.40794H17.5374L19.7025 2.23514V5.40794H20.6047V0.569864H19.8218L17.6829 3.72194V0.569864H16.7734V5.40794V5.40794ZM10.8658 5.40794H11.7752V2.0965L12.8098 3.65183H13.3147L14.3304 2.0965V5.40794H15.2267V0.569864H14.3304L13.0484 2.57457L11.768 0.569864H10.8658V5.40794ZM7.0477 2.6431V1.43995H8.0066C8.43584 1.43995 8.70067 1.64712 8.70067 2.04073C8.70067 2.42796 8.43584 2.6415 8.0066 2.6415H7.0477V2.6431ZM6.13828 5.40794H7.0477V3.49406H8.07062C9.03679 3.49406 9.61009 2.87894 9.61009 2.02798C9.61009 1.17701 9.03534 0.569864 8.06916 0.569864H6.13828V5.40794ZM2.37108 5.50515C3.72139 5.50515 4.75013 4.37849 4.75013 2.9889C4.75013 1.59293 3.73449 0.472656 2.38272 0.472656C1.9593 0.472656 1.55624 0.582612 1.2143 0.783402V1.75867C1.53005 1.53716 1.90255 1.39215 2.39436 1.39215C3.03169 1.39215 3.56861 1.84153 3.71994 2.49808H2.04224V3.33471H3.76505C3.63846 4.07412 3.05788 4.58566 2.3769 4.58566C1.84726 4.58566 1.48058 4.4757 1.13281 4.17133V5.15934C1.47476 5.38085 1.91564 5.50515 2.37108 5.50515Z" fill="white"/>
</svg>
