<svg width="109" height="18" viewBox="0 0 109 18" fill="none" xmlns="http://www.w3.org/2000/svg">
<g clip-path="url(#clip0_86:11171)">
<path d="M0.726562 0.326172H5.98707C10.5652 0.326172 13.059 3.12821 13.059 7.19271C13.059 11.0047 10.528 13.8622 6.04911 13.8622H0.726562V0.326172ZM3.35061 11.4851H5.98087C9.00194 11.4851 10.4225 9.55136 10.4225 7.19271C10.4225 4.52616 8.95852 2.68481 5.94365 2.68481H3.35061V11.4851Z" fill="black"/>
<path d="M14.1934 11.2165C14.1934 9.18424 15.7132 8.27897 17.7976 8.27897C18.3311 8.27897 18.8584 8.34055 19.3732 8.46988L20.1921 8.66079V8.0819C20.1921 7.01651 19.4105 6.43763 18.3001 6.43763C17.1524 6.43763 16.4887 7.07809 16.2963 7.96489L14.1313 7.38601C14.6152 5.68631 16.0234 4.50391 18.3187 4.50391C21.1412 4.50391 22.568 5.85874 22.568 8.21739V13.8646H20.2914V12.4543C19.7082 13.4766 18.7901 14.0617 17.2331 14.0617C15.676 14.0617 14.1934 13.0147 14.1934 11.2165ZM20.1921 10.4837V10.4036L19.6276 10.2312C19.0631 10.0587 18.6164 9.9602 18.1884 9.9602C17.3137 9.9602 16.7244 10.3297 16.7244 11.0625C16.7244 11.703 17.2083 12.1649 18.2256 12.1649C19.336 12.1649 20.1921 11.5675 20.1921 10.4837Z" fill="black"/>
<path d="M26.4766 4.69628V6.06959C27.1899 5.09657 28.3252 4.51769 29.5348 4.50537C32.0286 4.50537 33.8772 6.42061 33.8772 9.32119C33.8772 12.2218 31.9728 14.0631 29.3984 14.0631C28.1329 14.0631 27.0597 13.5396 26.5758 12.6898V17.6965H24.082V4.70244L26.4766 4.69628ZM28.9331 11.9508C30.2544 11.9508 31.3897 10.9839 31.3897 9.32119C31.3897 7.62149 30.2606 6.63615 28.9331 6.63615C27.6676 6.63615 26.4766 7.58454 26.4766 9.32119C26.4766 11.0209 27.6676 11.9508 28.9331 11.9508Z" fill="black"/>
<path d="M37.4624 4.69628V6.06959C38.1758 5.09657 39.311 4.51769 40.5207 4.50537C43.0145 4.50537 44.8631 6.42061 44.8631 9.32119C44.8631 12.2218 42.9586 14.0631 40.3842 14.0631C39.1187 14.0631 38.0455 13.5396 37.5617 12.6898V17.6965H35.0679V4.70244L37.4624 4.69628ZM39.919 11.9508C41.2403 11.9508 42.3755 10.9839 42.3755 9.32119C42.3755 7.62149 41.2465 6.63615 39.919 6.63615C38.6535 6.63615 37.4624 7.58454 37.4624 9.32119C37.4624 11.0209 38.6535 11.9508 39.919 11.9508Z" fill="black"/>
<path d="M53.0084 10.3619L55.13 11.1933C54.5097 12.9361 53.0457 14.0569 50.8248 14.0569C47.9837 14.0569 45.9365 12.1602 45.9365 9.22266C45.9365 6.61152 47.7665 4.50537 50.5333 4.50537C53.0829 4.50537 54.8198 6.09422 54.8198 8.6253C54.8198 9.00096 54.7826 9.37661 54.702 9.74611H48.4303C48.4675 11.1995 49.6214 11.9323 50.8621 11.9323C52.0531 11.9262 52.7355 11.3288 53.0084 10.3619ZM48.4303 8.10184H52.3819C52.3943 8.07721 52.4005 8.05257 52.4005 8.02178C52.4005 7.09187 51.6437 6.49451 50.5271 6.49451C49.5407 6.49451 48.666 7.0734 48.4303 8.10184Z" fill="black"/>
<path d="M58.8848 4.70097V5.87721C59.257 5.06431 59.9952 4.50391 61.1056 4.50391C62.8178 4.50391 63.7545 5.68631 63.7545 7.21357C63.7545 7.59539 63.7111 7.98337 63.618 8.35287H61.2607C61.3166 8.12501 61.3414 7.89099 61.3414 7.65082C61.3414 6.99187 60.8761 6.51152 60.1751 6.51152C59.3935 6.51152 58.891 7.03498 58.891 7.96489V13.8646H56.3972V4.70097H58.8848Z" fill="black"/>
<path d="M71.4156 0.197266V11.4362H79.4304V13.8811H68.7605V0.197266H71.4156Z" fill="black"/>
<path d="M80.2632 11.2039C80.2632 9.15313 81.8017 8.23554 83.9046 8.23554C84.4381 8.23554 84.9654 8.29712 85.4989 8.4326L86.324 8.62967V8.04463C86.324 6.96692 85.5361 6.38188 84.4133 6.38188C83.2533 6.38188 82.5833 7.0285 82.3848 7.92762L80.2012 7.34258C80.6912 5.6244 82.1118 4.42969 84.4319 4.42969C87.2855 4.42969 88.7247 5.79684 88.7247 8.18011V13.8889H86.4232V12.4602C85.8339 13.4948 84.9096 14.0798 83.3339 14.0798C81.7582 14.0798 80.2632 13.0206 80.2632 11.2039ZM86.324 10.4587V10.3848L85.7533 10.2062C85.1825 10.0276 84.7297 9.93524 84.2954 9.93524C83.4084 9.93524 82.819 10.3047 82.819 11.0499C82.819 11.6965 83.3091 12.1646 84.3327 12.1646C85.4617 12.1646 86.324 11.5549 86.324 10.4587Z" fill="black"/>
<path d="M92.9163 0.197266V6.00457C93.5242 5.06851 94.6657 4.42188 95.9063 4.42188C98.4249 4.42188 100.298 6.3556 100.298 9.28697C100.298 12.2183 98.3877 14.0781 95.7699 14.0781C94.5478 14.0781 93.4684 13.5916 92.817 12.6494V13.8811H90.3977V0.197266H92.9163ZM95.3046 11.9474C96.6446 11.9474 97.786 10.9682 97.786 9.28697C97.786 7.56879 96.6446 6.57114 95.3046 6.57114C94.0267 6.57114 92.8232 7.53184 92.8232 9.28697C92.8232 11.0051 94.0205 11.9474 95.3046 11.9474Z" fill="black"/>
<path d="M100.757 11.5963L102.723 10.5617C103.176 11.5779 104.001 12.0274 105.068 12.0274C106.073 12.0274 106.582 11.6394 106.582 11.1283C106.582 10.5001 106.166 10.1676 104.417 9.9151C102.488 9.6195 101.228 8.7635 101.228 7.1377C101.228 5.47495 102.903 4.42188 104.795 4.42188C106.88 4.42188 107.829 5.25941 108.337 6.37406L106.427 7.40866C106.191 6.68814 105.583 6.35559 104.851 6.35559C104.1 6.35559 103.53 6.68814 103.53 7.15617C103.53 7.70426 104.02 7.93828 105.596 8.1723C108.04 8.5418 108.921 9.48402 108.921 11.0852C108.921 12.8465 107.227 14.0781 104.981 14.0781C102.785 14.0781 101.408 13.1359 100.757 11.5963Z" fill="black"/>
</g>
<defs>
<clipPath id="clip0_86:11171">
<rect width="108.194" height="17.502" fill="white" transform="translate(0.726562 0.197266)"/>
</clipPath>
</defs>
</svg>
