<svg width="34" height="34" viewBox="0 0 34 34" fill="none" xmlns="http://www.w3.org/2000/svg">
<path d="M33.675 31.9221L25.0371 23.2843C27.2872 20.5829 28.4093 17.1181 28.1698 13.6105C27.9304 10.103 26.3479 6.82279 23.7516 4.4523C21.1552 2.08181 17.7449 0.803542 14.2301 0.883412C10.7153 0.963283 7.36662 2.39514 4.88064 4.88112C2.39465 7.36711 0.962794 10.7158 0.882924 14.2306C0.803054 17.7454 2.08132 21.1557 4.45181 23.752C6.82231 26.3484 10.1025 27.9309 13.6101 28.1703C17.1176 28.4098 20.5824 27.2877 23.2838 25.0376L31.9216 33.6755L33.675 31.9221ZM3.40162 14.5621C3.40162 12.3549 4.05614 10.1972 5.28242 8.36194C6.50869 6.52669 8.25165 5.09628 10.2909 4.25161C12.3301 3.40694 14.574 3.18593 16.7388 3.61654C18.9037 4.04715 20.8922 5.11004 22.4529 6.67079C24.0137 8.23155 25.0766 10.2201 25.5072 12.3849C25.9378 14.5497 25.7168 16.7936 24.8721 18.8329C24.0274 20.8721 22.597 22.615 20.7618 23.8413C18.9265 25.0676 16.7689 25.7221 14.5616 25.7221C11.6029 25.7185 8.76642 24.5416 6.67429 22.4494C4.58217 20.3573 3.40523 17.5208 3.40162 14.5621V14.5621Z" fill="white"/>
<path d="M15.8004 8.36328H13.3204V13.3233H8.36035V15.8033H13.3204V20.7633H15.8004V15.8033H20.7604V13.3233H15.8004V8.36328Z" fill="white"/>
</svg>
