<svg width="127" height="30" viewBox="0 0 127 30" fill="none" xmlns="http://www.w3.org/2000/svg">
<path d="M29.0618 14.5309C29.0618 22.5557 22.5557 29.0618 14.5309 29.0618C6.50615 29.0618 0 22.5557 0 14.5309C0 6.50615 6.50615 0 14.5309 0C22.5573 0 29.0618 6.50615 29.0618 14.5309Z" fill="#888888"/>
<path d="M7.16896 15.0191L7.23164 14.9206L11.0117 9.00712C11.067 8.92055 11.1968 8.9295 11.2386 9.02354C11.8701 10.4388 12.415 12.199 12.1598 13.2948C12.0508 13.7456 11.7522 14.3562 11.4163 14.9206C11.373 15.0027 11.3252 15.0833 11.2745 15.1609C11.2506 15.1968 11.2103 15.2177 11.167 15.2177H7.27942C7.17491 15.2177 7.11371 15.1042 7.16896 15.0191Z" fill="white"/>
<path d="M24.018 16.1181V17.0542C24.018 17.1079 23.9852 17.1557 23.9374 17.1766C23.6448 17.302 22.643 17.7618 22.2265 18.341C21.1636 19.8205 20.3514 21.936 18.536 21.936H10.9625C8.27822 21.936 6.10303 19.7534 6.10303 17.0601V16.9735C6.10303 16.9019 6.16124 16.8437 6.2329 16.8437H10.4549C10.5385 16.8437 10.5997 16.9213 10.5922 17.0034C10.5624 17.2781 10.6131 17.5588 10.743 17.814C10.9938 18.3231 11.5133 18.6411 12.0747 18.6411H14.1648V17.0094H12.0986C11.9926 17.0094 11.9299 16.8869 11.9911 16.8004C12.0135 16.766 12.0389 16.7302 12.0657 16.6899C12.2613 16.4122 12.5405 15.9808 12.8182 15.4896C13.0078 15.1582 13.1914 14.8043 13.3392 14.449C13.3691 14.3848 13.3929 14.3191 13.4168 14.2549C13.4571 14.1415 13.4989 14.0355 13.5288 13.9295C13.5587 13.8399 13.5825 13.7458 13.6064 13.6578C13.6766 13.3562 13.7064 13.0367 13.7064 12.7053C13.7064 12.5754 13.7005 12.4395 13.6885 12.3097C13.6825 12.1679 13.6646 12.026 13.6467 11.8842C13.6348 11.7588 13.6124 11.6349 13.5885 11.505C13.5587 11.3154 13.5168 11.1273 13.4691 10.9377L13.4526 10.866C13.4168 10.7361 13.387 10.6122 13.3452 10.4824C13.2272 10.0748 13.0914 9.67766 12.948 9.30593C12.8958 9.15812 12.8361 9.0163 12.7763 8.87448C12.6883 8.66099 12.5987 8.46692 12.5166 8.28328C12.4748 8.19967 12.439 8.12352 12.4031 8.0459C12.3628 7.95781 12.321 7.86973 12.2792 7.78615C12.2494 7.72195 12.215 7.66223 12.1911 7.6025L11.9358 7.13074C11.9 7.06655 11.9597 6.9904 12.0299 7.00982L13.6273 7.44275H13.6318C13.6348 7.44275 13.6363 7.44426 13.6378 7.44426L13.8483 7.50247L14.0797 7.56818L14.1648 7.59204V6.64256C14.1648 6.18423 14.532 5.8125 14.9859 5.8125C15.2128 5.8125 15.4188 5.90506 15.5666 6.05583C15.7144 6.20664 15.807 6.41266 15.807 6.64256V8.05189L15.9772 8.09963C15.9906 8.10414 16.004 8.1101 16.016 8.11905C16.0578 8.15041 16.1175 8.19667 16.1936 8.25343C16.2534 8.30118 16.3176 8.35942 16.3952 8.41914C16.5489 8.54303 16.7326 8.70278 16.9341 8.88643C16.9879 8.93269 17.0401 8.98047 17.0879 9.02825C17.3477 9.2701 17.6388 9.55374 17.9165 9.86726C17.9941 9.95535 18.0702 10.0449 18.1479 10.139C18.2255 10.2345 18.3076 10.3286 18.3793 10.4226C18.4733 10.548 18.5748 10.6779 18.6629 10.8138C18.7047 10.878 18.7525 10.9437 18.7928 11.0078C18.9063 11.1795 19.0063 11.3572 19.1019 11.5349C19.1422 11.617 19.184 11.7065 19.2198 11.7946C19.3258 12.032 19.4094 12.2738 19.4631 12.5157C19.4795 12.5679 19.4915 12.6247 19.4975 12.6754V12.6874C19.5154 12.759 19.5214 12.8352 19.5273 12.9128C19.5512 13.1606 19.5393 13.4084 19.4855 13.6578C19.4631 13.7638 19.4333 13.8638 19.3974 13.9698C19.3616 14.0713 19.3258 14.1773 19.2795 14.2773C19.1899 14.4848 19.0839 14.6924 18.9585 14.8864C18.9182 14.9581 18.8704 15.0342 18.8227 15.1059C18.7704 15.182 18.7167 15.2537 18.6689 15.3239C18.6032 15.4134 18.5331 15.5075 18.4614 15.5911C18.3972 15.6792 18.3315 15.7673 18.2598 15.8449C18.1598 15.9628 18.0643 16.0748 17.9642 16.1823C17.9045 16.2525 17.8403 16.3241 17.7746 16.3883C17.7105 16.46 17.6447 16.5242 17.585 16.5839C17.485 16.6839 17.4014 16.7615 17.3312 16.8257L17.167 16.9765C17.1431 16.9974 17.1118 17.0094 17.0789 17.0094H15.807V18.6411H17.4074C17.7657 18.6411 18.1061 18.5142 18.3808 18.2813C18.4748 18.1992 18.8854 17.8439 19.3706 17.308C19.387 17.29 19.4079 17.2766 19.4318 17.2706L23.8523 15.9927C23.9344 15.9688 24.018 16.0315 24.018 16.1181Z" fill="white"/>
<path d="M43.2216 21.5045C41.908 21.5045 40.7005 21.2102 39.5993 20.6214C38.5112 20.0327 37.642 19.2136 36.9919 18.1641C36.3551 17.1018 36.0366 15.9115 36.0366 14.5933C36.0366 13.275 36.3551 12.0911 36.9919 11.0416C37.642 9.99214 38.5112 9.17301 39.5993 8.58427C40.7005 7.99554 41.908 7.70117 43.2216 7.70117C44.5352 7.70117 45.736 7.99554 46.8241 8.58427C47.9255 9.17301 48.7878 9.99214 49.4114 11.0416C50.0485 12.0911 50.3667 13.275 50.3667 14.5933C50.3667 15.9115 50.0485 17.1018 49.4114 18.1641C48.7747 19.2136 47.9121 20.0327 46.8241 20.6214C45.736 21.2102 44.5352 21.5045 43.2216 21.5045ZM43.2216 18.5096C44.3361 18.5096 45.2251 18.1513 45.8886 17.4346C46.5654 16.7178 46.9037 15.7707 46.9037 14.5933C46.9037 13.403 46.5654 12.4559 45.8886 11.752C45.2251 11.0352 44.3361 10.6769 43.2216 10.6769C42.0937 10.6769 41.1916 11.0288 40.5148 11.7327C39.8513 12.4367 39.5197 13.3902 39.5197 14.5933C39.5197 15.7835 39.8513 16.737 40.5148 17.4538C41.1916 18.1577 42.0937 18.5096 43.2216 18.5096Z" fill="#04111D"/>
<path d="M55.6639 12.1741C55.9955 11.675 56.4532 11.2718 57.0371 10.9647C57.6209 10.6575 58.3042 10.5039 59.0871 10.5039C60.0026 10.5039 60.832 10.7279 61.5751 11.1758C62.3179 11.6238 62.9018 12.2637 63.3264 13.0956C63.7643 13.9276 63.9832 14.8939 63.9832 15.9946C63.9832 17.0952 63.7643 18.0679 63.3264 18.9126C62.9018 19.7446 62.3179 20.3909 61.5751 20.8517C60.832 21.2996 60.0026 21.5236 59.0871 21.5236C58.3176 21.5236 57.6343 21.37 57.0371 21.0628C56.4532 20.7557 55.9955 20.3589 55.6639 19.8725V24.5569H52.2605V10.6575H55.6639V12.1741ZM60.5202 15.9946C60.5202 15.1754 60.2813 14.5355 59.8035 14.0748C59.3391 13.6012 58.7619 13.3644 58.072 13.3644C57.3954 13.3644 56.8183 13.6012 56.3405 14.0748C55.8761 14.5483 55.6439 15.1946 55.6439 16.0137C55.6439 16.8329 55.8761 17.4792 56.3405 17.9527C56.8183 18.4263 57.3954 18.6631 58.072 18.6631C58.7488 18.6631 59.326 18.4263 59.8035 17.9527C60.2813 17.4664 60.5202 16.8137 60.5202 15.9946Z" fill="#04111D"/>
<path d="M76.2375 15.841C76.2375 16.1481 76.2178 16.4681 76.178 16.8009H68.4754C68.5286 17.4664 68.7474 17.9783 69.1322 18.3367C69.5304 18.6823 70.0145 18.855 70.5853 18.855C71.4345 18.855 72.0247 18.5095 72.3566 17.8184H75.9789C75.7932 18.5223 75.4549 19.1558 74.9638 19.719C74.4863 20.2821 73.8824 20.7237 73.1526 21.0436C72.4229 21.3636 71.6068 21.5236 70.7047 21.5236C69.6167 21.5236 68.648 21.2996 67.7989 20.8517C66.9497 20.4037 66.2862 19.7638 65.8084 18.9318C65.3309 18.0999 65.092 17.1272 65.092 16.0137C65.092 14.9003 65.3242 13.9276 65.7887 13.0956C66.2661 12.2637 66.9296 11.6238 67.7788 11.1758C68.628 10.7279 69.6033 10.5039 70.7047 10.5039C71.7795 10.5039 72.7347 10.7215 73.5705 11.1567C74.4066 11.5918 75.0568 12.2125 75.5212 13.0189C75.9989 13.8252 76.2375 14.7659 76.2375 15.841ZM72.7548 14.977C72.7548 14.4139 72.5557 13.966 72.1575 13.6332C71.7594 13.3004 71.2619 13.1341 70.6649 13.1341C70.0942 13.1341 69.61 13.294 69.2118 13.614C68.8271 13.934 68.5882 14.3883 68.4955 14.977H72.7548Z" fill="#04111D"/>
<path d="M84.8002 10.543C86.1005 10.543 87.1354 10.9525 87.9049 11.7716C88.6878 12.5779 89.0793 13.6914 89.0793 15.1121V21.3706H85.6956V15.5536C85.6956 14.8369 85.5033 14.2802 85.1185 13.8834C84.7337 13.4866 84.2164 13.2883 83.5663 13.2883C82.9159 13.2883 82.3986 13.4866 82.0138 13.8834C81.629 14.2802 81.4366 14.8369 81.4366 15.5536V21.3706H78.0332V10.6581H81.4366V12.0788C81.7816 11.6052 82.246 11.2341 82.8299 10.9653C83.4134 10.6837 84.0702 10.543 84.8002 10.543Z" fill="#04111D"/>
<path d="M96.4997 21.5045C95.4782 21.5045 94.5625 21.3446 93.7531 21.0246C92.9437 20.7046 92.2936 20.2311 91.8027 19.6039C91.325 18.9768 91.0727 18.2217 91.0463 17.3386H94.6685C94.7217 17.8377 94.9007 18.2217 95.2062 18.4905C95.5113 18.7464 95.9092 18.8744 96.4003 18.8744C96.9045 18.8744 97.3024 18.7656 97.5945 18.5481C97.8862 18.3177 98.0324 18.0041 98.0324 17.6074C98.0324 17.2746 97.913 16.9994 97.6741 16.7818C97.4486 16.5642 97.1632 16.3851 96.8182 16.2443C96.4863 16.1035 96.0089 15.9435 95.3852 15.7643C94.4828 15.4955 93.7464 15.2268 93.1759 14.958C92.6054 14.6893 92.1146 14.2925 91.7031 13.7677C91.2918 13.243 91.0861 12.5583 91.0861 11.7136C91.0861 10.4593 91.5572 9.48019 92.4994 8.77626C93.4412 8.05953 94.6685 7.70117 96.1812 7.70117C97.7206 7.70117 98.961 8.05953 99.9031 8.77626C100.845 9.48019 101.35 10.4657 101.416 11.7327H97.7337C97.7072 11.2976 97.5413 10.9584 97.2361 10.7153C96.931 10.4593 96.5395 10.3313 96.0617 10.3313C95.6505 10.3313 95.3189 10.4401 95.0667 10.6577C94.8147 10.8624 94.6886 11.1632 94.6886 11.56C94.6886 11.9951 94.9007 12.3343 95.3256 12.5775C95.7502 12.8206 96.4134 13.083 97.3158 13.3646C98.2181 13.659 98.9479 13.9405 99.505 14.2093C100.076 14.4781 100.567 14.8684 100.978 15.3804C101.389 15.8923 101.595 16.5515 101.595 17.3578C101.595 18.1257 101.389 18.8232 100.978 19.4503C100.58 20.0775 99.9961 20.5766 99.2266 20.9478C98.457 21.319 97.548 21.5045 96.4997 21.5045Z" fill="#04111D"/>
<path d="M114.158 15.841C114.158 16.1481 114.138 16.4681 114.099 16.8009H106.396C106.449 17.4664 106.668 17.9783 107.053 18.3367C107.451 18.6823 107.935 18.855 108.506 18.855C109.355 18.855 109.946 18.5095 110.277 17.8184H113.9C113.714 18.5223 113.376 19.1558 112.885 19.719C112.407 20.2821 111.803 20.7237 111.073 21.0436C110.344 21.3636 109.527 21.5236 108.625 21.5236C107.537 21.5236 106.569 21.2996 105.72 20.8517C104.87 20.4037 104.207 19.7638 103.729 18.9318C103.252 18.0999 103.013 17.1272 103.013 16.0137C103.013 14.9003 103.245 13.9276 103.709 13.0956C104.187 12.2637 104.85 11.6238 105.699 11.1758C106.549 10.7279 107.524 10.5039 108.625 10.5039C109.7 10.5039 110.655 10.7215 111.491 11.1567C112.327 11.5918 112.977 12.2125 113.442 13.0189C113.92 13.8252 114.158 14.7659 114.158 15.841ZM110.675 14.977C110.675 14.4139 110.476 13.966 110.078 13.6332C109.68 13.3004 109.183 13.1341 108.586 13.1341C108.015 13.1341 107.531 13.294 107.132 13.614C106.748 13.934 106.509 14.3883 106.416 14.977H110.675Z" fill="#04111D"/>
<path d="M115.277 15.9946C115.277 14.8939 115.49 13.9276 115.914 13.0956C116.352 12.2637 116.942 11.6238 117.686 11.1758C118.429 10.7279 119.258 10.5039 120.174 10.5039C120.956 10.5039 121.64 10.6575 122.224 10.9647C122.821 11.2718 123.278 11.675 123.597 12.1741V10.6575H127V21.37H123.597V19.8534C123.265 20.3525 122.801 20.7557 122.204 21.0628C121.62 21.37 120.936 21.5236 120.154 21.5236C119.251 21.5236 118.429 21.2996 117.686 20.8517C116.942 20.3909 116.352 19.7446 115.914 18.9126C115.49 18.0679 115.277 17.0952 115.277 15.9946ZM123.597 16.0137C123.597 15.1946 123.358 14.5483 122.88 14.0748C122.416 13.6012 121.845 13.3644 121.169 13.3644C120.492 13.3644 119.915 13.6012 119.437 14.0748C118.973 14.5355 118.741 15.1754 118.741 15.9946C118.741 16.8137 118.973 17.4664 119.437 17.9527C119.915 18.4263 120.492 18.6631 121.169 18.6631C121.845 18.6631 122.416 18.4263 122.88 17.9527C123.358 17.4792 123.597 16.8329 123.597 16.0137Z" fill="#04111D"/>
</svg>
