<svg width="24" height="35" viewBox="0 0 24 35" fill="none" xmlns="http://www.w3.org/2000/svg">
<g clip-path="url(#clip0_86:11213)">
<path d="M0.133789 12.736V24.7612H12.0661H23.9984V12.736V0.710782H12.0661H0.133789V12.736ZM19.9039 7.48974V10.1423H16.5288H13.1481L11.0306 7.6488C9.86652 6.28116 8.86066 5.0905 8.79042 4.99625L8.6677 4.83717H14.2831H19.9039V7.48974ZM7.73759 10.1129C7.73759 10.1304 6.94797 10.1423 5.98274 10.1423H4.22831V8.04371V5.95108L5.98316 8.02025C6.94797 9.15206 7.73759 10.095 7.73759 10.1129ZM13.6454 17.0449C14.944 18.5716 16.1606 20.0041 16.3477 20.228L16.6985 20.6348H10.4632H4.22831V17.4518V14.2687H7.76129H11.2943L13.6454 17.0449ZM19.9039 16.1549C19.9039 17.1925 19.8921 18.0411 19.8807 18.0411C19.8574 18.0411 16.9972 14.687 16.7514 14.3689C16.6752 14.2747 16.7632 14.2687 18.2896 14.2687H19.9039V16.1549Z" fill="black"/>
<path d="M3.15107 30.3734C3.22131 30.6092 4.51957 34.0341 4.54327 34.0575C4.55512 34.0695 4.68376 34.075 4.82975 34.0635L5.08703 34.046L4.37908 32.1479L3.67114 30.2437H3.39058C3.12187 30.2437 3.11045 30.2493 3.15107 30.3734Z" fill="black"/>
<path d="M13.177 32.1591V34.0747H13.7034H14.2298V33.2789V32.4772L14.8324 32.4947L15.4291 32.5122L15.4464 33.2904L15.4638 34.0743H15.9843H16.5107V32.1586V30.243H15.9843H15.4578V30.9505V31.658H14.8438H14.2298V30.9505V30.243H13.7034H13.177V32.1591V32.1591Z" fill="black"/>
<path d="M17.3293 32.1591V34.0747H18.4698H19.6102V33.6619V33.2491H18.9962H18.3822V32.8661V32.4832H18.967H19.5518V32.1002V31.7172H18.967H18.3822V31.3931V31.069H18.9962H19.6102V30.6562V30.2434H18.4698H17.3293V32.1591Z" fill="black"/>
<path d="M20.3125 32.1591V34.0747H20.792H21.2659L21.2308 32.707L21.2016 31.3334L21.6286 32.1586C21.8685 32.6124 22.1901 33.2316 22.342 33.5263L22.6226 34.0743H23.3128H23.997V32.1586V30.243H23.5231H23.0491L23.0724 31.5633C23.0843 32.2942 23.0783 32.8776 23.0606 32.8602C23.0428 32.8427 22.7271 32.2529 22.3585 31.5514L21.6857 30.2724L20.9955 30.2549L20.3113 30.2374V32.1591H20.3125Z" fill="black"/>
<path d="M5.86679 30.6823C5.83759 30.765 5.79062 30.9002 5.77327 30.9829C5.75 31.0712 5.65056 31.1714 5.51007 31.2482C5.33445 31.3365 5.28198 31.3958 5.28198 31.5075C5.28198 31.6371 5.30526 31.655 5.48679 31.655H5.6916V32.6218C5.6916 33.5238 5.69753 33.5946 5.82617 33.7831C6.00728 34.0543 6.35258 34.166 6.79732 34.0957C7.12485 34.0428 7.12485 34.0428 7.14263 33.8185L7.15998 33.5946L6.86757 33.6359C6.61029 33.6713 6.56332 33.6594 6.42875 33.5238C6.27684 33.3707 6.27684 33.3528 6.27684 32.5101V31.6555H6.68646H7.09608V31.4196V31.1838H6.68646H6.27684V30.8597C6.27684 30.5356 6.27684 30.5356 6.10122 30.5356C5.96624 30.5352 5.90784 30.5706 5.86679 30.6823Z" fill="black"/>
<path d="M1.04154 31.1852C0.708088 31.256 0.485928 31.3502 0.485928 31.4151C0.485928 31.5093 0.620493 31.7746 0.66154 31.7746C0.684814 31.7746 0.81938 31.7332 0.953945 31.6863C1.54468 31.4739 2.00677 31.6509 2.00677 32.0872V32.2816L1.39276 32.3465C0.474503 32.4407 0.164325 32.6825 0.170249 33.2719C0.170249 33.773 0.410182 34.0382 0.901473 34.109C1.24677 34.1564 1.60942 34.0502 1.85486 33.8318L2.05374 33.6548L2.12399 33.8672C2.18238 34.0501 2.21158 34.0736 2.39312 34.0736H2.59201V32.9358C2.59201 31.6684 2.55096 31.4914 2.20608 31.2914C1.98942 31.1618 1.38092 31.1085 1.04154 31.1852ZM2.00677 32.8949C2.00677 33.3725 1.72029 33.6612 1.24635 33.6612C0.866351 33.6612 0.66154 33.3431 0.836729 33.013C0.948021 32.8066 1.08809 32.7597 1.93653 32.665C1.9835 32.659 2.00677 32.7414 2.00677 32.8949Z" fill="black"/>
<path d="M8.64438 31.1562C8.61518 31.1681 8.51574 31.1916 8.42222 31.2091C8.17636 31.2679 7.81371 31.6274 7.69692 31.94C7.55643 32.3055 7.55643 32.9537 7.69692 33.3192C7.94278 33.9618 8.67358 34.2565 9.56264 34.0676C9.95449 33.9849 10.0188 33.932 10.0188 33.6847C10.0188 33.4548 10.0247 33.4548 9.64431 33.5725C9.25839 33.6902 8.86062 33.6847 8.62068 33.555C8.40445 33.4373 8.20556 33.1307 8.20556 32.9123C8.20556 32.7767 8.20556 32.7767 9.17079 32.7767H10.136V32.4641C10.136 31.9984 10.0307 31.7097 9.78522 31.4739C9.50975 31.2091 8.94821 31.056 8.64438 31.1562ZM9.28759 31.6927C9.41623 31.7754 9.55079 32.0462 9.55079 32.2232C9.55079 32.288 9.40438 32.3059 8.87796 32.3059C8.45692 32.3059 8.20514 32.2825 8.20514 32.2471C8.20514 32.1055 8.38075 31.7814 8.50347 31.6931C8.6795 31.5745 9.10055 31.569 9.28759 31.6927Z" fill="black"/>
<path d="M12.0713 31.1688C11.9951 31.1863 11.8199 31.3104 11.6854 31.4516C11.4514 31.6874 11.4281 31.6934 11.3989 31.5752C11.3815 31.5104 11.3638 31.3923 11.3638 31.316C11.3638 31.2038 11.3346 31.1863 11.1298 31.1863H10.8958V32.6307V34.0747H11.1882H11.4806V33.2022C11.4806 32.4947 11.4979 32.3002 11.5859 32.1292C11.7146 31.8639 12.1297 31.6401 12.3929 31.687C12.5685 31.7164 12.5799 31.7104 12.6151 31.4985C12.6735 31.133 12.6675 31.127 12.434 31.133C12.3108 31.1394 12.147 31.1569 12.0713 31.1688Z" fill="black"/>
</g>
<defs>
<clipPath id="clip0_86:11213">
<rect width="23.8663" height="33.4129" fill="white" transform="translate(0.133789 0.710938)"/>
</clipPath>
</defs>
</svg>
