<svg width="104" height="22" viewBox="0 0 104 22" fill="none" xmlns="http://www.w3.org/2000/svg">
<g clip-path="url(#clip0_86:11224)">
<path d="M7.48963 7.27884C4.47661 6.1404 2.97517 5.5114 2.97517 3.81675C2.97517 1.93495 4.38023 0.957663 6.01355 0.957663C8.18962 0.957663 9.89396 2.86025 11.6592 6.32234H11.7048L11.4157 0.8433C11.1215 0.910878 10.7613 0.957663 10.3961 0.957663C9.05701 0.957663 8.17441 0.609375 6.26718 0.609375C3.9085 0.609375 0.870117 2.00253 0.870117 5.60497C0.870117 7.81426 1.82373 9.34777 5.40486 10.5798C8.30629 11.6246 10.3048 12.4356 10.3048 14.1614C10.3048 16.0432 9.10266 17.0205 7.38311 17.0205C3.95922 17.0205 2.21431 13.2309 1.21504 10.9073H1.16939V17.322C1.60055 17.0673 2.18895 16.8542 3.16285 16.8802C4.34473 16.9009 5.77008 17.3688 7.13456 17.3688C9.40193 17.3688 12.4403 16.1836 12.4403 12.3472C12.4352 9.60249 10.4874 8.34449 7.48963 7.27884Z" fill="black"/>
<path d="M23.8129 14.2722V5.49219H19.5926V5.53897C20.5209 6.09519 20.5919 7.09847 20.5919 8.33048V15.5821C19.9376 16.024 19.41 16.1176 18.9789 16.1176C18.2332 16.1176 17.9339 15.5146 17.9339 14.7712V5.49219H13.5159V5.53897C14.6724 6.16797 14.718 7.09847 14.718 8.33048V15.3222C14.718 16.3463 15.2202 17.2508 16.7571 17.2508C18.1622 17.2508 19.6789 16.4867 20.5919 15.9252V17.1105H25.015V17.0637C23.8788 16.4399 23.8129 15.5042 23.8129 14.2722Z" fill="black"/>
<path d="M31.1065 5.49219H25.8464V5.53897C27.0029 6.16797 27.0486 7.09847 27.0486 8.33048V18.462C27.0486 19.694 27.0029 20.6245 25.8464 21.2535V21.3003H31.4718V21.2483C30.3152 20.6193 30.2696 19.6888 30.2696 18.4568V17.1105H30.792C33.5616 17.1105 36.7572 15.3222 36.7572 10.9504C36.7521 7.16085 34.3732 5.49219 31.1065 5.49219ZM30.9036 16.783H30.2696V5.81448H30.3152C32.0145 5.81448 33.4449 8.85551 33.4449 12.6451C33.4449 16.2319 32.3087 16.783 30.9036 16.783Z" fill="black"/>
<path d="M43.3868 5.27979C40.9825 5.27979 38.1724 7.27595 38.1724 11.3254C38.1724 15.4373 40.7796 17.3243 43.118 17.3243C45.5223 17.3243 47.0643 15.141 47.6324 13.254L47.5868 13.2332C46.6585 14.1637 45.5223 14.72 44.5738 14.72C43.0317 14.72 41.1702 13.5555 41.0586 10.3274H47.815C47.6274 7.14079 45.6998 5.27979 43.3868 5.27979ZM41.0535 9.99987C41.0535 6.81849 42.1644 5.5605 42.91 5.5605C43.9549 5.5605 44.7462 7.34872 44.8375 9.99987H41.0535Z" fill="black"/>
<path d="M54.1607 5.49219H48.9006V5.53897C50.0571 6.16797 50.1028 7.09847 50.1028 8.33048V14.2826C50.1028 15.5146 50.0571 16.4451 48.9006 17.0741V17.1209H54.5209V17.0741C53.3644 16.4451 53.3187 15.5146 53.3187 14.2826V5.7729H53.3644C54.4549 5.7729 54.9977 7.72227 54.8861 9.97835L57.61 8.44484C57.2701 6.04841 55.86 5.49219 54.1607 5.49219Z" fill="black"/>
<path d="M70.3569 13.5324L67.5011 8.88508C69.7685 8.37045 70.9706 7.00329 70.9706 5.20986C70.9706 2.25721 68.3837 0.843262 66.0707 0.843262H57.9954V0.890047C59.0403 1.37869 59.6946 2.44955 59.6946 3.68155V14.281C59.6946 15.513 59.0403 16.5838 57.9954 17.0725V17.1192H64.9344V17.0725C63.8895 16.5838 63.2555 15.513 63.2555 14.281V8.99945C64.0011 9.06702 64.1837 9.55567 65.2946 11.6974L68.3989 17.1088H73.1416V17.0621C72.3757 16.641 71.559 15.4818 70.3569 13.5324ZM64.5033 8.81231C64.0721 8.81231 63.641 8.79151 63.2555 8.71874V1.16556H63.6663C65.6598 1.16556 67.3185 3.00057 67.3185 5.46458C67.3185 7.9078 65.9591 8.81231 64.5033 8.81231Z" fill="black"/>
<path d="M82.3789 14.2707V8.04832C82.3789 6.58239 81.6332 5.32959 79.3861 5.32959C78.047 5.32959 76.7333 5.53752 75.7137 5.72466L73.8318 8.30303L73.8775 8.34982C74.6941 7.60646 76.7586 5.69867 77.9811 5.69867C78.8434 5.69867 79.2948 6.50961 79.2948 7.4869C79.2948 8.85926 78.5035 9.48306 76.3275 10.8086C74.3543 11.9938 73.3601 12.7372 73.3601 14.4579C73.3601 15.6899 74.2224 17.2234 76.2412 17.2234C77.2608 17.2234 78.4883 16.3397 79.2086 15.7107V17.1038H83.5861V17.057C82.4245 16.4384 82.3789 15.5027 82.3789 14.2707ZM79.2086 14.5046C79.2086 15.5027 78.6405 16.0849 77.9405 16.0849C77.2405 16.0849 76.3985 15.1336 76.3985 13.7145C76.3985 11.3181 76.9666 10.9698 79.2137 9.08798L79.2086 14.5046Z" fill="black"/>
<path d="M89.7496 5.49219H84.4895V5.53897C85.646 6.16797 85.6917 7.09847 85.6917 8.33048V14.2826C85.6917 15.5146 85.646 16.4451 84.4895 17.0741V17.1209H90.1148V17.0741C88.9583 16.4451 88.9127 15.5146 88.9127 14.2826V5.7729H88.9583C90.0489 5.7729 90.5916 7.72227 90.48 9.97835L93.2039 8.44484C92.8539 6.04841 91.454 5.49219 89.7496 5.49219Z" fill="black"/>
<path d="M100.254 14.7162C98.7117 14.7162 96.8502 13.5518 96.7386 10.3236H103.495C103.312 7.14225 101.385 5.28125 99.0719 5.28125C96.6676 5.28125 93.8574 7.27741 93.8574 11.3269C93.8574 15.4388 96.4647 17.3258 98.8031 17.3258C101.207 17.3258 102.749 15.1425 103.318 13.2555L103.272 13.2347C102.344 14.1548 101.207 14.7162 100.254 14.7162ZM98.6001 5.55676C99.6451 5.55676 100.436 7.34499 100.528 9.99614H96.7386C96.7386 6.81476 97.8494 5.55676 98.6001 5.55676Z" fill="black"/>
</g>
<defs>
<clipPath id="clip0_86:11224">
<rect width="102.625" height="20.6842" fill="white" transform="translate(0.870117 0.609375)"/>
</clipPath>
</defs>
</svg>
