<svg width="49" height="83" viewBox="0 0 49 83" fill="none" xmlns="http://www.w3.org/2000/svg">
<path d="M19.4992 82.1554C35.7529 82.1554 48.2362 68.209 48.2362 48.939C48.2362 29.7619 35.7529 15.7227 19.4992 15.7227C12.9641 15.7227 7.35008 17.4668 2.49075 21.1355V22.9708C7.51798 19.2093 13.0473 17.2812 19.4992 17.2812C34.3282 17.2812 46.0584 30.1278 46.6452 47.5608H7.63534V49.1211H46.7284C46.6452 67.1968 34.664 80.5933 19.4992 80.5933C12.2942 80.5933 5.927 78.2082 0.98291 73.6201V75.6392C5.84223 80.0452 12.1263 82.1554 19.4992 82.1554Z" fill="black"/>
<path d="M26.0145 37.8687C24.2377 37.8687 23.0966 35.8193 23.0966 33.3538C23.0966 30.8866 24.2377 28.8372 26.0145 28.8372C27.806 28.8372 28.9487 30.8866 28.9487 33.3538C28.9487 35.8193 27.8076 37.8687 26.0145 37.8687ZM26.0145 39.6594C28.9324 39.6594 30.6929 36.7423 30.6929 33.3538C30.6929 29.9851 28.9324 27.0483 26.0145 27.0483C23.1129 27.0483 21.3524 29.9833 21.3524 33.3538C21.3524 36.7405 23.1129 39.6594 26.0145 39.6594ZM11.9011 39.4326H19.6245V37.7313H14.4229L16.8175 35.2301C18.5144 33.4752 19.2431 32.3648 19.2431 30.6278C19.2431 28.4212 17.4989 27.0501 15.4694 27.0501C14.0577 27.0501 12.9639 27.6053 12.1864 28.3177V30.3154C13.0112 29.4638 13.9632 28.805 15.295 28.805C16.6105 28.805 17.4989 29.6387 17.4989 30.8545C17.4989 32.1042 16.8485 32.9914 15.3895 34.4678L11.9011 38.0455V39.4326V39.4326Z" fill="black"/>
<path d="M25.6609 69.1706H27.3742V57.013H25.8516L23.2353 58.6287V60.4871L25.6609 59.0625V69.1706V69.1706ZM12.4033 69.1706H20.1267V67.4692H14.9251L17.3197 64.9681C19.0166 63.2132 19.7453 62.1028 19.7453 60.3657C19.7453 58.1592 18.0011 56.7881 15.9716 56.7881C14.5599 56.7881 13.4661 57.3433 12.6886 58.0556V60.0533C13.5134 59.2017 14.4654 58.543 15.7972 58.543C17.1127 58.543 18.0011 59.3767 18.0011 60.5925C18.0011 61.8421 17.3507 62.7294 15.8917 64.2058L12.4033 67.7834V69.1706V69.1706Z" fill="black"/>
<path d="M35.8806 6.3043H37.2027L38.9697 3.91207V6.3043H39.9885V3.91207L41.7555 6.3043H43.084L40.9845 3.49254L42.8721 0.882506H41.6202L39.9869 3.16762V0.884291H38.968V3.16941L37.3412 0.884291H36.0893L37.9704 3.49432L35.8806 6.3043ZM31.7435 4.12809L32.4721 2.24644L33.1926 4.12809H31.7435ZM29.8705 6.3043H30.9382L31.4256 5.04928H33.5186L34.006 6.3043H35.0884L32.9677 0.852156H31.9912L29.8705 6.3043ZM25.4659 0.884291V1.88224H27.0292V6.3043H28.048V1.88224H29.6178V0.884291H25.4659ZM19.7736 6.3043H20.6294L23.055 2.74988V6.3043H24.0657V0.884291H23.1887L20.7924 4.41551V0.884291H19.7736V6.3043V6.3043ZM13.1554 6.3043H14.1742V2.59456L15.3332 4.33696H15.8989L17.0367 2.59456V6.3043H18.0408V0.884291H17.0367L15.6006 3.13013L14.1661 0.884291H13.1554V6.3043ZM8.87806 3.2069V1.85904H9.95229C10.4332 1.85904 10.7299 2.09112 10.7299 2.53208C10.7299 2.96589 10.4332 3.20511 9.95229 3.20511H8.87806V3.2069ZM7.85925 6.3043H8.87806V4.16022H10.024C11.1064 4.16022 11.7487 3.47112 11.7487 2.51779C11.7487 1.56447 11.1048 0.884291 10.0224 0.884291H7.85925V6.3043ZM3.63892 6.4132C5.15165 6.4132 6.30413 5.15103 6.30413 3.5943C6.30413 2.03042 5.16633 0.775391 3.65196 0.775391C3.1776 0.775391 2.72607 0.898573 2.34299 1.12351V2.21609C2.69673 1.96794 3.11403 1.80548 3.665 1.80548C4.37899 1.80548 4.98049 2.30892 5.15002 3.04444H3.27052V3.9817H5.20056C5.05874 4.81005 4.40833 5.38312 3.64544 5.38312C3.05209 5.38312 2.6413 5.25993 2.25171 4.91895V6.02581C2.63478 6.27396 3.1287 6.4132 3.63892 6.4132Z" fill="black"/>
</svg>
