<svg width="120" height="15" viewBox="0 0 120 15" fill="none" xmlns="http://www.w3.org/2000/svg">
<g clip-path="url(#clip0_86:11194)">
<path d="M38.408 6.90556L40.2669 2.44462L42.144 6.90556H38.408ZM46.3338 10.767C45.6215 10.718 45.3953 10.5401 44.8785 9.35522L40.8507 0.140625H40.5253L37.1623 8.10588C36.855 8.82019 36.3536 10.0051 35.9807 10.4099C35.6902 10.718 35.4151 10.7502 35.1567 10.767V11.0752H38.3578V10.767C38.0184 10.767 37.2586 10.767 37.2586 10.0849C37.2586 9.90566 37.3075 9.67876 37.3885 9.46867L38.1315 7.57084H42.3702L43.0336 9.12832C43.13 9.35522 43.3408 9.89025 43.3408 10.1494C43.3408 10.7502 42.8073 10.7656 42.2096 10.7656V11.0738H46.3338V10.767V10.767ZM30.8035 11.0752H22.0691V10.767C23.104 10.7026 23.4769 10.5555 23.4769 9.3062V2.10288C23.4769 0.82132 23.0886 0.724678 22.0691 0.643443V0.335309H30.6583L30.7085 2.65471H30.3035C30.0605 1.21069 29.6401 0.951576 27.8427 0.951576H25.6598C25.3204 0.951576 25.1263 0.951576 25.1263 1.50201V5.10438H27.6178C29.0577 5.10438 29.217 4.71501 29.3957 3.56371H29.7686V7.32714H29.3957C29.2016 6.03018 28.9586 5.80188 27.6178 5.78647L25.1263 5.75426V9.7768C25.1263 10.4421 25.1263 10.4589 27.5354 10.4589C29.5591 10.4589 30.3664 9.97149 31.0786 8.33278H31.5325L30.8035 11.0752ZM10.3893 10.767C11.7482 10.7026 11.8124 10.3454 11.8124 9.12832V2.10288C11.8124 0.903956 11.5862 0.740085 10.3893 0.643443V0.335309H14.8864V0.643443C13.6559 0.740085 13.4632 0.951576 13.4632 2.10288V5.25144H18.3639V2.10288C18.3639 0.903956 18.1377 0.740085 16.9408 0.643443V0.335309H21.4378V0.643443C20.2088 0.740085 20.0147 0.951576 20.0147 2.10288V9.3062C20.0147 10.3763 20.1767 10.6858 21.4378 10.767V11.0752H16.9408V10.767C18.2997 10.7026 18.3639 10.3454 18.3639 9.12832V5.96435H13.4618V9.3062C13.4618 10.3763 13.6238 10.6858 14.885 10.767V11.0752H10.3879V10.767H10.3893ZM7.624 11.0752H2.90067V10.767C4.3727 10.7026 4.42158 10.3286 4.42158 9.12832V1.0174H3.5487C1.76942 1.0174 1.33228 1.32554 0.976148 3.09451H0.587891L0.685653 0.335309H9.80829L9.90466 3.0931H9.5164C9.17703 1.30873 8.72453 1.0174 6.94525 1.0174H6.07097V9.3062C6.07097 10.4099 6.2651 10.718 7.624 10.767V11.0752ZM62.1713 11.0752H59.0024V10.767C60.473 10.7026 60.5233 10.3286 60.5233 9.12832V1.0174H59.6504C57.8698 1.0174 57.4326 1.32554 57.0779 3.09451H56.6896L56.786 0.33671H62.1727L62.1713 11.0752ZM49.8923 1.52022C49.8923 1.04962 50.039 0.93617 50.8951 0.93617C51.5585 0.93617 53.6771 0.985191 53.6771 3.14353C53.6771 5.46293 51.2512 5.49515 49.8909 5.51195V1.52022H49.8923ZM57.2525 10.767C56.5891 10.7348 56.1994 10.4421 55.8447 10.0051L52.5138 5.89992C53.3378 5.73745 55.4411 5.34948 55.4411 3.17434C55.4411 0.677057 52.7721 0.335309 51.3322 0.335309H46.8673V0.643443C47.9999 0.756892 48.2429 0.903956 48.2429 2.10288V9.12832C48.2429 10.344 48.1787 10.6858 46.8673 10.767V11.0752H51.3476V10.767C50.0543 10.7026 49.8909 10.3945 49.8909 9.3062V6.11141L50.7973 6.0792L54.6478 11.0766H57.2525V10.767V10.767Z" fill="#969696"/>
<path d="M71.7825 0.335938H64.4741V1.8598H71.7825V0.335938Z" fill="#231F20"/>
<path d="M71.7825 4.94385H64.4741V6.46771H71.7825V4.94385Z" fill="#231F20"/>
<path d="M71.7825 9.55273H64.4741V11.0766H71.7825V9.55273Z" fill="#231F20"/>
<path d="M75.4067 7.75966L73.2182 4.93604H74.9109L76.267 6.73581L77.6385 4.93604H79.3884L77.1273 7.75966L79.7543 11.0959H78.0323L76.267 8.79891L74.4445 11.0959H72.6931L75.4067 7.75966Z" fill="#231F20"/>
<path d="M85.0417 7.10076C84.6618 6.44247 83.9901 6.06151 83.2611 6.06151C82.3421 6.06151 81.4231 6.7352 81.4231 8.02235C81.4231 9.10502 82.1382 9.99721 83.2471 9.99721C83.9468 9.99721 84.6479 9.63165 85.0417 8.94395V10.8306C84.356 11.2255 83.8015 11.2844 83.349 11.2844C82.2848 11.2844 81.4818 11.0056 80.8408 10.3474C80.3156 9.80533 79.9651 9.0448 79.9651 8.03496C79.9651 7.18619 80.2137 6.32342 80.9581 5.60631C81.7164 4.8892 82.4748 4.77295 83.3071 4.77295C83.8323 4.77295 84.416 4.83177 85.0431 5.21134V7.10076H85.0417Z" fill="#231F20"/>
<path d="M86.1445 0.335938H87.5747V5.46356C88.1878 4.83469 88.8581 4.77586 89.2226 4.77586C90.3455 4.77586 90.8567 5.36132 91.0312 5.60922C91.4111 6.16527 91.4251 6.88238 91.4251 7.32077V11.0954H89.995V7.45242C89.995 7.08686 89.995 6.69189 89.7184 6.38376C89.5578 6.20868 89.2813 6.06162 88.9154 6.06162C88.435 6.06162 88.0551 6.29552 87.8651 6.57424C87.6612 6.86697 87.5733 7.33477 87.5733 8.12471V11.0954H86.1445V0.335938Z" fill="#231F20"/>
<path d="M97.3644 4.93841H98.7945V11.0983H97.3644V10.454C96.7373 11.1851 95.9636 11.2888 95.5265 11.2888C93.6299 11.2888 92.5503 9.70888 92.5503 8.01135C92.5503 6.00708 93.9218 4.77734 95.5418 4.77734C95.9929 4.77734 96.782 4.89499 97.3644 5.65552V4.93841ZM94.0084 8.03936C94.0084 9.10802 94.6801 10.0002 95.715 10.0002C96.62 10.0002 97.4524 9.34192 97.4524 8.05476C97.4524 6.70878 96.6214 6.0645 95.715 6.0645C94.6801 6.0645 94.0084 6.94268 94.0084 8.03936Z" fill="#231F20"/>
<path d="M100.225 4.93841H101.655V5.50846C102.268 4.82076 102.968 4.77734 103.319 4.77734C104.457 4.77734 104.937 5.34739 105.127 5.6107C105.36 5.94685 105.507 6.37123 105.507 7.32225V11.0969H104.077V7.6738C104.077 6.21857 103.493 6.0645 102.954 6.0645C102.312 6.0645 101.655 6.27319 101.655 8.143V11.0983H100.225V4.93841V4.93841Z" fill="#231F20"/>
<path d="M111.445 4.93841V5.6107C110.92 4.98183 110.234 4.77734 109.622 4.77734C108.002 4.77734 106.631 6.00568 106.631 8.01134C106.631 9.72289 107.71 11.2888 109.607 11.2888C110.044 11.2888 110.818 11.1865 111.445 10.4106V11.2145C111.445 11.7412 111.387 13.1754 109.885 13.1754C108.964 13.1754 108.353 12.5549 108.304 11.6711H106.92C106.953 13.3771 108.203 14.4625 109.885 14.4625C111.051 14.4625 111.899 13.9219 112.351 13.2916C112.862 12.5745 112.876 11.7846 112.876 10.9512V4.93841H111.445ZM109.795 10.0002C108.76 10.0002 108.089 9.10802 108.089 8.03936C108.089 6.94268 108.76 6.0645 109.795 6.0645C110.7 6.0645 111.531 6.70878 111.531 8.05476C111.533 9.34192 110.7 10.0002 109.795 10.0002Z" fill="#231F20"/>
<path d="M119.92 9.48459C119.73 9.85015 119.439 10.2605 119.118 10.5378C118.534 11.0505 117.731 11.2844 117.061 11.2844C115.529 11.2844 113.997 10.2745 113.997 8.05037C113.997 6.11893 115.164 4.77295 116.988 4.77295C118.082 4.77295 118.856 5.27016 119.293 5.89904C119.818 6.65957 119.861 7.68341 119.861 8.1372V8.3571H115.455C115.498 9.48319 116.36 9.99581 117.118 9.99581C117.527 9.99581 117.863 9.85015 118.096 9.65966C118.344 9.46918 118.578 9.16245 118.723 8.8109L119.92 9.48459ZM118.403 7.18759C118.243 6.4999 117.688 6.06151 116.988 6.06151C116.287 6.06151 115.748 6.5153 115.558 7.18759H118.403Z" fill="#231F20"/>
</g>
<defs>
<clipPath id="clip0_86:11194">
<rect width="119.332" height="14.3198" fill="white" transform="translate(0.587891 0.140625)"/>
</clipPath>
</defs>
</svg>
