<svg width="161" height="52" viewBox="0 0 161 52" fill="none" xmlns="http://www.w3.org/2000/svg">
<g clip-path="url(#clip0_86:13491)">
<path d="M4.34271 16.4741H0V33.098H4.34271V16.4741Z" fill="black"/>
<path d="M10.789 12.1621H6.44629V33.0977H10.789V12.1621Z" fill="#636466"/>
<path d="M12.8921 7.92977V33.0982H17.2348V6.87354C15.8192 7.9613 13.9798 8.01648 12.8921 7.92977Z" fill="#A7A9AC"/>
<path d="M22.9934 5.64446C24.8888 3.77634 24.233 0.111041 24.233 0.111041C24.233 0.111041 20.5141 -0.535314 18.6187 1.33281C16.7232 3.20093 17.387 6.85835 17.387 6.85835C17.387 6.85835 21.1059 7.5047 22.9934 5.64446Z" fill="#A7A9AC"/>
<path d="M158.337 20.0368C156.865 20.0368 155.674 18.8623 155.674 17.4119C155.674 15.9616 156.865 14.7871 158.337 14.7871C159.808 14.7871 161 15.9616 161 17.4119C161 18.8623 159.808 20.0368 158.337 20.0368ZM158.337 15.0157C157.017 15.0157 155.938 16.1113 155.938 17.4119C155.938 18.7125 157.017 19.8082 158.337 19.8082C159.656 19.8082 160.736 18.7125 160.736 17.4119C160.736 16.1113 159.656 15.0157 158.337 15.0157ZM158.865 18.8623L158.449 17.5538H157.953V18.8623H157.697V15.9537H158.401C158.577 15.9537 158.737 16.001 158.849 16.1113C159.009 16.2611 159.041 16.4345 159.041 16.7577C159.041 17.1282 158.993 17.2622 158.841 17.4041C158.793 17.4513 158.745 17.4829 158.689 17.5065L159.129 18.8623H158.865V18.8623ZM158.673 16.2848C158.609 16.2217 158.521 16.1823 158.417 16.1823H157.961V17.3331H158.417C158.521 17.3331 158.609 17.2937 158.673 17.2306C158.777 17.1203 158.793 17.0099 158.793 16.7577C158.793 16.5055 158.777 16.3951 158.673 16.2848Z" fill="black"/>
<path d="M36.4291 24.4198H29.879V43.5424H27.5117V22.3389H36.4291V24.4198Z" fill="black"/>
<path d="M50.8885 42.3768C50.0008 43.3779 49.0251 43.8745 47.5455 43.8745C46.5298 43.8745 45.77 43.6696 45.0903 43.2045C44.7064 42.9523 44.2025 42.4163 43.9066 41.9512V51.9933H41.5393V22.3398H43.8666V24.0503C44.0746 23.5931 44.7144 23.0099 45.0903 22.7576C45.77 22.3004 46.5298 22.0088 47.5455 22.0088C48.8571 22.0088 50.0008 22.5054 50.8885 23.5064C52.2001 25.0041 52.496 27.6762 52.496 32.9653C52.496 38.2544 52.2001 40.8792 50.8885 42.3768ZM49.0251 25.0435C48.5612 24.4996 47.8414 24.0819 46.9537 24.0819C46.1539 24.0819 45.4341 24.3735 44.9223 24.8701C44.2425 25.4928 43.9066 26.415 43.9066 27.7866V38.0809C43.9066 39.4525 44.2425 40.3747 44.9223 40.9974C45.4261 41.494 46.1459 41.7857 46.9537 41.7857C47.8414 41.7857 48.5612 41.4073 49.0251 40.8713C50.0008 39.7441 50.1208 37.7499 50.1208 32.9574C50.1287 28.1728 50.0008 26.1313 49.0251 25.0435Z" fill="black"/>
<path d="M67.7157 43.5424V27.3757L61.0777 43.5424H58.8384V22.3389H61.2057V38.5056L67.8437 22.3389H70.083V43.5424H67.7157V43.5424Z" fill="black"/>
<path d="M85.3827 43.5424V33.6737H79.5924V43.5503H77.2251V22.3467H79.5924V31.5928H85.3827V22.3389H87.75V43.5424H85.3827V43.5424Z" fill="black"/>
<path d="M104.113 42.2103C103.225 43.0853 101.954 43.5424 99.8022 43.5424H94.8997V22.3389H99.7622C101.794 22.3389 103.017 22.6305 103.993 23.5922C105.049 24.5538 105.433 25.7598 105.433 27.8408C105.433 29.4251 105.009 30.7572 103.953 31.6716C103.617 31.9632 103.105 32.2549 102.681 32.4204C103.185 32.5859 103.777 32.917 104.121 33.2087C105.393 34.2097 105.688 35.7941 105.688 37.5834C105.672 40.09 105.121 41.2093 104.113 42.2103ZM99.7942 24.4198H97.259V31.5849H99.7942C101.826 31.5849 103.049 30.5838 103.049 27.959C103.049 25.2159 101.826 24.4198 99.7942 24.4198ZM99.7942 33.4609H97.259V41.4615H99.7942C101.994 41.4615 103.305 40.626 103.305 37.5045C103.305 34.5881 101.994 33.4609 99.7942 33.4609Z" fill="black"/>
<path d="M113.406 33.2959C113.406 37.6312 113.534 39.7516 114.502 40.8394C114.966 41.3832 115.725 41.801 116.661 41.801C117.509 41.801 118.309 41.5488 118.86 40.9655C119.492 40.2955 119.788 39.255 119.788 37.9623H122.116C122.116 40.0038 121.652 41.2965 120.548 42.4237C119.572 43.4248 118.221 43.8819 116.661 43.8819C115.014 43.8819 113.742 43.3381 112.774 42.337C111.383 40.8394 111.039 38.0017 111.039 32.9649C111.039 27.8807 111.335 25.0904 112.774 23.5454C113.702 22.5444 114.974 22.0005 116.621 22.0005C118.269 22.0005 119.54 22.5444 120.468 23.5454C121.908 25.0904 122.203 27.8807 122.203 33.2959H113.406V33.2959ZM118.733 25.0431C118.269 24.4992 117.589 24.0814 116.621 24.0814C115.645 24.0814 114.934 24.4992 114.462 25.0431C113.614 26.0047 113.446 27.7546 113.406 31.4199H119.828C119.788 27.7546 119.58 26.0047 118.733 25.0431Z" fill="black"/>
<path d="M137.039 42.503C136.111 43.4173 134.88 43.8745 133.232 43.8745C131.585 43.8745 130.185 43.2912 129.257 42.2113C127.946 40.7137 127.65 37.9627 127.65 32.9653C127.65 27.9679 127.946 25.2169 129.257 23.7193C130.185 22.5921 131.585 22.0088 133.232 22.0088C134.88 22.0088 136.063 22.3793 137.039 23.3409C138.311 24.5469 138.519 26.218 138.559 27.9679H136.231C136.231 26.888 136.191 25.8002 135.384 24.9647C134.88 24.3814 134.16 24.0897 133.272 24.0897C132.345 24.0897 131.537 24.4681 131.073 25.0514C130.145 26.218 130.017 28.425 130.017 32.9653C130.017 37.5055 130.145 39.6732 131.073 40.8398C131.537 41.4231 132.345 41.8014 133.272 41.8014C134.072 41.8014 134.792 41.5098 135.344 40.9659C136.063 40.2171 136.231 39.216 136.231 37.9627H138.559C138.519 39.9648 138.135 41.4231 137.039 42.503Z" fill="black"/>
<path d="M149.044 24.4198V43.5424H146.676V24.4198H142.446V22.3389H153.306V24.4198H149.044Z" fill="black"/>
</g>
<defs>
<clipPath id="clip0_86:13491">
<rect width="161" height="52" fill="white"/>
</clipPath>
</defs>
</svg>
