<svg width="29" height="30" viewBox="0 0 29 30" fill="none" xmlns="http://www.w3.org/2000/svg">
<path d="M22.9117 0.626953H5.72792C2.56448 0.626953 0 3.19143 0 6.35487V23.5386C0 26.7021 2.56448 29.2666 5.72792 29.2666H22.9117C26.0751 29.2666 28.6396 26.7021 28.6396 23.5386V6.35487C28.6396 3.19143 26.0751 0.626953 22.9117 0.626953Z" fill="#C0C0C0"/>
<path d="M19.7635 14.8437C20.6656 14.6093 21.4683 13.9345 21.4683 12.5779C21.4683 10.3191 19.5504 9.79346 17.0927 9.79346H7.30469V19.9651H11.4245V16.513H16.3114C17.0644 16.513 17.5047 16.8113 17.5047 17.5501V19.9651H21.6245V17.4222C21.6245 16.037 20.8432 15.1634 19.7635 14.8437ZM16.3824 13.7712H11.4245V12.7767H16.3824C16.9223 12.7767 17.2489 12.8478 17.2489 13.274C17.2489 13.7001 16.9223 13.7712 16.3824 13.7712Z" fill="black"/>
</svg>
