<svg width="73" height="79" viewBox="0 0 73 79" fill="none" xmlns="http://www.w3.org/2000/svg">
<g clip-path="url(#clip0_2:98)">
<path d="M67.9854 76.2623C67.984 76.2976 67.9612 76.33 67.927 76.3568C67.9612 76.3286 67.984 76.2976 67.9854 76.2623Z" fill="white"/>
<path d="M70.12 44.9139C70.0887 44.7813 70.0702 44.6486 70.0574 44.5145C70.0688 44.6472 70.0887 44.7813 70.12 44.9139Z" fill="white"/>
<path d="M57.4033 48.482C57.4218 48.5427 57.4489 48.6006 57.4845 48.6471C57.4489 48.6006 57.4218 48.5441 57.4033 48.482Z" fill="white"/>
<path d="M59.8089 32.7287C59.7761 32.6412 59.742 32.5552 59.7007 32.455C59.742 32.5537 59.7761 32.6412 59.8089 32.7287Z" fill="white"/>
<path d="M59.875 30.6398C59.9049 30.6849 59.9177 30.74 59.9277 30.7992C59.9177 30.7414 59.9035 30.6863 59.875 30.6398Z" fill="white"/>
<path d="M70.403 34.188C70.3916 34.5662 70.3845 34.9459 70.3845 35.3241C70.3845 34.9445 70.3931 34.5662 70.403 34.188Z" fill="white"/>
<path d="M56.2559 25.682C56.2858 25.4957 56.31 25.3108 56.3214 25.1231C56.31 25.3108 56.2858 25.4957 56.2559 25.682Z" fill="white"/>
<path d="M58.8389 72.1381C58.8304 72.3512 58.8175 72.5629 58.8147 72.776C58.8175 72.5643 58.8289 72.3512 58.8389 72.1381Z" fill="white"/>
<path d="M58.6265 68.5353C58.6492 68.5988 58.6834 68.6581 58.7375 68.7146C58.682 68.6581 58.6478 68.5974 58.6265 68.5353Z" fill="white"/>
<path d="M69.744 33.5586C69.7483 33.3794 69.7198 33.1987 69.707 33.0195C69.7198 33.2001 69.7483 33.3794 69.744 33.5586Z" fill="white"/>
<path d="M64.4868 43.9795C64.6506 44.3747 64.8314 44.7614 65.025 45.141C64.8314 44.7614 64.6506 44.3747 64.4868 43.9795Z" fill="white"/>
<path d="M60.6631 67.8227C60.122 67.1029 59.5781 66.3845 59.0256 65.6732C59.5781 66.3845 60.122 67.1029 60.6631 67.8227Z" fill="white"/>
<path d="M67.4952 46.9899C67.293 47.1988 67.0367 47.3286 66.8103 47.4994C67.0367 47.3301 67.293 47.1988 67.4952 46.9899Z" fill="white"/>
<path d="M69.7261 39.6582C69.7119 39.5213 69.6948 39.3859 69.6934 39.249C69.6948 39.3859 69.7119 39.5228 69.7261 39.6582Z" fill="white"/>
<path d="M72.9933 45.4065C72.9861 45.3811 72.9776 45.3557 72.9662 45.3303C72.9434 45.2795 72.9135 45.2287 72.8765 45.1878C72.858 45.1666 72.8395 45.1483 72.8181 45.1342C72.8039 45.1229 72.7882 45.1158 72.774 45.1102C72.7597 45.1045 72.7455 45.1017 72.7313 45.1017C72.717 45.1003 72.7028 45.1017 72.69 45.1059C72.6757 45.1087 72.6629 45.1144 72.6501 45.12C72.6245 45.1327 72.6003 45.1497 72.5775 45.1708C72.5561 45.1906 72.5362 45.2132 72.5191 45.2358C72.4935 45.2696 72.4693 45.3063 72.4465 45.3416C72.4009 45.415 72.3596 45.4912 72.3198 45.5674C72.2998 45.6055 72.2799 45.6436 72.2585 45.6817C72.2272 45.7396 72.1959 45.7989 72.166 45.8582C72.1062 45.9767 72.0464 46.0953 71.9809 46.2096C71.9481 46.2674 71.914 46.3239 71.8784 46.3789C71.8357 46.4439 71.7844 46.4918 71.7303 46.5229C71.7032 46.5384 71.6748 46.5497 71.6463 46.5568C71.6178 46.5638 71.5893 46.5681 71.5594 46.5666C71.5309 46.5652 71.501 46.561 71.4726 46.5525C71.3857 46.5257 71.3017 46.4636 71.2319 46.3662C71.2092 46.3338 71.1878 46.2985 71.1707 46.2618C71.1536 46.2251 71.1394 46.1856 71.1308 46.1475C71.0881 45.9711 71.0454 45.7961 71.0112 45.6182C70.9998 45.559 70.9899 45.4997 70.9813 45.4404C70.9073 44.9112 70.8304 44.3819 70.7692 43.8513C70.7492 43.6748 70.7293 43.497 70.7137 43.3206C70.6966 43.1414 70.6837 42.9621 70.6724 42.7829C70.6382 42.2438 70.6197 41.7046 70.5855 41.1655C70.5371 40.3808 70.4574 39.5961 70.4317 38.81C70.3947 37.6499 70.3847 36.4898 70.3833 35.3283C70.3833 34.9501 70.3904 34.5704 70.4018 34.1922C70.4132 33.814 70.426 33.4343 70.4374 33.0561C70.4445 32.7908 70.4474 32.5268 70.446 32.2629C70.4417 31.4698 70.399 30.678 70.3377 29.8863C70.3249 29.7141 70.3107 29.5419 70.2979 29.3697C70.2609 28.8419 70.2224 28.3155 70.1868 27.7876C70.1526 27.3064 70.1384 26.8237 70.0843 26.3439C70.0174 25.7525 69.9562 25.1626 69.9234 24.5712C69.8907 23.9799 69.8878 23.3857 69.9348 22.7901C69.9405 22.7097 69.9448 22.6293 69.9462 22.5488C69.949 22.3879 69.9448 22.227 69.9405 22.0647C69.9376 21.9843 69.9348 21.9038 69.9334 21.8234C69.9277 21.6272 69.8266 21.472 69.6728 21.3534C69.6102 21.304 69.539 21.2702 69.4678 21.2518C69.4208 21.2391 69.3738 21.2335 69.3297 21.2349C69.3069 21.2363 69.2855 21.2377 69.2656 21.2419C69.2243 21.2504 69.1858 21.2659 69.1545 21.2899C69.1275 21.3097 69.1018 21.3379 69.0833 21.3732C69.0734 21.3901 69.0648 21.4099 69.0577 21.4296C69.0435 21.4692 69.0335 21.5143 69.0321 21.5595C69.0306 21.6061 69.0349 21.6526 69.0492 21.6992C69.0563 21.7218 69.0648 21.7444 69.0762 21.7669C69.1346 21.877 69.1688 21.9899 69.1873 22.1028C69.2001 22.1791 69.2058 22.2553 69.2086 22.3315C69.2129 22.4458 69.2086 22.5629 69.2072 22.6787C69.2058 22.7873 69.2029 22.8974 69.2001 23.0061C69.1915 23.3335 69.1816 23.6609 69.193 23.9884C69.22 24.6785 69.24 25.3715 69.3268 26.0545C69.3667 26.3678 69.398 26.6797 69.425 26.9931C69.4521 27.3064 69.472 27.6197 69.4877 27.9344C69.4948 28.0671 69.4934 28.2011 69.4934 28.3352C69.4934 28.3804 69.4934 28.4241 69.4934 28.4693C69.4934 28.5582 69.4948 28.6471 69.5005 28.736C69.5062 28.825 69.5148 28.9125 69.529 29C69.5703 29.2554 69.6045 29.5109 69.6272 29.7677C69.6515 30.0246 69.6657 30.2814 69.6685 30.5397C69.6714 30.7683 69.687 30.997 69.7041 31.227C69.7212 31.4556 69.7369 31.6843 69.7426 31.9143C69.744 31.992 69.7426 32.0696 69.7397 32.1458C69.7298 32.3787 69.7027 32.6101 69.7013 32.843C69.7013 32.9023 69.7041 32.9629 69.7084 33.0236C69.7226 33.2043 69.7511 33.3835 69.7454 33.5627C69.7355 33.9283 69.7226 34.2938 69.707 34.6593C69.6913 35.0249 69.6757 35.3904 69.66 35.7559C69.6557 35.8646 69.6472 35.9747 69.6401 36.0834C69.6329 36.192 69.6272 36.3021 69.6301 36.4108C69.6329 36.583 69.6429 36.7537 69.6515 36.9259C69.6614 37.0967 69.6714 37.2689 69.6742 37.4411C69.6856 38.0451 69.6828 38.6491 69.6927 39.2546C69.6956 39.3915 69.7127 39.527 69.7255 39.6639C69.7298 39.709 69.734 39.7542 69.7369 39.8008C69.7639 40.2016 69.7867 40.6024 69.8109 41.0032C69.8294 41.3151 69.791 41.6214 69.6557 41.9065C69.4179 42.4075 69.1987 42.9184 68.9253 43.3996C68.6733 43.8414 68.4141 44.2775 68.1507 44.7122C68.0197 44.9295 67.8873 45.1469 67.7549 45.3642C67.6224 45.5815 67.49 45.7989 67.359 46.0162C67.3448 46.0402 67.3263 46.0642 67.3106 46.0882C67.2622 46.1602 67.2109 46.2307 67.154 46.2971C67.0871 46.3761 67.023 46.4566 66.9547 46.5328C66.8877 46.609 66.818 46.681 66.7425 46.7402C66.6912 46.7798 66.6386 46.8136 66.5802 46.8404C66.5076 46.8094 66.4435 46.7741 66.3837 46.7459C66.3239 46.7177 66.2655 46.6937 66.2071 46.6852C66.1388 46.6753 66.079 46.6584 66.0234 46.6344C65.8868 46.5737 65.7857 46.4707 65.7002 46.3465C65.6831 46.3211 65.6661 46.2957 65.6504 46.2689C65.5393 46.0854 65.4311 45.9019 65.3272 45.7156C65.2232 45.5293 65.1221 45.3416 65.0239 45.1511C64.8288 44.7714 64.6494 44.3847 64.4857 43.9896C64.1112 43.0863 63.7381 42.1817 63.3509 41.2841C63.2113 40.9623 63.0775 40.6391 62.9593 40.3117C62.8995 40.148 62.844 39.9814 62.7941 39.8149C62.7443 39.6469 62.6987 39.4776 62.6603 39.3068C62.5962 39.0217 62.5307 38.7352 62.4595 38.4516C62.3883 38.1679 62.3129 37.8842 62.2274 37.6048C62.0808 37.1179 61.917 36.6366 61.7476 36.1568C61.6906 35.9973 61.6351 35.8364 61.5781 35.6769C61.4087 35.1985 61.2364 34.7214 61.0627 34.2458C60.889 33.7688 60.7153 33.2932 60.5401 32.8162C60.4576 32.5918 60.3593 32.373 60.2639 32.1387C61.739 31.4119 63.2241 30.7726 64.7192 30.1939C64.6921 30.0669 64.6679 29.9709 64.6508 29.875C64.6209 29.7056 64.5398 29.6026 64.423 29.5758C64.4002 29.5701 64.3746 29.5687 64.349 29.5687C64.3234 29.5701 64.2949 29.5729 64.2664 29.58C64.2379 29.5871 64.208 29.5969 64.1767 29.6111C64.1183 29.6365 64.0614 29.6633 64.003 29.6915C63.946 29.7197 63.8877 29.7465 63.8293 29.7719C63.3665 29.9738 62.9038 30.177 62.441 30.3788C61.9783 30.5806 61.5155 30.7824 61.0513 30.9829C60.9716 31.0167 60.8933 31.0506 60.8121 31.0831C60.6512 31.1494 60.4875 31.2129 60.3166 31.2806C60.2312 31.3145 60.1443 31.3484 60.0546 31.3851C60.0247 31.2637 59.9991 31.1663 59.9777 31.0746C59.9706 31.0435 59.9635 31.0139 59.9564 30.9843C59.9436 30.9278 59.9379 30.8671 59.9279 30.8093C59.9179 30.7514 59.9051 30.6964 59.8752 30.6498C59.8368 30.5891 59.8054 30.527 59.7798 30.4621C59.7285 30.3337 59.6958 30.1996 59.6616 30.0655C59.6445 29.9992 59.626 29.9328 59.6047 29.8679C59.5605 29.7338 59.5178 29.5984 59.4765 29.4643C59.3526 29.0592 59.2373 28.6514 59.0964 28.252C58.9953 27.9655 58.8856 27.6818 58.7731 27.3981C58.6607 27.1144 58.5482 26.8322 58.4414 26.5471C58.3104 26.1957 58.1865 25.8428 58.0612 25.4886C57.9345 25.1358 57.8063 24.7843 57.664 24.4372C57.56 24.1845 57.4105 23.9488 57.2581 23.7174C57.2069 23.6398 57.1556 23.5636 57.1058 23.4859C57.0916 23.4648 57.0745 23.4436 57.056 23.4252C57.0175 23.3885 56.9691 23.3589 56.9164 23.3377C56.784 23.2827 56.6231 23.2756 56.5092 23.325C56.4679 23.3434 56.4352 23.366 56.4095 23.3956C56.3839 23.4238 56.3654 23.4591 56.3526 23.5C56.3269 23.5819 56.3227 23.6877 56.3298 23.8232C56.3497 24.2579 56.3469 24.6968 56.3212 25.1315C56.3099 25.3178 56.2856 25.5041 56.2557 25.6904C56.2458 25.7525 56.2358 25.8146 56.2258 25.8767C56.2116 25.9586 56.1988 26.0418 56.1846 26.1237C56.0407 27.0213 55.8927 27.9175 55.7432 28.8151C55.7232 28.9336 55.7004 29.0536 55.6762 29.1721C55.6406 29.35 55.6022 29.5278 55.5709 29.707C55.5495 29.8256 55.531 29.9455 55.5182 30.0641C55.5111 30.1234 55.5054 30.184 55.5025 30.2433C55.4769 30.6272 55.4669 31.0125 55.4612 31.3978C55.4555 31.7831 55.4555 32.1684 55.4484 32.5537C55.4456 32.6849 55.4456 32.8162 55.447 32.9474C55.447 33.0787 55.4484 33.2085 55.4484 33.3383C55.3331 33.3906 55.2249 33.4414 55.1209 33.4879C55.017 33.5359 54.9159 33.5811 54.8162 33.6263C54.419 33.8027 54.0331 34.0073 53.6401 34.1936C53.5134 34.2543 53.3867 34.3122 53.2585 34.3672C53.1304 34.4222 53.0008 34.4745 52.8684 34.5224C52.8029 34.5464 52.736 34.569 52.669 34.5902C52.5352 34.6325 52.3999 34.6706 52.2618 34.7017C52.192 34.7172 52.1223 34.7313 52.0525 34.744C52.0326 34.7468 52.0141 34.7525 51.9984 34.7595C51.9486 34.7793 51.9158 34.8132 51.8973 34.8569C51.8845 34.8866 51.8802 34.919 51.8816 34.9557C51.8831 34.9924 51.8916 35.0305 51.9073 35.0714C51.9471 35.1745 51.9899 35.2535 52.0354 35.3114C52.118 35.4144 52.212 35.4567 52.3287 35.4567C52.3458 35.4567 52.3629 35.4567 52.38 35.4553C52.4327 35.4511 52.4882 35.4398 52.5494 35.4229C52.5694 35.4172 52.5907 35.4116 52.6121 35.4045C52.7075 35.3749 52.8043 35.3438 52.8983 35.3114C53.0891 35.2465 53.277 35.1773 53.4621 35.1039C53.9277 34.919 54.3791 34.7031 54.8162 34.4533C54.9187 34.394 55.027 34.3418 55.1394 34.2896C55.2533 34.2374 55.373 34.1837 55.4997 34.123C55.5168 34.2628 55.531 34.3743 55.5424 34.4773C55.5467 34.5112 55.5495 34.545 55.5524 34.5789C55.5552 34.6184 55.5581 34.6593 55.5595 34.6989C55.5652 34.8202 55.5666 34.9416 55.5808 35.0602C55.6506 35.619 55.7232 36.1793 55.7944 36.7382C55.8656 37.2971 55.9368 37.856 56.008 38.4163C56.0251 38.5475 56.0422 38.6788 56.0593 38.81C56.1119 39.2038 56.1646 39.599 56.2016 39.9941C56.2116 40.0943 56.2216 40.1945 56.2315 40.2947C56.2486 40.4641 56.2629 40.6349 56.2657 40.8042C56.2671 40.8607 56.2657 40.9171 56.2643 40.9722C56.2614 41.047 56.2557 41.1204 56.2458 41.1938C56.1959 41.5748 56.129 41.9516 56.0493 42.327C55.9696 42.7024 55.877 43.075 55.7773 43.4448C55.7104 43.6918 55.6406 43.9388 55.568 44.1843C55.5267 44.3241 55.4726 44.4553 55.4 44.5781C55.3288 44.7009 55.2391 44.8152 55.1309 44.921C55.0241 45.0255 54.9771 45.1934 54.9145 45.3374C54.9074 45.3529 54.9031 45.3684 54.9002 45.3854C54.8903 45.4362 54.8917 45.4898 54.8732 45.5378C54.7208 45.9273 54.503 46.2816 54.2623 46.6189C54.1826 46.7318 54.1 46.8433 54.016 46.9533C53.9818 46.9985 53.9448 47.0423 53.9064 47.0846C53.8295 47.1679 53.7455 47.2427 53.6572 47.3132C53.5248 47.4177 53.3824 47.5094 53.2357 47.5969C53.1389 47.6548 53.0392 47.7112 52.941 47.7677C52.3487 48.105 51.7151 48.2602 51.0302 48.1897C50.6386 48.1487 50.2741 48.0372 49.9993 47.7451C49.8099 47.5433 49.6448 47.3203 49.4782 47.1001C49.3671 46.9533 49.2646 46.7967 49.1777 46.6358C49.1464 46.5765 49.1379 46.4594 49.1749 46.4199C49.4255 46.1503 49.5237 45.7946 49.7216 45.5011C50.0534 45.0085 50.2969 44.4779 50.529 43.9402C50.9234 43.0299 51.2466 42.0956 51.3477 41.1006C51.4089 40.4937 51.4901 39.8883 51.5157 39.28C51.5314 38.882 51.4872 38.4727 51.2025 38.1439C51.1113 38.0395 51.0159 37.9378 50.9191 37.8405C50.5389 37.4594 50.1032 37.3691 49.5778 37.5271C49.2446 37.6273 48.9585 37.784 48.705 38.0056C48.5882 38.1086 48.4843 38.2356 48.4017 38.3669C48.2921 38.5405 48.2095 38.731 48.1141 38.9116C48.0757 38.9822 48.0116 39.0457 47.9916 39.1191C47.8934 39.4945 47.8023 39.8713 47.7168 40.2496C47.6371 40.6066 47.5374 40.9623 47.5018 41.3236C47.4591 41.7512 47.3495 42.1845 47.4876 42.6164C47.4905 42.6262 47.489 42.6389 47.4876 42.6502C47.4178 43.346 47.6101 44.0234 47.6428 44.7122C47.6471 44.8011 47.6955 44.8872 47.7268 44.9747C47.7952 45.1694 47.8621 45.3656 47.9333 45.559C48.013 45.7749 48.0814 45.9965 48.1853 46.1997C48.2579 46.3422 48.2351 46.434 48.1312 46.5356C47.8322 46.8263 47.5503 47.134 47.2384 47.4092C46.7985 47.7973 46.6376 47.7832 46.2574 47.357C45.6337 46.657 45.0115 45.9555 44.3964 45.2485C43.8653 44.636 43.3328 44.0249 42.8245 43.3954C42.2293 42.6573 41.6569 41.8994 40.9877 41.222C40.6944 40.9256 40.384 40.6476 40.0807 40.3611C39.9312 40.2199 39.756 40.0957 39.6364 39.9334C39.2449 39.4028 38.8547 38.8721 38.3763 38.412C38.1528 38.1975 37.9563 37.9562 37.7527 37.7318C38.1698 37.3761 38.57 37.0275 38.9786 36.6902C39.5766 36.1963 40.1818 35.708 40.7855 35.2196C41.5515 34.6001 42.3403 34.0087 43.0124 33.2805C43.5606 32.6863 44.1657 32.143 44.6555 31.4966C44.7794 31.3343 44.8648 31.1409 44.9503 30.9518C45.0713 30.6837 45.0428 30.4409 44.7851 30.2504C44.6641 30.1615 44.563 30.0472 44.4405 29.9611C43.7101 29.4488 42.9554 28.9675 42.2805 28.379C41.8534 28.0064 41.4134 27.6451 40.9777 27.281C40.2757 26.6939 39.5752 26.1039 38.8661 25.5253C38.2667 25.0356 37.6074 24.6065 37.2244 23.9023C37.1973 23.8515 37.1674 23.795 37.1219 23.764C36.9524 23.6468 36.9596 23.4873 36.971 23.3067C37.0051 22.7083 37.0236 22.1085 37.045 21.5101C37.0521 21.3026 37.0464 21.0937 37.0607 20.8877C37.0664 20.8016 37.0963 20.7099 37.1404 20.6351C37.3127 20.3401 37.4992 20.0536 37.6715 19.76C37.8281 19.4933 37.9648 19.2139 38.1286 18.9514C38.3151 18.6493 38.5571 18.377 38.7109 18.0608C38.9644 17.5415 39.3602 17.1406 39.7318 16.7172C39.8201 16.6156 39.9468 16.5408 40.0664 16.4717C40.1989 16.3941 40.3455 16.363 40.495 16.4166C40.673 16.7709 40.7983 17.1378 40.7841 17.5175C40.7428 18.5731 40.9321 19.6062 41.0347 20.6492C41.1358 21.6696 41.2112 22.6928 41.3294 23.7117C41.3664 24.0236 41.4917 24.3299 41.6156 24.6235C41.6626 24.7349 41.805 24.8366 41.9274 24.8789C42.4955 25.0779 43.0523 25.0356 43.5663 24.7152C43.8397 24.5458 44.0917 24.3426 44.3537 24.1563C44.4348 24.0999 44.5203 24.0505 44.5573 24.0279C44.8492 24.2833 45.0884 24.5388 45.3732 24.7293C45.7775 25.0003 46.2175 25.1739 46.733 25.1993C47.321 25.2289 47.8265 25.0398 48.3277 24.7942C48.6181 24.6517 48.9485 24.5275 49.1606 24.3017C49.538 23.8994 49.9039 23.4605 50.1516 22.9764C50.4435 22.4063 50.6173 21.7754 50.8194 21.1629C50.9262 20.8397 50.9362 20.477 51.0772 20.1736C51.1968 19.9139 51.1996 19.7036 51.0999 19.4679C50.6486 19.3479 50.5546 19.3945 50.435 19.8109C50.3709 20.0324 50.3268 20.2597 50.2698 20.4826C49.9979 21.5694 49.6974 22.6363 48.9214 23.5113C48.4601 24.0321 47.8749 24.2946 47.2398 24.4964C47.1857 24.5134 47.1245 24.5049 47.0661 24.5077C46.2431 24.5374 45.685 24.1267 45.2692 23.4619C45.1724 23.3081 45.1895 23.1952 45.2906 23.0583C45.4657 22.8184 45.6337 22.5728 45.7918 22.3216C45.974 22.0323 46.1364 21.7288 46.32 21.4395C46.6105 20.9837 46.8739 20.5165 46.9964 19.983C47.1302 19.4016 47.274 18.8215 47.415 18.2415C47.6513 17.2705 47.8834 16.2981 47.8635 15.2918C47.8521 14.7202 47.8948 14.1416 47.7097 13.5841C47.6214 13.3174 47.4876 13.069 47.2598 12.9166C46.8668 12.6512 46.414 12.5468 45.9342 12.5764C45.1567 12.623 44.6513 13.0789 44.2953 13.7069C44.0461 14.1472 43.834 14.6116 43.6503 15.0829C43.3513 15.8493 43.1534 16.6368 43.1576 17.4709C43.1605 18.1624 43.1904 18.8469 43.2673 19.5356C43.3612 20.3768 43.5535 21.1911 43.8012 21.9956C43.9365 22.4331 44.076 22.8706 44.217 23.318C44.1088 23.4252 44.0063 23.5565 43.8767 23.6468C43.5848 23.8515 43.2986 24.0843 42.9725 24.2198C42.4785 24.4245 42.4386 24.2861 42.2449 23.8769C42.2307 23.8458 42.2264 23.8105 42.2222 23.7767C42.1737 23.4704 42.1125 23.1642 42.0798 22.8551C41.9886 21.9956 41.9103 21.1361 41.8235 20.2766C41.7594 19.6457 41.6597 19.0177 41.6227 18.3854C41.5757 17.5937 41.5942 16.8005 41.4034 16.0158C41.328 15.7067 41.1585 15.5741 40.9108 15.5148C40.3797 15.3864 39.8699 15.5106 39.4741 15.8634C38.8618 16.4124 38.3493 17.056 37.9007 17.7461C37.6715 18.0989 37.4337 18.4447 37.1831 18.8201C37.1603 18.7566 37.1347 18.7157 37.1347 18.6762C37.1276 17.7644 37.1176 16.8541 37.1176 15.9424C37.1176 15.3892 37.1475 14.836 37.1361 14.2827C37.119 13.4642 37.0621 12.647 37.0507 11.8284C37.035 10.6528 36.9952 9.47577 37.1034 8.30155C37.1162 8.16465 37.1361 8.02634 37.1304 7.88945C37.1119 7.33621 37.0849 6.78438 37.0607 6.23256C37.045 5.8642 37.0293 5.49585 37.0122 5.12749C36.9966 4.78313 36.9624 4.43736 36.9667 4.093C36.9752 3.47061 37.0037 2.84821 37.0322 2.22582C37.0564 1.6994 37.0763 1.17298 37.1304 0.64938C37.1703 0.272557 36.8998 -0.0294647 36.5139 0.0213427C36.2847 0.0509804 36.1408 0.265501 36.1722 0.491312C36.212 0.773576 36.2491 1.05866 36.2491 1.34234C36.2505 1.82501 36.2135 2.30909 36.2078 2.79176C36.1992 3.48331 36.1864 4.17627 36.2049 4.86781C36.2277 5.75553 36.296 6.64184 36.3146 7.52815C36.3288 8.16042 36.2918 8.79551 36.2804 9.42778C36.2761 9.64654 36.2847 9.86529 36.2875 10.0826C36.2932 10.7742 36.2889 11.4657 36.3074 12.1573C36.3231 12.767 36.3744 13.3752 36.3886 13.9849C36.3971 14.3759 36.353 14.7668 36.3558 15.1577C36.3601 15.7279 36.3943 16.2981 36.3986 16.8697C36.4057 17.7334 36.4114 18.5985 36.3943 19.4623C36.3872 19.8546 36.4071 20.2709 36.0583 20.5701C36.0326 20.5927 36.0155 20.6252 35.997 20.6548C35.8589 20.8933 35.7308 21.1389 35.5798 21.369C35.4047 21.6385 35.194 21.8869 35.026 22.1621C34.6572 22.7662 34.24 23.3293 33.7046 23.7992C33.6704 23.8303 33.6334 23.8599 33.6035 23.8952C33.2476 24.3271 32.7962 24.5614 32.2295 24.6206C31.7895 24.6672 31.6998 24.6672 31.4777 24.3003C31.3908 24.1577 31.331 23.9813 31.3168 23.8162C31.2584 23.1275 31.2257 22.4373 31.1787 21.7472C31.1659 21.5524 31.1303 21.3591 31.116 21.1657C31.0776 20.6619 31.0448 20.1566 31.0107 19.6514C30.9964 19.4453 30.9879 19.2393 30.9736 19.0318C30.948 18.6649 30.9124 18.2979 30.8968 17.9296C30.8811 17.5725 30.8968 17.2154 30.8768 16.8584C30.8483 16.3418 30.78 15.8267 30.7629 15.3102C30.7259 14.263 30.7031 13.2144 30.6917 12.1672C30.6803 11.0155 30.6832 9.86247 30.6931 8.71083C30.696 8.38058 30.7401 8.05034 30.7629 7.75678C31.6201 7.37008 32.4331 7.00031 33.249 6.63761C33.5124 6.52047 33.7772 6.38921 34.0563 6.32994C34.3098 6.27631 34.3938 6.09707 34.4792 5.92066C34.5846 5.70472 34.3909 5.32931 34.1674 5.27286C33.9794 5.22488 33.837 5.33355 33.6847 5.42105C33.3842 5.59041 33.0781 5.7513 32.7677 5.90231C32.3619 6.1013 31.9504 6.29042 31.5389 6.47954C31.3296 6.57551 31.1175 6.66442 30.8868 6.76604C30.8726 6.54022 30.8384 6.34546 30.8526 6.15352C30.9395 5.01741 31.0391 3.88271 31.1331 2.7466C31.1374 2.70144 31.1374 2.65486 31.1388 2.6097C31.1402 2.33591 31.1203 2.05929 31.1445 1.7869C31.183 1.36915 31.0648 0.990919 30.9025 0.621153C30.8184 0.427803 30.5622 0.310663 30.4183 0.365705C30.2261 0.439093 30.1677 0.614097 30.2446 0.883659C30.2574 0.92741 30.2731 0.97116 30.2745 1.01632C30.2859 1.59073 30.3215 2.16514 30.2973 2.73813C30.2674 3.46214 30.1905 4.18332 30.1321 4.90733C30.1065 5.2277 30.0709 5.54807 30.0496 5.86844C30.0225 6.28054 30.0068 6.69406 29.9855 7.11745C29.7861 7.1979 29.6025 7.26847 29.4231 7.34609C28.9987 7.53097 28.5787 7.7215 28.1544 7.90497C27.5478 8.16748 26.9398 8.42575 26.3333 8.68825C26.2066 8.74329 26.0841 8.8068 25.9602 8.86608C25.7851 8.94935 25.6128 9.03826 25.4334 9.11447C25.2739 9.18221 25.1444 9.25984 25.1472 9.45883C25.1515 9.66771 25.133 9.87941 25.3465 10.0149C25.553 10.1461 25.7253 10.0248 25.9018 9.94433C25.9232 9.93445 25.9417 9.91892 25.9617 9.90904C26.2521 9.76509 26.5397 9.6169 26.8331 9.48141C27.1064 9.35581 27.3912 9.25137 27.6617 9.12153C28.1629 8.8816 28.6556 8.62192 29.1596 8.38482C29.3875 8.27756 29.6324 8.20417 29.8915 8.10679C29.9001 8.22675 29.91 8.30437 29.9114 8.38341C29.9214 9.47859 29.9186 10.5738 29.9399 11.669C29.9684 13.1212 30.0125 14.5735 30.0595 16.0257C30.0795 16.658 30.0894 17.2945 30.1635 17.9211C30.3059 19.1348 30.2532 20.3613 30.4482 21.575C30.5579 22.2524 30.4995 22.9539 30.5394 23.644C30.5565 23.9277 30.6006 24.2184 30.6903 24.488C30.8683 25.0243 31.4535 25.4448 31.9647 25.3856C32.4004 25.3348 32.8346 25.2303 33.2575 25.1118C33.4384 25.061 33.6135 24.9339 33.7545 24.8041C34.0933 24.4894 34.4336 24.1718 34.7312 23.8204C35.0516 23.4422 35.325 23.0258 35.6169 22.625C35.8219 22.3442 36.0269 22.0605 36.2305 21.7782C36.2647 22.1113 36.2491 22.4204 36.2249 22.7295C36.1907 23.1769 36.1138 23.6242 36.1238 24.0702C36.1494 25.164 36.2106 26.2578 36.2647 27.3515C36.3131 28.3282 36.3815 29.3034 36.427 30.2786C36.4726 31.2552 36.5025 32.2333 36.5353 33.2113C36.5666 34.1329 36.5951 35.0545 36.6164 35.9747C36.6264 36.3967 36.6178 36.8201 36.6178 37.2576C36.5566 37.2802 36.4712 37.2943 36.4071 37.3394C36.2975 37.4171 36.2078 37.5427 36.2847 37.664C36.4028 37.8489 36.5623 38.0056 36.773 38.254C36.773 38.8651 36.7759 39.5792 36.7716 40.2933C36.7659 41.2022 36.7417 42.1125 36.7488 43.0214C36.756 43.8273 36.8029 44.6331 36.8129 45.439C36.8158 45.6154 36.7688 45.8088 36.6848 45.964C36.5338 46.2477 36.3445 46.5116 36.1636 46.7783C35.6909 47.4755 35.2452 48.1939 34.6743 48.8205C34.193 49.3484 33.7815 49.9468 33.1493 50.3236C32.6225 50.6369 32.1284 51.0137 31.5005 51.1238C31.294 51.1605 31.089 51.2014 30.8854 51.2494C30.2731 51.3934 29.7833 51.1774 29.3875 50.7286C29.1127 50.4181 28.872 50.0794 28.6015 49.7661C28.4776 49.6221 28.4833 49.4979 28.583 49.3639C28.6869 49.2256 28.8265 49.1084 28.9076 48.9588C29.2123 48.3957 29.5227 47.8326 29.7876 47.2511C30.1307 46.4961 30.4141 45.7142 30.7572 44.9591C31.0577 44.2958 31.341 43.6311 31.5546 42.9325C31.6927 42.4809 31.7796 42.0405 31.66 41.5762C31.5275 41.0653 31.3481 40.5911 30.8498 40.3004C30.5479 40.124 30.2332 40.1339 29.9058 40.1423C28.8507 40.1691 28.1758 40.7562 27.6831 41.6101C27.5991 41.7569 27.5777 41.9375 27.5208 42.1012C27.3044 42.7293 27.189 43.3686 27.2303 44.0361C27.2517 44.3805 27.2218 44.7277 27.2232 45.0735C27.226 45.614 27.1947 46.1588 27.2517 46.6922C27.3385 47.5038 27.414 48.3237 27.7158 49.0971C27.7643 49.2199 27.7372 49.3173 27.6489 49.4133C27.4311 49.6518 27.2332 49.9086 27.0025 50.1345C26.4059 50.7202 25.7751 51.2649 25.0176 51.6432C24.7485 51.7772 24.4808 51.924 24.1946 52.0115C24.0167 52.0666 23.8059 52.0397 23.6137 52.02C23.45 52.0045 23.3375 51.8887 23.2976 51.7321C23.1965 51.3341 23.0484 50.9375 23.0271 50.5353C22.9858 49.7266 22.8491 48.9207 22.8918 48.1078C22.8947 48.0415 22.8576 47.9751 22.8477 47.9074C22.8092 47.6435 22.7694 47.3796 22.7394 47.1142C22.7181 46.9237 22.7338 46.7261 22.6953 46.5398C22.6099 46.1362 22.5771 45.7283 22.5586 45.3176C22.5244 44.5358 22.3949 43.7821 21.8666 43.1512C21.6203 42.8577 21.0465 42.7222 20.6919 42.8718C20.3602 43.0115 20.1324 43.2472 19.9031 43.5224C19.5585 43.9374 19.1399 44.2916 18.7526 44.6712C18.6957 44.7277 18.6359 44.7827 18.5846 44.8448C18.4166 45.0495 18.2571 45.2598 18.0877 45.463C17.8727 45.7184 17.6548 45.9725 17.4313 46.2209C17.3373 46.3253 17.2234 46.4114 17.0568 46.561C16.9799 45.6817 16.886 44.8928 16.8518 44.1025C16.8219 43.4123 16.8632 42.7194 16.8703 42.0278C16.8746 41.6143 16.8375 41.1952 16.8859 40.7873C17.0355 39.5439 16.9372 38.3005 16.8973 37.06C16.866 36.082 16.772 35.1053 16.7122 34.1273C16.6667 33.3793 16.6382 32.6299 16.5855 31.8833C16.5428 31.275 16.4659 30.6681 16.426 30.0599C16.399 29.6463 16.4118 29.23 16.4061 28.8137C16.4033 28.6457 16.3648 28.4806 16.2196 28.386C16.1213 28.3225 15.9804 28.259 15.8793 28.283C15.734 28.3169 15.6273 28.4382 15.6358 28.6189C15.6714 29.3556 15.6871 30.0937 15.7412 30.8304C15.8052 31.68 15.9106 32.5268 15.9804 33.3765C16.0117 33.7547 15.9903 34.1386 16.016 34.5182C16.0672 35.2648 16.1384 36.0114 16.1968 36.758C16.2239 37.1136 16.2495 37.4707 16.258 37.8263C16.2765 38.563 16.295 39.2998 16.2879 40.0379C16.2837 40.4514 16.2096 40.8649 16.2053 41.2784C16.1925 42.303 16.1797 43.3291 16.211 44.3537C16.231 45.0085 16.3178 45.662 16.3961 46.3126C16.446 46.7162 16.4132 47.0874 16.1854 47.4403C16.0487 47.6534 15.949 47.889 15.8252 48.1106C15.5062 48.6864 15.2115 49.2792 14.8527 49.8296C14.4682 50.4167 14.0268 50.9685 13.5968 51.5274C13.3149 51.893 13.0273 52.2557 12.7126 52.5916C12.5019 52.816 12.2954 53.0502 11.9936 53.1829C11.5949 53.3579 11.2603 53.2521 11.1606 52.8357C10.984 52.1061 10.8445 51.3694 10.8772 50.6129C10.8901 50.3137 10.9143 50.0159 10.92 49.7167C10.9257 49.4076 10.92 49.0985 10.91 48.7909C10.8901 48.1854 10.8545 47.58 10.8445 46.9745C10.8388 46.5963 10.8886 46.2166 10.8772 45.8398C10.8587 45.1835 10.7961 44.5287 10.779 43.8724C10.7477 42.6869 10.7334 41.5 10.7164 40.3145C10.7107 39.8784 10.7149 39.4409 10.7149 39.0048C11.3542 38.7366 12.0007 38.4558 12.6557 38.1933C13.023 38.0465 13.3904 37.9124 13.7378 37.7092C14.1336 37.4777 14.5651 37.3056 14.9523 37.0529C15.1972 36.8935 15.2514 36.8144 15.193 36.5237C15.1289 36.2033 14.9381 36.1384 14.6804 36.3487C14.5722 36.4362 14.4739 36.542 14.3515 36.6027C13.49 37.0289 12.6799 37.5582 11.7657 37.8772C11.4212 37.9971 11.0695 38.1001 10.705 38.2173C10.705 37.8419 10.6893 37.5201 10.7078 37.1997C10.7633 36.2513 10.7292 35.3114 10.5555 34.3743C10.507 34.1174 10.5042 33.8464 10.5241 33.5853C10.5526 33.2212 10.621 32.8585 10.6751 32.4958C10.7206 32.1966 10.5911 32.0188 10.3034 31.9934C10.0543 31.9722 9.86773 32.1331 9.8478 32.3899C9.84353 32.4351 9.84922 32.4845 9.83641 32.5268C9.67124 33.1168 9.69829 33.7138 9.81932 34.2995C9.96028 34.9825 9.98306 35.6727 10.0101 36.3614C10.0343 36.9711 9.99588 37.5836 9.98876 38.1947C9.98591 38.5024 9.98876 38.5038 9.69402 38.6167C9.27113 38.779 8.84967 38.9427 8.42536 39.1008C8.01386 39.256 7.59952 39.4042 7.1866 39.5566C7.03425 39.6131 6.87477 39.6568 6.73239 39.7344C5.87807 40.2002 4.93974 40.5008 4.11533 41.0286C4.05837 41.0653 3.98576 41.0794 3.92168 41.1048C3.22399 41.3899 2.5263 41.6764 1.82718 41.9601C1.75741 41.9883 1.68195 42.0024 1.59509 42.0264C1.59509 41.548 1.59794 41.1006 1.59367 40.6518C1.58939 40.1564 1.59224 39.6596 1.56946 39.1643C1.53814 38.4967 1.4527 37.8306 1.45128 37.163C1.44701 35.8209 1.24909 34.4999 1.07253 33.1746C0.995644 32.6045 0.908788 32.0286 0.911636 31.4557C0.914484 31.0421 0.901669 30.6328 0.878887 30.2193C0.863225 29.9484 0.923027 29.6732 0.951504 29.4008C0.967166 29.2568 1.0768 29.2159 1.19926 29.2046C1.5239 29.175 1.84996 29.1171 2.17175 29.1354C2.48785 29.1524 2.78971 29.1185 3.10011 29.086C4.08258 28.9844 5.06931 28.9294 6.0532 28.8504C6.30807 28.8306 6.56152 28.7967 6.81355 28.7544C7.32614 28.6697 7.83018 28.6542 8.32711 28.8405C8.54354 28.9223 8.77136 28.9774 8.99348 29.0437C9.23838 29.1171 9.48329 29.1637 9.71823 29.0141C9.66839 28.5653 9.59435 28.4989 9.1914 28.4284C8.95219 28.386 8.71725 28.3098 8.48943 28.228C8.06655 28.0755 7.62657 28.0247 7.18517 28.0388C6.67543 28.0558 6.16854 28.1108 5.66022 28.1532C5.08213 28.2026 4.50547 28.2647 3.92738 28.3056C3.59135 28.3296 3.25247 28.3155 2.91501 28.3268C2.68577 28.3352 2.45653 28.3804 2.23013 28.3691C1.66344 28.3423 1.09389 28.3903 0.528617 28.2717C0.222486 28.2082 0.0558944 28.3973 0.0573183 28.7149C0.0587422 28.8278 0.0544706 28.9421 0.0445035 29.055C0.0316888 29.2018 -0.012451 29.3485 -0.00533164 29.4939C0.018874 29.9413 0.0615899 30.3887 0.0986103 30.8361C0.144174 31.3851 0.175499 31.9355 0.238149 32.4831C0.380535 33.7081 0.544279 34.9303 0.685242 36.1553C0.729381 36.5435 0.730805 36.9372 0.750739 37.3281C0.800575 38.2949 0.864648 39.2617 0.895973 40.2284C0.918755 40.9298 0.900245 41.6327 0.900245 42.3242C0.386231 42.6418 0.565637 42.8266 0.96859 43.1273C0.987101 43.3545 1.01273 43.5944 1.02412 43.8357C1.04406 44.2478 1.04121 44.6614 1.07111 45.0721C1.11952 45.7608 1.18787 46.4481 1.24055 47.1368C1.27472 47.5729 1.28754 48.0118 1.3274 48.4465C1.38151 49.0308 1.47264 49.6123 1.51108 50.198C1.56661 51.0603 1.60506 51.924 1.62072 52.7863C1.62784 53.2083 1.58797 53.6345 1.53386 54.0551C1.48403 54.4418 1.77734 54.7325 2.16036 54.6394C2.36398 54.59 2.56759 54.542 2.77547 54.5152C3.05028 54.4785 3.32793 54.463 3.60416 54.4404C3.69671 54.4333 3.79069 54.4319 3.88324 54.4333C4.10251 54.4347 4.32179 54.439 4.54249 54.439C5.08782 54.4404 5.63316 54.4263 6.1785 54.446C6.81497 54.47 7.45144 54.5237 8.0879 54.5604C8.15625 54.5646 8.22744 54.5491 8.29436 54.5335C8.44529 54.4983 8.50082 54.4079 8.46238 54.2527C8.40827 54.0311 8.2488 53.9055 7.97542 53.8942C7.56819 53.8773 7.1567 53.897 6.75659 53.842C5.57336 53.6797 4.38728 53.7234 3.19978 53.7376C2.9264 53.7404 2.65444 53.7376 2.34831 53.7376C2.3298 53.4341 2.26146 53.1194 2.30275 52.8202C2.36255 52.3883 2.30417 51.9706 2.26715 51.5486C2.18599 50.6214 2.0849 49.6955 2.01086 48.7669C1.95533 48.057 1.94109 47.3457 1.88698 46.6358C1.84142 46.0445 1.79443 45.4559 1.83287 44.8618C1.84854 44.636 1.8585 44.3847 1.77877 44.1829C1.6136 43.7666 1.69903 43.3446 1.63069 42.941C1.91688 42.7857 2.16036 42.6234 2.4252 42.5133C3.72092 41.9714 4.99243 41.3772 6.24115 40.7393C6.936 40.3837 7.67498 40.1522 8.38976 39.8516C8.64179 39.7457 8.88811 39.6286 9.14156 39.527C9.40782 39.4211 9.67836 39.3294 9.99446 39.2137C10.0058 39.5679 10.0215 39.8869 10.0258 40.2058C10.0286 40.402 10.0016 40.5982 10.0073 40.7929C10.0301 41.5988 10.0571 42.4033 10.0884 43.2091C10.1098 43.7384 10.1511 44.2662 10.1667 44.7954C10.1824 45.3317 10.3162 45.861 10.2095 46.4043C10.1753 46.5779 10.2408 46.7685 10.2465 46.9505C10.2593 47.3062 10.265 47.6618 10.2693 48.0175C10.2735 48.2814 10.2778 48.5453 10.2707 48.8078C10.2536 49.4048 10.2365 50.0004 10.2066 50.596C10.1682 51.3609 10.2821 52.1103 10.4088 52.8597C10.4985 53.3918 10.8103 53.7503 11.2788 53.9902C11.3585 54.0311 11.4568 54.0678 11.5422 54.0593C11.9879 54.0212 12.4122 53.8984 12.7155 53.5555C13.2295 52.9754 13.7349 52.3883 14.2134 51.7815C14.585 51.3115 14.9111 50.8062 15.2599 50.3165C15.3069 50.2502 15.3581 50.1881 15.4123 50.1274C15.603 49.9072 15.754 49.6687 15.8423 49.385C15.9035 49.1903 16.0103 49.0068 16.1171 48.829C16.278 48.5608 16.4545 48.3026 16.6368 48.0231C16.6524 48.0782 16.6709 48.1191 16.6738 48.1614C16.7094 48.6554 16.745 49.1494 16.7749 49.6433C16.8219 50.4139 16.866 51.1845 16.9059 51.9551C16.9116 52.0666 16.9016 52.1893 16.8632 52.2924C16.7108 52.6875 16.6069 53.101 16.3705 53.4666C16.2865 53.595 16.2865 53.7757 16.2409 53.9309C16.137 54.2837 16.043 54.6394 15.9191 54.9866C15.7141 55.561 15.4721 56.1241 15.2784 56.7027C15.0107 57.5001 14.7487 58.3018 14.5309 59.1133C14.3102 59.9361 14.1379 60.773 13.9613 61.6057C13.856 62.101 13.7862 62.602 13.6965 63.1002C13.6766 63.2132 13.6324 63.3204 13.6111 63.4333C13.5071 63.9993 13.4131 64.568 13.3021 65.1325C13.2466 65.4148 13.1697 65.6928 13.0857 65.9695C13.0629 66.0471 12.9974 66.1473 12.9276 66.1713C12.556 66.3011 12.1815 66.4253 11.8013 66.5227C11.3742 66.6328 10.9371 66.7062 10.507 66.805C10.2807 66.8572 10.0585 66.9249 9.83783 66.9983C9.61428 67.0731 9.56302 67.2227 9.67266 67.4344C9.78372 67.6503 10.0386 67.7378 10.3006 67.656C10.611 67.56 10.92 67.457 11.2332 67.3751C11.649 67.265 12.069 67.1705 12.4876 67.0703C12.5959 67.0449 12.7055 67.0223 12.8578 66.9898C12.7995 67.2015 12.7496 67.3638 12.7112 67.5304C12.4976 68.4618 12.2883 69.3947 12.0776 70.3262C12.0292 70.5393 11.9807 70.7524 11.9366 70.9669C11.8341 71.4623 11.7373 71.9605 11.6305 72.4559C11.5579 72.7932 11.4696 73.1277 11.3898 73.4622C11.2062 74.2341 11.0353 75.0104 10.7448 75.7541C10.5811 76.1719 10.4444 76.5995 10.292 77.0215C10.1995 77.2798 10.0984 77.5366 10.0044 77.7949C9.96598 77.9022 9.91187 78.0094 9.90333 78.1195C9.88624 78.3256 10.0201 78.413 10.2322 78.3961C10.5483 78.3721 10.6551 78.1491 10.7406 77.9064C10.8502 77.5917 10.9484 77.2713 11.0467 76.9523C11.3329 76.0195 11.6148 75.0852 11.901 74.1523C11.9779 73.8997 12.069 73.6527 12.1488 73.4015C12.1687 73.338 12.1787 73.2702 12.1858 73.2025C12.2014 73.0783 12.1972 72.9512 12.2256 72.8299C12.3766 72.1934 12.5503 71.5611 12.6884 70.9218C12.8678 70.0905 13.013 69.2508 13.1896 68.4195C13.3021 67.8903 13.4473 67.3667 13.5683 66.8388C13.6039 66.6878 13.6894 66.6017 13.8246 66.5382C14.286 66.3209 14.7459 66.1021 15.2015 65.8721C15.613 65.6646 16.0231 65.4487 16.4246 65.2215C16.8333 64.99 17.2305 64.7388 17.6691 64.4749C17.6976 64.9321 17.7289 65.3442 17.7488 65.7563C17.7958 66.7231 17.8143 67.6927 17.8869 68.658C18.0122 70.3135 18.166 71.9676 18.3184 73.6216C18.3753 74.2398 18.4351 74.8608 18.5362 75.4733C18.6117 75.9263 18.7484 76.3695 18.8794 76.8112C18.9207 76.9495 19.0089 77.085 19.1086 77.1923C19.6283 77.7554 20.2619 77.9911 21.0265 77.7977C21.1661 77.7624 21.2814 77.737 21.4195 77.833C21.5918 77.9516 21.7954 77.936 21.9891 77.857C22.2041 77.7709 22.4248 77.6947 22.6327 77.5917C23.2862 77.2685 24.0423 77.1781 24.6332 76.7138C24.646 76.7039 24.6759 76.7181 24.7143 76.7223C24.7428 76.8013 24.7784 76.886 24.8055 76.9735C24.9607 77.4886 25.1942 77.9614 25.5658 78.3566C25.9417 78.7574 26.3845 79.0524 26.9683 78.9959C27.3585 78.9578 27.7586 78.9296 28.0775 78.6431C28.1871 78.5443 28.3153 78.4469 28.452 78.4004C29.1283 78.1675 29.5056 77.6255 29.8673 77.0737C30.4055 76.2551 30.9395 75.4338 31.5617 74.6731C31.6998 74.5051 31.8052 74.3103 31.9177 74.1226C32.0316 73.9349 32.1426 73.7472 32.2423 73.5525C32.389 73.266 32.5541 72.9823 32.6567 72.6803C32.735 72.4516 32.8674 72.2752 33.014 72.0184C33.0397 72.151 33.0539 72.2145 33.0625 72.2795C33.1963 73.2152 33.3244 74.1509 33.4668 75.0852C33.5238 75.4606 33.6292 75.8289 33.6804 76.2057C33.753 76.7435 33.8669 77.2642 34.0734 77.7695C34.3482 78.4427 34.4322 78.5161 35.1698 78.5387C35.1812 78.5387 35.194 78.5358 35.2039 78.5387C35.5143 78.612 35.7336 78.4582 35.95 78.2649C36.5822 77.7046 36.998 77.013 37.2757 76.2255C37.4437 75.7485 37.643 75.2827 37.8224 74.81C37.8708 74.6815 37.9022 74.546 37.9435 74.4134C38.0531 74.0591 38.1015 73.6809 38.3379 73.3619C38.3692 73.4847 38.3692 73.6047 38.3692 73.7247C38.3692 74.244 38.3393 74.7648 38.3777 75.2813C38.4503 76.2721 38.4162 77.2614 38.3962 78.2522C38.3948 78.31 38.3663 78.3707 38.3792 78.4229C38.4034 78.5175 38.4261 78.6346 38.4945 78.6883C38.5358 78.7207 38.6725 78.6741 38.7422 78.6276C38.8647 78.5443 38.9686 78.4342 39.0484 78.3622C39.0484 77.8062 39.0512 77.2911 39.0484 76.7759C39.0455 76.2255 39.0284 75.6751 39.0341 75.1247C39.0413 74.2144 39.0612 73.3027 39.0768 72.3924C39.0783 72.3133 39.0626 72.2188 39.0982 72.1567C39.3588 71.7079 39.4698 71.1913 39.7831 70.7623C40.3142 70.0355 40.7314 69.2296 41.3351 68.5508C41.7323 68.1048 42.1681 67.711 42.7305 67.4838C43.095 67.3356 43.4282 67.4866 43.5307 67.8536C43.7471 68.6171 43.9991 69.3778 44.1373 70.1554C44.2982 71.0601 44.3679 71.9831 44.4505 72.9004C44.5245 73.7162 44.5844 74.5319 44.8093 75.3237C45.0144 76.0406 45.1653 76.7872 45.8089 77.284C45.9157 77.3673 46.0182 77.4717 46.1406 77.5169C46.3798 77.6044 46.629 77.6834 46.881 77.7159C47.237 77.7624 47.5901 77.785 47.9247 77.5663C48.3376 77.2953 48.779 77.0638 49.2447 76.7929C49.4953 77.0356 49.8655 77.1245 50.2456 77.1923C50.7013 77.2741 51.154 77.3644 51.6097 77.4477C51.6382 77.4534 51.6666 77.4548 51.6965 77.4548C51.7264 77.4534 51.7549 77.4505 51.7834 77.4435C51.9414 77.4068 52.1009 77.3729 52.259 77.3362C52.417 77.2995 52.5736 77.26 52.7288 77.2106C52.8456 77.1739 52.9581 77.1288 53.0663 77.0765C53.1745 77.0243 53.2785 76.965 53.3795 76.9015C53.4806 76.8366 53.5789 76.7675 53.6743 76.6941C53.7697 76.6207 53.8637 76.5431 53.9562 76.4626C54.0231 76.4047 54.0915 76.3469 54.1598 76.289C54.4318 76.059 54.7052 75.8317 54.9572 75.5819C55.1466 75.3942 55.3231 75.1952 55.4769 74.9737C55.4883 74.9581 55.5011 74.9426 55.5139 74.9271C55.5552 74.8833 55.6022 74.8438 55.6421 74.7987C55.8998 74.5037 56.1589 74.2116 56.4109 73.9124C56.5049 73.7995 56.5861 73.6795 56.6573 73.5539C56.7299 73.4283 56.7925 73.2984 56.8552 73.1686C56.9178 73.0373 56.9791 72.9061 57.0446 72.7777C57.0773 72.7127 57.1115 72.6492 57.1485 72.5871C57.1855 72.525 57.224 72.4629 57.2653 72.4022C57.335 72.302 57.402 72.2004 57.4675 72.0974C57.533 71.9944 57.597 71.8913 57.6611 71.7869C57.7878 71.578 57.9131 71.3678 58.0413 71.1617C58.0655 71.228 58.0868 71.2958 58.1068 71.3621C58.1651 71.5611 58.2022 71.7573 58.195 71.9506C58.1808 72.2893 58.1595 72.6281 58.1452 72.9668C58.1381 73.1361 58.1324 73.3055 58.131 73.4748C58.1296 73.6442 58.131 73.815 58.1395 73.9843C58.1452 74.1226 58.1509 74.261 58.1538 74.3979C58.1609 74.6745 58.1623 74.9497 58.1623 75.2263C58.1623 75.3646 58.1623 75.5029 58.1623 75.6412C58.1623 75.8769 58.1595 76.1126 58.1566 76.3483C58.1523 76.584 58.1481 76.8197 58.1438 77.0554C58.1424 77.1471 58.1281 77.2388 58.121 77.332C58.1167 77.3856 58.1267 77.4322 58.1466 77.4675C58.1666 77.5042 58.1979 77.5296 58.2363 77.5451C58.262 77.555 58.2919 77.5606 58.3232 77.5606C58.3488 77.5606 58.3773 77.5592 58.4058 77.555C58.4343 77.5507 58.4642 77.5451 58.4912 77.5366C58.5467 77.5197 58.5966 77.4943 58.6251 77.459C58.6863 77.3842 58.7418 77.3108 58.7817 77.2247C58.8016 77.1824 58.8159 77.1358 58.8244 77.085C58.8287 77.0596 58.8315 77.0342 58.8329 77.006C58.8344 76.9792 58.8344 76.9495 58.8315 76.9199C58.803 76.4908 58.8159 76.0576 58.8258 75.6257C58.8301 75.4817 58.8329 75.3378 58.8344 75.1938C58.8344 75.1825 58.8358 75.1712 58.8372 75.16C58.8386 75.1487 58.8401 75.1374 58.8401 75.1261C58.8358 74.5856 58.8329 74.045 58.8258 73.5045C58.8244 73.3845 58.8201 73.2632 58.8159 73.1432C58.8116 73.0232 58.8087 72.9019 58.8116 72.7819C58.8159 72.5688 58.8272 72.3571 58.8358 72.144C58.8443 71.9309 58.8515 71.7192 58.8429 71.5061C58.8329 71.2478 58.8102 70.9881 58.7859 70.7298C58.7731 70.6 58.7617 70.4716 58.7504 70.3417C58.739 70.2119 58.729 70.0835 58.7219 69.9536C58.719 69.9 58.719 69.8463 58.7219 69.7927C58.7247 69.7391 58.7304 69.6855 58.7361 69.6304C58.7475 69.5217 58.7632 69.4145 58.7703 69.3058C58.7774 69.207 58.8102 69.104 58.8215 69.0038C58.8244 68.9784 58.8258 68.9544 58.8244 68.929C58.8215 68.8556 58.7973 68.7836 58.7333 68.7173C58.6777 68.6608 58.6436 68.6002 58.6222 68.5381C58.6151 68.5169 58.6094 68.4957 58.6037 68.4745C58.5838 68.3885 58.5809 68.2967 58.5752 68.2064C58.5724 68.1598 58.5695 68.1147 58.5681 68.0681C58.5638 67.9763 58.5596 67.8832 58.551 67.7915C58.5467 67.7449 58.5425 67.6997 58.5354 67.6546C58.4613 67.1239 58.3816 66.5947 58.3047 66.0654C58.2791 65.889 58.252 65.7126 58.2264 65.5362C58.2079 65.4106 58.1922 65.2836 58.1765 65.1565C58.1609 65.0295 58.1466 64.9039 58.1296 64.7769C58.215 64.8489 58.2976 64.9208 58.3773 64.9928C58.457 65.0648 58.5339 65.1382 58.608 65.213C58.7561 65.3612 58.8942 65.515 59.0209 65.6773C59.5733 66.3886 60.1158 67.107 60.6583 67.8268C60.8392 68.0667 61.02 68.3066 61.2008 68.5465C61.4714 68.9064 61.7376 69.2691 62.0053 69.6304C62.273 69.9931 62.5393 70.3544 62.8112 70.7143C63.2085 71.2407 63.6114 71.7629 64.0272 72.2738C64.6252 73.0091 65.2361 73.7345 65.8426 74.4614C66.3324 75.0471 66.8237 75.6313 67.3163 76.2156C67.3747 76.2848 67.4331 76.361 67.5085 76.4118C67.5755 76.457 67.6922 76.4556 67.7919 76.4259C67.8417 76.4104 67.8873 76.3892 67.9215 76.361C67.9556 76.3342 67.977 76.3017 67.9798 76.2664C67.9827 76.2185 67.987 76.1705 67.9926 76.1211C67.9969 76.0731 68.0026 76.0237 68.004 75.9757C68.0069 75.9037 68.004 75.8317 67.987 75.7626C67.9813 75.74 67.9741 75.716 67.9642 75.6934C67.9528 75.668 67.94 75.6426 67.9243 75.6172C67.8944 75.5707 67.8545 75.5269 67.8018 75.4832C67.7093 75.4084 67.6296 75.3194 67.5541 75.2235C67.4786 75.1275 67.4074 75.0273 67.3334 74.9327C67.3049 74.896 67.2793 74.8579 67.2537 74.8198C67.1768 74.7041 67.107 74.5841 67.0145 74.4825C66.5631 73.9886 66.0904 73.513 65.6447 73.0134C65.434 72.7762 65.2289 72.5363 65.0253 72.2922C64.8217 72.0494 64.6224 71.8038 64.423 71.5569C64.3091 71.4171 64.2151 71.2605 64.1155 71.1095C64.0827 71.0587 64.0486 71.0079 64.013 70.9599C63.7054 70.5294 63.3978 70.099 63.0817 69.6742C62.6959 69.1562 62.3043 68.6411 61.9071 68.1316C61.6123 67.7534 61.3105 67.3808 61.0114 67.0054C60.9118 66.8798 60.8107 66.7556 60.7124 66.63C60.6313 66.5255 60.5515 66.4197 60.4732 66.3124C60.3152 66.0993 60.16 65.8848 60.0019 65.6731C59.9222 65.5672 59.8425 65.4614 59.7599 65.3584C59.4879 65.014 59.1818 64.6964 58.9041 64.3577C58.7532 64.1743 58.6037 63.9922 58.44 63.8214C58.3175 63.6944 58.1879 63.573 58.047 63.463C58 63.4263 57.9516 63.391 57.9003 63.3571C57.8875 63.3486 57.8747 63.3373 57.8633 63.3261C57.8191 63.2795 57.7878 63.2117 57.7593 63.144C57.738 63.0932 57.7181 63.041 57.6939 62.9972C57.8063 62.9168 57.9146 62.8391 58.0199 62.7643C58.3374 62.5399 58.6308 62.3367 58.9056 62.1123C59.6246 61.528 60.3209 60.9183 61.0371 60.3312C61.272 60.1379 61.5055 59.9431 61.7291 59.7399C61.8786 59.6044 62.0252 59.4661 62.1662 59.3221C62.3784 59.1062 62.5791 58.879 62.7642 58.6348C62.8853 58.4739 63.012 58.313 63.1487 58.162C63.2839 58.011 63.4292 57.8685 63.5872 57.7471C63.8108 57.5749 64.0044 57.3759 64.1895 57.1713C64.329 57.0175 64.4643 56.8608 64.6053 56.7098C64.6523 56.659 64.6992 56.6096 64.7491 56.5602C64.7804 56.5277 64.8089 56.4939 64.8317 56.4586C64.8772 56.3866 64.9057 56.3104 64.9171 56.2328C64.9399 56.0775 64.8972 55.918 64.7989 55.791C64.7747 55.76 64.7462 55.7303 64.7149 55.7021C64.6565 55.6513 64.5967 55.6019 64.5384 55.5511C64.4786 55.5017 64.4202 55.4509 64.3618 55.4015C64.245 55.2999 64.1297 55.1969 64.0229 55.0868C63.5701 54.6225 63.1373 54.1398 62.6902 53.6684C62.4197 53.3833 62.1534 53.0926 61.8829 52.8075C61.6123 52.521 61.3389 52.2401 61.0513 51.972C60.6498 51.5966 60.2411 51.2282 59.8268 50.8655C59.4125 50.5028 58.9938 50.1457 58.5724 49.7915C58.2662 49.5346 57.9815 49.2608 57.7238 48.9631C57.6383 48.8643 57.5557 48.7612 57.476 48.6554C57.4404 48.6088 57.4133 48.551 57.3948 48.4903C57.3763 48.4296 57.3664 48.3661 57.3649 48.3068C57.3535 47.8171 57.3422 47.3273 57.3336 46.8376C57.3251 46.3479 57.3194 45.8582 57.3208 45.3684C57.3222 45.0142 57.3108 44.6599 57.2937 44.3057C57.2667 43.7751 57.224 43.2458 57.1784 42.7166C57.1329 42.1873 57.0859 41.6581 57.0503 41.1288C57.0261 40.7732 56.9805 40.4189 56.9349 40.0633C56.8879 39.709 56.841 39.3548 56.8111 38.9991C56.7698 38.4939 56.7028 37.9915 56.6331 37.4905C56.5149 36.6549 56.3853 35.8194 56.3426 34.9755C56.3227 34.5704 56.1732 34.1739 56.26 33.7801C57.3963 33.3045 58.5154 32.8345 59.6559 32.3561C59.6702 32.3928 59.6844 32.428 59.6986 32.4619C59.7385 32.5621 59.7741 32.6482 59.8069 32.7357C60.0333 33.3511 60.2668 33.9636 60.4832 34.5831C60.5686 34.8273 60.6555 35.0729 60.7409 35.317C60.9118 35.8067 61.0826 36.2951 61.2464 36.7876C61.329 37.0332 61.4087 37.2802 61.487 37.5257C61.5511 37.7261 61.6123 37.9265 61.6735 38.127C61.8558 38.7296 62.0238 39.3365 62.1719 39.949C62.1933 40.0351 62.216 40.1211 62.2402 40.2058C62.3371 40.5474 62.4581 40.8847 62.5877 41.2177C62.6517 41.3843 62.7187 41.5508 62.7856 41.7174C62.8183 41.8006 62.8525 41.8839 62.8853 41.9657C63.3124 43.0369 63.7581 44.0997 64.2109 45.1596C64.46 45.741 64.7534 46.3013 65.0851 46.8447C65.1107 46.887 65.1378 46.9265 65.1649 46.9632C65.1933 46.9999 65.2218 47.0352 65.2517 47.0677C65.3428 47.1665 65.4439 47.2455 65.555 47.3104C65.629 47.3527 65.7088 47.3894 65.7928 47.4205C65.8341 47.436 65.8782 47.4501 65.9224 47.4628C66.1231 47.5207 66.3267 47.5659 66.5303 47.6082C66.5432 47.611 66.5588 47.6138 66.5745 47.6153C66.62 47.6195 66.6713 47.6181 66.6969 47.5955C66.7325 47.5644 66.7696 47.5348 66.808 47.5066C67.0358 47.3372 67.2907 47.206 67.4929 46.9971C67.527 46.9618 67.5584 46.9251 67.5897 46.8856C68.024 46.3182 68.4155 45.7255 68.78 45.1172C68.9623 44.8124 69.1374 44.5047 69.3083 44.1942C69.3937 44.039 69.4777 43.8823 69.5617 43.7257C69.6458 43.569 69.7283 43.4123 69.8109 43.2543C69.8437 43.1908 69.8864 43.1343 69.9619 43.0172C69.9732 43.0906 69.9832 43.147 69.9903 43.1936C69.9974 43.2402 70.0031 43.2797 70.0074 43.3178C70.0416 43.7172 70.0174 44.1208 70.0558 44.5202C70.0686 44.6529 70.0886 44.787 70.1185 44.9196C70.1512 45.0594 70.1783 45.2019 70.1968 45.3444C70.2068 45.4164 70.2139 45.4884 70.2181 45.559C70.2224 45.6309 70.2253 45.7029 70.2238 45.7735C70.2224 45.8723 70.2324 45.9654 70.2509 46.0557C70.3064 46.3267 70.4374 46.5652 70.5713 46.808C70.5955 46.8517 70.6282 46.9011 70.6681 46.9322C70.6809 46.9421 70.6951 46.9505 70.7094 46.9562C70.7735 46.9816 70.839 47.007 70.903 47.0324C71.0967 47.11 71.2932 47.1848 71.4953 47.2201C71.8257 47.2794 72.1176 47.1707 72.2941 46.8574C72.4038 46.6612 72.5148 46.465 72.623 46.2689C72.7327 46.0727 72.8395 45.8751 72.9448 45.6761C72.9648 45.638 72.9819 45.5914 72.9918 45.5434C72.9961 45.5194 72.9989 45.4969 72.9989 45.4743C73.0004 45.4475 72.9989 45.4263 72.9933 45.4065ZM44.0632 19.3578C43.9365 18.4334 43.9123 17.5048 44.0191 16.5733C44.113 15.7575 44.4277 15.0194 44.8008 14.3011C44.9603 13.9934 45.1382 13.7027 45.4073 13.4684C45.9256 13.0168 46.8056 13.1551 46.9793 13.865C47.022 14.0428 47.0718 14.2206 47.0861 14.4013C47.1516 15.2537 47.1003 16.0991 46.9266 16.9402C46.6988 18.0453 46.4325 19.1405 46.1235 20.2258C46.0367 20.5335 45.8516 20.779 45.6893 21.0401C45.4145 21.4875 45.1283 21.9278 44.8008 22.4472C44.6242 21.8474 44.4519 21.3351 44.3266 20.8129C44.2127 20.3345 44.1301 19.8461 44.0632 19.3578ZM48.1696 42.5952C48.1155 41.8049 48.2693 41.0371 48.4672 40.2778C48.5626 39.9109 48.6637 39.5439 48.789 39.1869C48.9129 38.8354 49.1008 38.5193 49.4255 38.302C49.958 37.9477 50.5033 38.1227 50.6899 38.7324C50.7525 38.937 50.7767 39.1629 50.7653 39.3774C50.6998 40.5911 50.5119 41.7879 50.0904 42.9297C49.8398 43.6085 49.5009 44.2563 49.1848 44.9098C49.0567 45.1765 48.883 45.4207 48.7306 45.6761C48.6993 45.6761 48.6666 45.6761 48.6352 45.6761C48.5256 45.2217 48.3818 44.7714 48.3149 44.3099C48.2323 43.7426 48.2081 43.1682 48.1696 42.5952ZM37.1319 25.0779C37.4907 25.3686 37.8481 25.6622 38.2069 25.9543C38.98 26.5824 39.7532 27.209 40.5249 27.8384C40.9734 28.2054 41.4348 28.5596 41.8619 28.9491C42.45 29.4854 43.1377 29.875 43.787 30.3209C44.123 30.5524 44.1814 30.7288 43.9721 31.0774C43.8126 31.3427 43.6175 31.5925 43.4082 31.8226C43.0736 32.1909 42.7034 32.5254 42.3702 32.8952C41.7067 33.6305 40.9094 34.2134 40.1547 34.8456C39.8628 35.0912 39.598 35.3706 39.3032 35.612C38.9544 35.8985 38.5842 36.1582 38.2282 36.4362C38.1015 36.535 37.9862 36.6493 37.8651 36.758C37.6957 36.9104 37.5263 37.0628 37.3141 37.2533C37.2942 36.7749 37.2344 36.3755 37.2728 35.986C37.3027 35.6727 37.3027 35.3678 37.2771 35.0587C37.2586 34.8259 37.2002 34.5944 37.1945 34.3616C37.1788 33.6531 37.1817 32.9432 37.176 32.2347C37.1703 31.6194 37.2116 30.997 37.1432 30.3887C37.0706 29.7395 37.0635 29.0903 37.0279 28.4411C37.0122 28.1659 37.0194 27.8907 37.008 27.6154C36.9895 27.1906 36.961 26.7658 36.9411 26.3424C36.9197 25.8866 36.904 25.4307 36.8841 24.9029C37.0094 24.989 37.0735 25.0299 37.1319 25.0779ZM27.8881 44.2464C27.8839 43.4688 28.0177 42.7095 28.3281 41.9954C28.6001 41.3673 29.0756 40.9524 29.779 40.8381C29.836 40.8282 29.8915 40.8155 29.9485 40.8028C30.4013 40.7012 30.7515 40.9087 30.8868 41.3462C31.0406 41.8401 30.9694 42.3158 30.8341 42.8041C30.659 43.4377 30.3301 44.0051 30.1008 44.6148C29.8744 45.2174 29.601 45.8017 29.3433 46.3916C29.1055 46.9406 28.872 47.4911 28.6172 48.0316C28.526 48.2263 28.3794 48.3943 28.2583 48.5749C28.2242 48.5707 28.19 48.5679 28.1544 48.5637C28.0917 48.1346 28.0405 47.7042 27.9664 47.2779C27.7927 46.2717 27.8938 45.2569 27.8881 44.2464ZM17.3715 63.9033C16.2381 64.5581 15.1218 65.244 13.8474 65.7394C13.8759 65.587 13.8901 65.4571 13.9243 65.333C14.0738 64.7882 14.192 64.2406 14.266 63.6775C14.3657 62.9154 14.5423 62.1617 14.6989 61.4067C14.837 60.7419 14.9652 60.0715 15.1531 59.4195C15.4635 58.3342 15.7953 57.256 16.2352 56.2116C16.53 55.513 16.8575 54.8229 17.0412 54.0607C17.1109 54.8624 17.1907 55.664 17.2462 56.4656C17.3145 57.4536 17.3644 58.4429 17.417 59.4322C17.4726 60.478 17.521 61.5252 17.5751 62.5724C17.5893 62.8476 17.6022 63.1228 17.6278 63.3966C17.6477 63.6238 17.5922 63.7763 17.3715 63.9033ZM25.1415 74.0902C25.123 73.5398 25.1159 72.9879 25.1031 72.4361C25.1016 72.4022 25.0917 72.367 25.0945 72.3331C25.15 71.7234 25.1059 71.1109 25.1572 70.4998C25.1913 70.0919 25.395 69.7574 25.6 69.4272C25.7196 69.2338 25.8919 69.0729 26.0414 68.8965C26.2037 68.7046 26.4116 68.7286 26.6181 68.7921C26.816 68.8514 26.9427 69.001 26.9384 69.2014C26.9285 69.6699 26.994 70.1328 26.9299 70.6099C26.8202 71.4242 26.5255 72.1863 26.339 72.9767C26.2977 73.1531 26.2137 73.3238 26.1282 73.4861C25.8976 73.9251 25.6584 74.3597 25.4192 74.793C25.3821 74.8594 25.3266 74.9144 25.2568 75.0019C25.1258 74.6801 25.1515 74.3823 25.1415 74.0902ZM38.1072 72.1793C37.9776 72.2442 37.9036 72.4573 37.8466 72.6182C37.6145 73.2787 37.4138 73.9519 37.1731 74.6096C36.8926 75.3759 36.5851 76.1338 36.2832 76.8917C36.1337 77.2685 35.8418 77.5423 35.54 77.7949C35.2524 78.0362 34.9476 77.9389 34.7882 77.6058C34.5162 77.0356 34.408 76.4245 34.3055 75.8092C34.2414 75.4239 34.136 75.0442 34.0777 74.6575C33.9595 73.8728 33.8555 73.0853 33.7573 72.2964C33.6904 71.7587 33.6405 71.2196 33.5822 70.6804C33.5779 70.6466 33.5594 70.6113 33.5637 70.5788C33.6576 69.9734 33.4141 69.4046 33.3757 68.8133C33.2746 67.2721 33.1094 65.7352 33.1749 64.1841C33.2134 63.264 33.1621 62.3395 33.1792 61.4179C33.1906 60.7843 33.2504 60.152 33.2888 59.5183C33.3059 59.2431 33.3216 58.9679 33.3387 58.6701C34.3211 58.3003 35.2737 57.9433 36.2391 57.5806C36.2391 57.582 36.2548 57.558 36.2505 57.5411C36.091 57.0386 35.9785 56.9977 35.4802 57.1981C35.0715 57.3618 34.6515 57.4959 34.2371 57.6455C33.9566 57.7471 33.6776 57.853 33.3771 57.9645C33.2832 57.6413 33.3216 57.3491 33.36 57.0556C33.4811 56.141 33.6363 55.2293 33.5936 54.3035C33.5722 53.8434 33.5323 53.3833 33.3472 52.9486C33.2362 52.6861 32.9286 52.5789 32.6908 52.7327C32.5456 52.8258 32.5257 52.9641 32.5968 53.0954C32.9357 53.7192 32.8816 54.3882 32.8375 55.0543C32.8019 55.5836 32.7464 56.11 32.7065 56.6392C32.668 57.1642 32.6396 57.6907 32.604 58.2665C32.3363 58.337 32.0359 58.4189 31.7354 58.4923C31.1374 58.6405 30.5379 58.7816 29.9399 58.9298C29.8502 58.9524 29.7619 58.9848 29.6751 59.0159C29.228 59.1782 28.7823 59.3447 28.3338 59.5014C28.1302 59.5719 28.0334 59.6736 28.0533 59.8274C28.0775 60.0123 28.284 60.2042 28.4605 60.1845C28.5958 60.1689 28.7353 60.1365 28.8606 60.0828C30.0496 59.5748 31.3011 59.2671 32.5684 58.9326C32.6666 59.174 32.6225 59.4167 32.5954 59.6467C32.4844 60.6361 32.4687 61.624 32.5385 62.6162C32.5684 63.0508 32.5157 63.4912 32.52 63.9287C32.5285 64.863 32.5356 65.7959 32.5712 66.7287C32.5983 67.4542 32.6638 68.1782 32.7207 68.9036C32.7521 69.2945 32.8047 69.6826 32.8432 70.0736C32.8702 70.3488 32.7649 70.5831 32.6367 70.823C32.4758 71.125 32.3591 71.4496 32.2295 71.7686C31.9219 72.5264 31.5816 73.2688 31.1217 73.9519C30.8384 74.3724 30.5536 74.7916 30.2646 75.2094C29.8459 75.8162 29.4273 76.4231 29.0002 77.0229C28.5673 77.6312 27.9408 77.9798 27.2574 78.2324C26.8046 78.3989 26.4187 78.2225 26.124 77.8358C25.741 77.3334 25.4847 76.7562 25.2967 76.1549C25.8748 75.5198 26.2436 74.7803 26.5882 74.0267C26.6935 73.798 26.816 73.5765 26.9228 73.3478C26.9612 73.266 26.9811 73.1742 27.0025 73.0867C27.0922 72.7184 27.1677 72.3458 27.2716 71.9803C27.3727 71.6274 27.4539 71.2788 27.4596 70.9077C27.4638 70.648 27.5592 70.3897 27.5621 70.13C27.5663 69.7857 27.5464 69.4371 27.4909 69.0984C27.3713 68.3814 26.5711 67.9241 25.8719 68.1556C25.6811 68.2191 25.5117 68.3108 25.4192 68.5084C25.3764 68.6016 25.3081 68.6848 25.2426 68.7639C24.8582 69.231 24.6745 69.7899 24.4993 70.353C24.4865 70.3953 24.4823 70.4433 24.4837 70.4885C24.5022 71.3593 24.5278 72.2287 24.5421 73.0994C24.5506 73.664 24.5406 74.2285 24.5478 74.793C24.5506 75.0118 24.5705 75.2291 24.5947 75.4465L22.8733 76.711C22.5672 76.8112 22.2795 76.965 21.9805 77.0921C21.8979 77.1273 21.7826 77.2021 21.7285 77.1725C21.5249 77.0624 21.3483 77.1471 21.159 77.1923C20.5253 77.3447 20.0085 77.1415 19.6126 76.6447C19.5016 76.5064 19.4233 76.3257 19.3806 76.1521C19.2766 75.7273 19.1812 75.2997 19.1243 74.8678C19.0573 74.3612 19.0445 73.846 18.9933 73.3365C18.9434 72.8341 18.8722 72.3345 18.821 71.8321C18.7341 70.9966 18.6644 70.1597 18.5704 69.3242C18.4081 67.8804 18.4152 66.4295 18.391 64.9801C18.3867 64.7614 18.3497 64.544 18.3312 64.3267C18.3169 64.1672 18.344 64.043 18.5205 63.9626C19.0146 63.7396 19.5016 63.4982 19.9885 63.2597C20.0797 63.2146 20.1623 63.151 20.2591 63.089C20.2135 62.976 20.1836 62.8801 20.1381 62.7898C20.0099 62.5371 19.8917 62.5117 19.6326 62.6444C19.2097 62.8617 18.7825 63.0692 18.3568 63.2795C18.3383 63.2879 18.3127 63.2809 18.2628 63.2809C18.2486 63.1638 18.2244 63.0438 18.2187 62.9224C18.1688 61.7482 18.1361 60.5712 18.072 59.3984C18.0065 58.2128 17.914 57.0287 17.83 55.8447C17.7602 54.8666 17.6833 53.89 17.6121 52.9119C17.5751 52.4081 17.5025 51.9071 17.5666 51.3948C17.5965 51.1492 17.5253 50.8909 17.5082 50.6383C17.4655 49.9496 17.4284 49.2608 17.3871 48.5707C17.3815 48.479 17.3857 48.3816 17.3558 48.2969C17.2191 47.8933 17.3459 47.5814 17.6235 47.2667C18.0891 46.7374 18.5106 46.1701 18.9534 45.6211C19.0175 45.542 19.0901 45.47 19.1613 45.3967C19.2424 45.3134 19.3435 45.2442 19.4033 45.1483C19.7778 44.5372 20.3915 44.1561 20.8671 43.6438C21.0337 43.4646 21.1476 43.4759 21.3099 43.6494C21.4181 43.7652 21.5277 43.8992 21.579 44.0446C21.6701 44.3043 21.7427 44.5753 21.7783 44.8477C21.8723 45.5547 21.9521 46.2646 22.0176 46.9745C22.1044 47.9145 22.1599 48.8586 22.2511 49.7986C22.3208 50.5197 22.3991 51.2423 22.5771 51.9466C22.701 52.4363 23.0826 52.6762 23.6251 52.7341C24.2815 52.8047 24.8112 52.5506 25.3707 52.2627C25.9816 51.9494 26.4358 51.4498 26.9982 51.0857C27.3072 50.8867 27.5265 50.6115 27.7344 50.3193C27.7913 50.2389 27.8881 50.1867 27.9721 50.1161C28.2754 50.4859 28.5574 50.8062 28.8151 51.1464C29.1141 51.5415 29.5156 51.7885 29.9698 51.948C30.1464 52.0101 30.3642 52.0016 30.555 51.972C31.0591 51.8915 31.5617 51.7928 32.0615 51.6827C32.4402 51.598 32.772 51.4061 33.0838 51.1788C33.4298 50.9276 33.8029 50.7089 34.1161 50.4252C34.5191 50.0611 34.9277 49.6885 35.1698 49.1846C35.4674 49.0026 35.5186 48.5905 35.8646 48.4536C36.0768 48.0937 36.3886 47.7987 36.5353 47.3951C36.5965 47.2271 36.7047 47.0747 36.8214 46.8616C36.8627 46.959 36.8898 46.9929 36.8912 47.0281C36.9026 47.4784 36.904 47.9286 36.9183 48.3774C36.9567 49.5756 37.008 50.7738 37.0364 51.972C37.0535 52.6861 37.0208 53.4017 37.0464 54.1158C37.0777 54.9795 37.1447 55.8418 37.1988 56.7041C37.2173 57.0146 37.2429 57.3251 37.2614 57.6356C37.334 58.8324 37.3938 60.0306 37.4807 61.226L37.6715 63.0875C37.68 63.1652 37.6886 63.2442 37.6971 63.3218C37.7797 64.1235 37.8637 64.9265 37.9435 65.7281C38.0033 66.335 38.0631 66.9433 38.1129 67.5515C38.1741 68.2854 38.2239 69.0207 38.2823 69.7546C38.3208 70.2486 38.3649 70.7425 38.4062 71.2379C38.4091 71.2718 38.4219 71.3071 38.419 71.3409C38.3863 71.6444 38.4959 71.9831 38.1072 72.1793ZM49.2731 75.7908C49.1535 75.5255 49.0453 75.3463 48.9898 75.1515C48.8303 74.587 48.6836 74.0182 48.5484 73.4466C48.4928 73.2152 48.4686 72.9738 48.4516 72.7353C48.443 72.6266 48.4872 72.5137 48.5071 72.4022C48.5228 72.3133 48.5455 72.2244 48.5527 72.1355C48.5769 71.8067 48.5199 71.4482 48.6352 71.1546C48.7961 70.7468 48.6979 70.2782 48.9741 69.9099C49.0539 69.2861 49.4255 68.7864 49.733 68.2713C50.0933 67.6701 50.6358 67.2326 51.2907 66.9546C51.3335 66.9362 51.3747 66.9221 51.416 66.9122C51.4573 66.9023 51.4986 66.8967 51.5385 66.8939C51.6182 66.8896 51.6951 66.9009 51.7677 66.9263C51.913 66.9771 52.0425 67.0844 52.1508 67.2368C52.37 67.5501 52.3942 67.9016 52.3828 68.2572L52.1892 69.3354C52.1251 69.5457 52.0497 69.7532 51.9713 69.9578C51.9101 70.1159 51.8489 70.274 51.7877 70.432C51.604 70.9062 51.416 71.379 51.2139 71.8448C50.9775 72.3938 50.7098 72.9301 50.4521 73.4706C50.1445 74.1142 49.837 74.7577 49.5237 75.3999C49.4668 75.5128 49.387 75.613 49.2731 75.7908ZM57.1969 53.8547C57.2097 53.6373 57.2325 53.4186 57.251 53.2012C57.2596 53.0926 57.2681 52.9839 57.2724 52.8738C57.2952 52.2994 57.3037 51.725 57.3123 51.1506C57.3151 50.9319 57.3151 50.7131 57.3151 50.4887C57.3151 50.3772 57.3151 50.2629 57.3137 50.1472C57.3137 50.0314 57.3137 49.9143 57.3137 49.7929C57.4561 49.9129 57.5999 50.0328 57.7423 50.15C58.0285 50.3857 58.3147 50.6171 58.5994 50.8472C58.954 51.1365 59.3057 51.4244 59.6488 51.7194C59.992 52.0157 60.3251 52.3192 60.6469 52.6381C61.0983 53.0883 61.5369 53.5484 61.9711 54.0142C62.189 54.247 62.404 54.4799 62.6204 54.7128C62.8368 54.9456 63.0533 55.1785 63.2711 55.41C63.422 55.5694 63.5758 55.7275 63.7268 55.887C63.7595 55.9223 63.788 55.9547 63.8122 55.9872C63.8976 56.1001 63.9318 56.2017 63.9176 56.3033C63.9062 56.3795 63.8663 56.4572 63.7965 56.5418C63.7737 56.5701 63.7467 56.5983 63.7182 56.6279C63.6086 56.7394 63.4947 56.8467 63.3822 56.9539C63.2683 57.0612 63.1558 57.1685 63.0447 57.28C62.9807 57.3435 62.9209 57.4112 62.861 57.4804C62.8012 57.5481 62.7429 57.6173 62.6831 57.685C62.5307 57.8558 62.3712 58.0223 62.216 58.1917C62.1392 58.2764 62.0623 58.3624 61.9882 58.4499C61.9142 58.5374 61.8444 58.6264 61.7775 58.7195C61.7476 58.7604 61.7177 58.8 61.6864 58.8381C61.6223 58.9143 61.5554 58.9848 61.4856 59.054C61.4158 59.1217 61.3432 59.1881 61.2706 59.2516C61.161 59.3475 61.0499 59.4435 60.9431 59.5423C60.8776 59.603 60.8107 59.6609 60.7409 59.7173C60.533 59.8867 60.3095 60.0391 60.0959 60.2028C59.7684 60.4554 59.431 60.6968 59.1149 60.9635C58.7632 61.2599 58.4357 61.5845 58.0868 61.8837C57.9601 61.9924 57.8021 62.0629 57.6127 62.1772C57.5885 61.9133 57.5529 61.6819 57.5387 61.4589C57.5344 61.3841 57.5315 61.3121 57.533 61.2387C57.5372 61.0298 57.5301 60.8224 57.5173 60.6149C57.5045 60.4074 57.4817 60.2028 57.4575 59.9967C57.4333 59.7907 57.4048 59.5861 57.3763 59.38C57.3479 59.1754 57.3208 58.9693 57.2966 58.7633C57.2738 58.5643 57.261 58.3624 57.2539 58.162C57.2468 57.9616 57.2439 57.7584 57.2411 57.558C57.2297 56.9949 57.2183 56.4318 57.2097 55.8672C57.2012 55.3041 57.1941 54.741 57.1927 54.1765C57.1855 54.0734 57.1898 53.9634 57.1969 53.8547ZM56.4465 43.6071C56.4793 43.6113 56.5106 43.6142 56.5434 43.6184C56.5647 44.1124 56.5889 44.6063 56.606 45.1003C56.6174 45.4333 56.6203 45.7678 56.626 46.1009C56.6331 46.5144 56.6388 46.9265 56.6473 47.34C56.6502 47.4671 56.6658 47.5927 56.6687 47.7183C56.6729 47.8566 56.7185 48.0203 56.6601 48.1261C56.5277 48.3633 56.6017 48.5792 56.6331 48.8135C56.6644 49.0604 56.6473 49.3145 56.6402 49.5657C56.6288 50.0455 56.6017 50.5254 56.5975 51.0052C56.5932 51.4752 56.6259 51.9466 56.6146 52.4166C56.6003 52.9571 56.5505 53.4976 56.5249 54.0382C56.5064 54.4277 56.4893 54.8172 56.495 55.2067C56.5106 56.3457 56.5306 57.4846 56.5662 58.6235C56.5761 58.9439 56.653 59.2629 56.6858 59.5832C56.7726 60.4201 56.8509 61.2571 56.9321 62.094C56.9463 62.2407 56.9549 62.3889 56.9663 62.5555C56.6174 62.5922 56.4707 62.8025 56.4366 63.1087C56.4109 63.343 56.4622 63.4587 56.6786 63.549C57.0189 63.6888 57.1699 63.9259 57.2724 64.2858C57.6497 65.6053 57.7423 66.9602 57.8761 68.3108L57.6284 70.4208C57.3792 71.077 57.0218 71.6712 56.6416 72.2399C56.2401 72.8412 55.9681 73.5285 55.4484 74.0549C54.6753 74.8368 53.9163 75.6356 53.0122 76.2721C52.5978 76.5642 52.1223 76.7124 51.6011 76.6503C51.1754 76.5995 50.7468 76.56 50.3239 76.4866C50.136 76.4541 49.9594 76.3511 49.7587 76.2721C50.4749 75.1656 50.9433 73.9773 51.4858 72.8242C51.745 72.2724 52.0027 71.7163 52.2148 71.1462C52.4925 70.4024 52.7473 69.6488 52.9666 68.8852C53.1133 68.3715 53.1076 67.8521 52.9068 67.3243C52.7872 67.011 52.6505 66.733 52.3942 66.5255C52.165 66.3406 51.903 66.2263 51.5912 66.2926C51.4901 66.3138 51.3847 66.3195 51.2808 66.3223C50.9405 66.3307 50.6671 66.4648 50.4279 66.7076C50.1944 66.9447 49.9181 67.1423 49.6789 67.3765C49.5152 67.536 49.3514 67.711 49.2432 67.9086C49.0126 68.3334 48.8089 68.7752 48.6125 69.2169C48.3163 69.883 48.1369 70.5859 48.0329 71.3042C47.9589 71.8166 47.9418 72.3387 47.8493 72.8482C47.7638 73.3168 47.8336 73.7613 47.9489 74.2059C48.0728 74.6843 48.201 75.1628 48.3419 75.6356C48.3804 75.764 48.4715 75.8783 48.5455 75.9941C48.5996 76.0801 48.6651 76.1592 48.7378 76.258C48.3604 76.5642 48.0002 76.8549 47.5531 77.0017C47.1174 77.1457 46.5407 76.9114 46.2545 76.5614C45.5654 75.7231 45.3959 74.7239 45.282 73.6992C45.2493 73.4057 45.1681 73.1164 45.1311 72.8228C45.1041 72.6083 45.1041 72.3895 45.1126 72.1736C45.1197 72.0028 45.1809 71.8321 45.0556 71.6768C45.0371 71.6542 45.0357 71.6119 45.0357 71.578C45.0414 70.5958 44.8278 69.653 44.5317 68.7215C44.4163 68.3602 44.3295 67.9891 44.2284 67.6235C44.1017 67.1634 43.7628 66.9588 43.3171 66.8826C42.8287 66.7993 42.3902 66.8515 41.9701 67.1705C41.4319 67.5784 40.9079 67.9749 40.5392 68.5592C40.139 69.1929 39.682 69.7913 39.2491 70.4038C39.2306 70.4292 39.1993 70.4447 39.1409 70.4899C39.0811 70.0891 39.0085 69.7179 38.9743 69.3439C38.9017 68.5423 38.8647 67.7364 38.7864 66.9348C38.6896 65.9497 38.5643 64.9688 38.4546 63.9851C38.4247 63.7212 38.4062 63.4573 38.3834 63.1934C38.2866 62.0347 38.1912 60.8774 38.0972 59.7187C38.0887 59.6157 38.1043 59.5113 38.0972 59.4068C38.0502 58.6955 38.0047 57.9842 37.9477 57.2743C37.8794 56.4261 37.7954 55.5779 37.7299 54.7297C37.7114 54.4912 37.7626 54.2456 37.727 54.0113C37.6615 53.5823 37.8011 53.1702 37.7925 52.7496C37.784 52.3375 37.7626 51.924 37.7256 51.5119C37.6601 50.778 37.6516 50.0455 37.6729 49.3088C37.6872 48.8276 37.6217 48.3449 37.5975 47.8636C37.5889 47.683 37.6217 47.4953 37.5903 47.3203C37.532 46.9971 37.5804 46.6753 37.569 46.3535C37.5619 46.1348 37.5419 45.9146 37.5604 45.6973C37.5818 45.4376 37.6288 45.1807 37.68 44.9253C37.7313 44.6712 37.8338 44.413 37.5177 44.245C37.4964 44.2337 37.5049 44.1632 37.5006 44.1208C37.4707 43.6904 37.418 43.2585 37.418 42.8281C37.4152 41.5833 37.4337 40.3399 37.4408 39.0951C37.4408 38.9836 37.4166 38.8721 37.4195 38.7606C37.4209 38.7141 37.465 38.6703 37.5078 38.5941C37.7697 38.8637 38.0203 39.1008 38.2453 39.359C38.587 39.7514 38.8989 40.1705 39.2463 40.5572C39.578 40.927 39.9525 41.2601 40.2886 41.627C40.9037 42.3016 41.5117 42.9847 42.1097 43.6763C42.6621 44.3156 43.1961 44.9704 43.7386 45.6168C44.2355 46.2096 44.7324 46.8023 45.2336 47.3923C45.4501 47.6477 45.6779 47.8947 45.9028 48.1417C46.1492 48.4141 46.4937 48.4917 46.8284 48.5834C46.9807 48.6243 47.0946 48.5439 47.1886 48.4268C47.2584 48.3393 47.3224 48.2249 47.4178 48.1798C47.8322 47.9836 48.097 47.6265 48.406 47.3161C48.4772 47.2441 48.5455 47.1693 48.6523 47.055C48.826 47.2808 48.9741 47.4798 49.1307 47.6745C49.303 47.8905 49.4696 48.1134 49.6618 48.3124C50.0192 48.6822 50.482 48.8106 50.9832 48.8572C52.2163 48.9729 53.2229 48.4635 54.1627 47.7536C54.6639 47.3753 55.0099 46.8757 55.2989 46.331C55.4285 46.0868 55.5666 45.8483 55.709 45.6112C55.7417 45.5561 55.8115 45.5223 55.8556 45.4729C55.8998 45.4235 55.9553 45.3684 55.9667 45.3077C56.0735 44.7263 56.4124 44.214 56.4465 43.6071ZM58.1936 32.1909C57.7821 32.3659 57.3749 32.5466 56.9606 32.7089C56.6843 32.8176 56.4038 32.9164 56.1176 33.001C56.1176 32.7922 56.1176 32.6031 56.1176 32.4238C56.1176 32.2446 56.1176 32.0752 56.1162 31.9073C56.1162 31.896 56.1091 31.8847 56.102 31.8734C56.0963 31.8621 56.0906 31.8522 56.0934 31.8438C56.1347 31.745 56.1618 31.6462 56.1803 31.546C56.1931 31.4796 56.2002 31.4119 56.2059 31.3442C56.2173 31.2087 56.2159 31.0732 56.2145 30.9363C56.213 30.8347 56.2116 30.7316 56.213 30.63C56.213 30.5962 56.2145 30.5623 56.2159 30.5284C56.2201 30.4268 56.2301 30.3252 56.2486 30.225C56.4209 29.2963 56.5704 28.3649 56.7285 27.4334C56.8353 26.7983 56.9392 26.1618 57.0446 25.5267C57.0531 25.4759 57.0631 25.4265 57.0745 25.3658C57.0859 25.3051 57.1001 25.236 57.1172 25.1471C57.9758 27.3431 58.6991 29.5038 59.458 31.704C59.0223 31.8452 58.6051 32.0159 58.1936 32.1909Z" fill="white"/>
<path d="M37.7017 63.3246C37.6931 63.247 37.6846 63.168 37.676 63.0903L37.948 65.7323C37.8682 64.9293 37.7842 64.1262 37.7017 63.3246Z" fill="white"/>
</g>
<defs>
<clipPath id="clip0_2:98">
<rect width="73" height="79" fill="white"/>
</clipPath>
</defs>
</svg>
