<?xml version="1.0" standalone="no"?>
<!DOCTYPE svg PUBLIC "-//W3C//DTD SVG 20010904//EN"
 "http://www.w3.org/TR/2001/REC-SVG-20010904/DTD/svg10.dtd">
<svg version="1.0" xmlns="http://www.w3.org/2000/svg"
 width="256.000000pt" height="256.000000pt" viewBox="0 0 256.000000 256.000000"
 preserveAspectRatio="xMidYMid meet">
<metadata>
Created by potrace 1.14, written by Peter Selinger 2001-2017
</metadata>
<g transform="translate(0.000000,256.000000) scale(0.100000,-0.100000)"
fill="#000000" stroke="none">
<path d="M0 1280 l0 -1280 1280 0 1280 0 0 1280 0 1280 -1280 0 -1280 0 0
-1280z m1230 360 c-8 -5 -19 -10 -25 -10 -5 0 -3 5 5 10 8 5 20 10 25 10 6 0
3 -5 -5 -10z m76 -95 c-34 -35 -31 -57 13 -95 40 -34 41 -37 24 -51 -16 -12
-17 -12 -6 1 10 13 6 20 -22 43 l-34 27 -3 -23 c-3 -15 -5 -10 -9 16 -5 39 19
97 42 97 6 0 4 -7 -5 -15z m62 -25 c6 14 11 19 11 12 1 -7 -4 -22 -9 -33 -13
-23 7 -27 30 -6 12 10 12 9 2 -4 -8 -10 -27 -17 -47 -17 -33 0 -35 2 -34 32 2
30 2 30 6 4 6 -42 22 -34 18 10 -2 33 -2 34 4 7 l8 -30 11 25z m-141 -42 c-3
-7 -5 -2 -5 12 0 14 2 19 5 13 2 -7 2 -19 0 -25z m266 -38 c8 -22 12 -40 7
-40 -5 0 -12 15 -16 33 -7 31 -8 32 -15 7 -7 -23 -7 -23 -8 8 -1 44 13 40 32
-8z m100 -151 c-4 -5 -6 38 -3 94 l5 102 3 -94 c1 -52 -1 -98 -5 -102z m-639
143 c-6 -4 -14 -14 -17 -22 -4 -10 -6 -8 -6 8 -1 15 5 22 17 22 10 0 13 -3 6
-8z m59 1 c-7 -2 -21 -2 -30 0 -10 3 -4 5 12 5 17 0 24 -2 18 -5z m74 -65 c-2
-13 -4 -3 -4 22 0 25 2 35 4 23 2 -13 2 -33 0 -45z m388 22 c-3 -5 -12 -10
-18 -10 -7 0 -6 4 3 10 19 12 23 12 15 0z m-168 -27 c-16 -16 -15 -19 6 -42
l22 -26 -25 20 c-14 11 -27 21 -29 22 -5 3 30 43 38 43 3 0 -2 -8 -12 -17z
m160 -30 c-3 -10 -5 -4 -5 12 0 17 2 24 5 18 2 -7 2 -21 0 -30z m-49 -19 c-3
-14 -5 -12 -10 9 -3 19 -2 25 4 19 6 -6 8 -18 6 -28z m-31 -26 c-3 -7 -5 -2
-5 12 0 14 2 19 5 13 2 -7 2 -19 0 -25z m83 9 c0 -7 -7 -22 -15 -33 -13 -17
-13 -16 -3 14 13 34 18 40 18 19z m-249 -24 c-12 -20 -14 -14 -5 12 4 9 9 14
11 11 3 -2 0 -13 -6 -23z m67 -65 l-1 -83 -6 63 c-6 62 -6 63 -24 42 -14 -16
-25 -20 -44 -15 -14 3 -31 1 -39 -6 -20 -16 -37 2 -31 32 4 21 4 21 6 -4 1
-34 20 -32 38 4 11 21 18 19 14 -4 -1 -4 6 -10 14 -14 18 -6 65 33 65 54 0 7
2 13 5 13 3 0 4 -37 3 -82z m100 54 c8 8 12 8 12 1 0 -21 -28 -21 -47 0 -18
22 -18 22 3 5 16 -14 23 -15 32 -6z m-297 -15 c-10 -9 -11 -8 -5 6 3 10 9 15
12 12 3 -3 0 -11 -7 -18z m484 13 c-3 -5 -12 -10 -18 -10 -7 0 -6 4 3 10 19
12 23 12 15 0z m-90 -30 c3 -5 1 -10 -4 -10 -6 0 -11 5 -11 10 0 6 2 10 4 10
3 0 8 -4 11 -10z m-430 -30 c-3 -5 -12 -10 -18 -10 -7 0 -6 4 3 10 19 12 23
12 15 0z m53 -90 c4 -3 4 -32 1 -65 -6 -59 -6 -59 -7 -12 -1 26 -5 47 -9 47
-18 -1 -32 -17 -42 -50 l-11 -35 5 33 c4 25 1 32 -13 33 -13 0 -11 3 6 9 15 6
22 18 23 37 2 24 2 25 6 6 4 -22 14 -29 25 -18 3 3 2 24 -2 47 -5 23 -5 49 -1
57 3 9 7 -6 9 -34 2 -27 6 -52 10 -55z m156 48 c8 -6 7 -8 -1 -8 -9 0 -13 -21
-13 -70 0 -62 -3 -74 -27 -100 -26 -29 -53 -40 -53 -20 0 5 -13 7 -30 4 -17
-4 -30 -2 -30 3 0 5 10 9 22 9 15 -1 23 6 26 19 8 50 13 65 23 65 10 0 9 -42
-2 -79 -9 -29 21 -21 41 11 23 39 29 147 8 149 -10 0 -10 2 0 6 6 2 13 17 13
31 1 21 2 23 6 7 3 -11 10 -23 17 -27z m276 7 c0 -8 -13 -24 -30 -36 l-29 -22
50 -64 c27 -34 45 -63 40 -63 -6 0 -26 21 -46 46 l-35 47 -1 -59 c-1 -32 -4
-47 -6 -31 l-4 28 -18 -22 c-12 -15 -31 -23 -57 -25 -43 -4 -54 7 -53 51 1 31
3 28 13 -17 4 -16 11 -28 16 -28 6 0 8 12 5 28 -3 15 -2 21 1 15 10 -21 21
-15 33 17 11 32 -2 41 -18 13 -6 -10 -10 -13 -11 -8 0 20 18 38 34 32 14 -5
14 -11 1 -47 -12 -35 -12 -40 1 -40 8 0 23 15 34 33 16 25 19 43 14 82 -3 31
-2 45 3 37 12 -16 59 31 48 49 -5 8 -4 10 3 5 7 -4 12 -14 12 -21z m-221 -112
c15 19 31 22 31 6 0 -5 -4 -8 -9 -4 -15 9 -41 -37 -42 -75 0 -19 -3 -29 -6
-22 -4 10 -8 10 -19 1 -11 -9 -15 -8 -20 5 -4 9 -4 20 0 23 3 4 6 -2 6 -13 1
-43 29 32 31 81 1 45 2 47 8 16 5 -31 7 -33 20 -18z"/>
<path d="M1172 1020 c0 -14 2 -19 5 -12 2 6 2 18 0 25 -3 6 -5 1 -5 -13z"/>
</g>
</svg>
